{
.appVersion = "3133";
.formatVersion = 3;
axes = (
{
name = Weight;
tag = wght;
},
{
name = Slant;
tag = slnt;
}
);
customParameters = (
{
name = "Variable Font Origin";
value = m01;
}
);
date = "2022-01-28 15:32:17 +0000";
familyName = "Uncut Sans";
featurePrefixes = (
{
automatic = 1;
code = "languagesystem DFLT dflt;

languagesystem latn dflt;
languagesystem latn AZE;
languagesystem latn CRT;
languagesystem latn KAZ;
languagesystem latn TAT;
languagesystem latn TRK;
languagesystem latn ROM;
languagesystem latn MOL;
languagesystem latn CAT;
languagesystem latn NLD;
";
name = Languagesystems;
}
);
features = (
{
automatic = 1;
code = "feature locl;
feature numr;
feature dnom;
feature frac;
feature ordn;
feature pnum;
feature tnum;
feature case;
feature zero;
feature ss01;
feature ss02;
feature ss03;
feature ss04;
feature ss05;
feature ss06;
feature ss07;
feature ss08;
";
tag = aalt;
},
{
automatic = 1;
code = "lookup locl_latn_0 {
	script latn;
	language AZE;
	sub i by idotaccent;
	language CRT;
	sub i by idotaccent;
	language KAZ;
	sub i by idotaccent;
	language TAT;
	sub i by idotaccent;
	language TRK;
	sub i by idotaccent;
} locl_latn_0;

lookup locl_latn_1 {
	script latn;
	language ROM;
	sub Scedilla by Scommaaccent;
	sub scedilla by scommaaccent;
	sub Tcedilla by Tcommaaccent;
	sub tcedilla by tcommaaccent;
	language MOL;
	sub Scedilla by Scommaaccent;
	sub scedilla by scommaaccent;
	sub Tcedilla by Tcommaaccent;
	sub tcedilla by tcommaaccent;
} locl_latn_1;

lookup locl_latn_2 {
	script latn;
	language CAT;
	sub  l' periodcentered' l by ldot;
	sub  L' periodcentered' L by Ldot;
} locl_latn_2;

lookup locl_latn_3 {
	script latn;
	language NLD;
	sub iacute j' by jacute;
	sub Iacute J' by Jacute;
} locl_latn_3;
";
tag = locl;
},
{
automatic = 1;
code = "sub zero by zero.numr;
sub one by one.numr;
sub two by two.numr;
sub three by three.numr;
sub four by four.numr;
sub five by five.numr;
sub six by six.numr;
sub seven by seven.numr;
sub eight by eight.numr;

glyphs = (
{
glyphname = A;
kernLeft = A;
kernRight = A;
lastChange = "2022-08-14 17:54:43 +0000";
layers = (
{
layerId = m01;
shapes = (
{
closed = 1;
nodes = (
(99,0,l),
(333,678,l),
(303,678,l),
(536,0,l),
(615,0,l),
(374,700,l),
(261,700,l),
(20,0,l)
);
},
{
closed = 1;
nodes = (
(474,226,l),
(474,299,l),
(161,299,l),
(161,226,l)
);
}
);
width = 635;
},
{
layerId = m005;
shapes = (
{
closed = 1;
nodes = (
(150,0,l),
(378,678,l),
(313,678,l),
(539,0,l),
(679,0,l),
(445,700,l),
(244,700,l),
(10,0,l)
);
},
{
closed = 1;
nodes = (
(531,206,l),
(531,319,l),
(158,319,l),
(158,206,l)
);
}
);
width = 689;
},
{
layerId = m007;
shapes = (
{
closed = 1;
nodes = (
(83,0,l),
(320,678,l),
(308,678,l),
(544,0,l),
(602,0,l),
(358,700,l),
(269,700,l),
(25,0,l)
);
},
{
closed = 1;
nodes = (
(475,236,l),
(475,289,l),
(152,289,l),
(152,236,l)
);
}
);
width = 627;
},
{
layerId = m004;
shapes = (
{
closed = 1;
nodes = (
(33,0,l),
(399,678,l),
(369,678,l),
(470,0,l),
(546,0,l),
(441,700,l),
(328,700,l),
(-49,0,l)
);
},
{
closed = 1;
nodes = (
(452,226,l),
(466,299,l),
(153,299,l),
(139,226,l)
);
}
);
width = 635;
},
{
layerId = m008;
shapes = (
{
closed = 1;
nodes = (
(86,0,l),
(446,678,l),
(381,678,l),
(475,0,l),
(610,0,l),
(512,700,l),
(311,700,l),
(-59,0,l)
);
},
{
closed = 1;
nodes = (
(507,206,l),
(529,319,l),
(156,319,l),
(134,206,l)
);
}
);
width = 689;
},
{
layerId = m006;
shapes = (
{
closed = 1;
nodes = (
(17,0,l),
(386,678,l),
(374,678,l),
(478,0,l),
(533,0,l),
(425,700,l),
(336,700,l),
(-44,0,l)
);
},
{
closed = 1;
nodes = (
(455,236,l),
(465,289,l),
(142,289,l),
(132,236,l)
);
}
);
width = 627;
}
);
unicode = 65;
},
{
glyphname = AE;
kernLeft = A;
kernRight = E;
lastChange = "2022-08-02 18:51:31 +0000";
layers = (
{
layerId = m01;
shapes = (
{
closed = 1;
nodes = (
(795,627,l),
(795,700,l),
(364,700,l),
(364,627,l)
);
},
{
ref = A;
},
{
closed = 1;
nodes = (
(795,0,l),
(795,73,l),
(549,73,l),
(549,0,l)
);
},
{
closed = 1;
nodes = (
(735,327,l),
(735,400,l),
(445,400,l),
(445,327,l)
);
}
);
width = 850;
},
{
layerId = m005;
shapes = (
{
closed = 1;
nodes = (
(825,587,l),
(825,700,l),
(415,700,l),
(415,587,l)
);
},
{
ref = A;
},
{
closed = 1;
nodes = (
(825,0,l),
(825,113,l),
(566,113,l),
(566,0,l)
);
},
{
closed = 1;
nodes = (
(765,307,l),
(765,420,l),
(495,420,l),
(495,307,l)
);
}
);
width = 870;
},
{
layerId = m007;
shapes = (
{
closed = 1;
nodes = (
(785,647,l),
(785,700,l),
(344,700,l),
(344,647,l)
);
},
{
ref = A;
},
{
closed = 1;
nodes = (
(785,0,l),
(785,53,l),
(559,53,l),
(559,0,l)
);
},
{
closed = 1;
nodes = (
(725,337,l),
(725,390,l),
(445,390,l),
(445,337,l)
);
}
);
width = 845;
},
{
layerId = m004;
shapes = (
{
closed = 1;
nodes = (
(849,627,l),
(863,700,l),
(432,700,l),
(418,627,l)
);
},
{
ref = A;
},
{
closed = 1;
nodes = (
(727,0,l),
(741,73,l),
(495,73,l),
(481,0,l)
);
},
{
closed = 1;
nodes = (
(731,327,l),
(745,400,l),
(455,400,l),
(441,327,l)
);
}
);
width = 851;
},
{
layerId = m008;
shapes = (
{
closed = 1;
nodes = (
(871,587,l),
(893,700,l),
(483,700,l),
(461,587,l)
);
},
{
ref = A;
},
{
closed = 1;
nodes = (
(757,0,l),
(779,113,l),
(520,113,l),
(498,0,l)
);
},
{
closed = 1;
nodes = (
(757,307,l),
(779,420,l),
(509,420,l),
(487,307,l)
);
}
);
width = 871;
},
{
layerId = m006;
shapes = (
{
closed = 1;
nodes = (
(843,647,l),
(853,700,l),
(412,700,l),
(402,647,l)
);
},
{
ref = A;
},
{
closed = 1;
nodes = (
(717,0,l),
(727,53,l),
(501,53,l),
(491,0,l)
);
},
{
closed = 1;
nodes = (
(722,337,l),
(733,390,l),
(453,390,l),
(442,337,l)
);
}
);
width = 846;
}
);
metricLeft = A;
metricRight = E;
unicode = 198;
},
{
glyphname = B;
kernLeft = H;
kernRight = B;
lastChange = "2022-08-11 18:01:24 +0000";
layers = (
{
layerId = m01;
shapes = (
{
closed = 1;
nodes = (
(305,0,ls),
(405,0,o),
(536,36,o),
(536,196,cs),
(536,304,o),
(458,361,o),
(373,361,c),
(373,357,l),
(448,357,o),
(496,433,o),
(496,510,cs),
(496,650,o),
(375,700,o),
(265,700,cs),
(98,700,l),
(98,627,l),
(265,627,ls),
(365,627,o),
(418,590,o),
(418,510,cs),
(418,430,o),
(365,392,o),
(265,392,cs),
(98,392,l),
(98,319,l),
(305,319,ls),
(395,319,o),
(458,286,o),
(458,196,cs),
(458,106,o),
(395,73,o),
(305,73,cs),
(118,73,l),
(118,0,l)
);
},
{
closed = 1;
nodes = (
(158,0,l),
(158,700,l),
(85,700,l),
(85,0,l)
);
}
);
width = 596;
},
{
layerId = m005;
shapes = (
{
closed = 1;
nodes = (
(315,0,ls),
(435,0,o),
(586,36,o),
(586,206,cs),
(586,306,o),
(503,371,o),
(373,371,c),
(373,348,l),
(483,348,o),
(546,410,o),
(546,500,cs),
(546,650,o),
(425,700,o),
(275,700,cs),
(88,700,l),
(88,587,l),
(275,587,ls),
(365,587,o),
(408,563,o),
(408,500,cs),
(408,437,o),
(365,411,o),
(275,411,cs),
(88,411,l),
(88,299,l),
(315,299,ls),
(395,299,o),
(448,276,o),
(448,206,cs),
(448,136,o),
(395,113,o),
(315,113,cs),
(108,113,l),
(108,0,l)
);
},
{
closed = 1;
nodes = (
(208,0,l),
(208,700,l),
(75,700,l),
(75,0,l)
);
}
);
width = 636;
},
{
layerId = m007;
shapes = (
{
closed = 1;
nodes = (
(300,0,ls),
(399,0,o),
(521,39,o),
(521,191,cs),
(521,294,o),
(448,361,o),
(338,361,c),
(338,357,l),
(438,357,o),
(481,441,o),
(481,515,cs),
(481,648,o),
(368,700,o),
(260,700,cs),
(103,700,l),
(103,647,l),
(260,647,ls),
(364,647,o),
(423,601,o),
(423,515,cs),
(423,429,o),
(364,382,o),
(260,382,cs),
(103,382,l),
(103,329,l),
(300,329,ls),
(394,329,o),
(463,288,o),
(463,191,cs),
(463,94,o),
(394,53,o),
(300,53,cs),
(123,53,l),
(123,0,l)
);
},
{
closed = 1;
nodes = (
(143,0,l),
(143,700,l),
(90,700,l),
(90,0,l)
);
}
);
width = 586;
},
{
layerId = m004;
shapes = (
{
closed = 1;
nodes = (
(236,0,ls),
(366,0,o),
(476,49,o),
(505,196,cs),
(524,294,o),
(454,361,o),
(374,361,c),
(373,357,l),
(443,357,o),
(511,431,o),
(526,510,cs),
(549,628,o),
(462,700,o),
(332,700,cs),
(165,700,l),
(151,627,l),
(318,627,ls),
(418,627,o),
(463,589,o),
(448,510,cs),
(433,431,o),
(372,392,o),
(272,392,cs),
(105,392,l),
(91,319,l),
(298,319,ls),
(388,319,o),
(445,286,o),
(427,196,cs),
(410,106,o),
(340,73,o),
(250,73,cs),
(63,73,l),
(49,0,l)
);
},
{
closed = 1;
nodes = (
(89,0,l),
(225,700,l),
(152,700,l),
(16,0,l)
);
}
);
width = 595;
},
{
layerId = m008;
shapes = (
{
closed = 1;
nodes = (
(266,0,ls),
(416,0,o),
(530,69,o),
(553,186,cs),
(576,304,o),
(482,367,o),
(392,367,c),
(392,352,l),
(452,352,o),
(552,382,o),
(574,500,cs),
(599,628,o),
(502,700,o),
(342,700,cs),
(155,700,l),
(133,587,l),
(320,587,ls),
(410,587,o),
(447,559,o),
(436,500,cs),
(425,441,o),
(376,411,o),
(286,411,cs),
(99,411,l),
(77,299,l),
(304,299,ls),
(384,299,o),
(433,276,o),
(419,206,cs),
(405,136,o),
(348,113,o),
(268,113,cs),
(61,113,l),
(39,0,l)
);
},
{
closed = 1;
nodes = (
(139,0,l),
(275,700,l),
(142,700,l),
(6,0,l)
);
}
);
width = 635;
},
{
layerId = m006;
shapes = (
{
closed = 1;
nodes = (
(231,0,ls),
(330,0,o),
(460,39,o),
(489,191,cs),
(509,294,o),
(449,361,o),
(339,361,c),
(338,357,l),
(438,357,o),
(498,441,o),
(512,515,cs),
(538,648,o),
(435,700,o),
(327,700,cs),
(170,700,l),
(160,647,l),
(317,647,ls),
(421,647,o),
(471,601,o),
(454,515,cs),
(437,429,o),
(369,382,o),
(265,382,cs),
(108,382,l),
(98,329,l),
(295,329,ls),
(389,329,o),
(450,288,o),
(431,191,cs),
(412,94,o),
(335,53,o),
(241,53,cs),
(64,53,l),
(54,0,l)
);
},
{
closed = 1;
nodes = (
(74,0,l),
(210,700,l),
(157,700,l),
(21,0,l)
);
}
);
width = 585;
}
);
metricLeft = H;
unicode = 66;
},
{
glyphname = C;
kernLeft = O;
kernRight = O;
lastChange = "2022-08-11 18:01:57 +0000";
layers = (
{
layerId = m01;
shapes = (
{
closed = 1;
nodes = (
(542,-16,o),
(661,98,o),
(677,267,c),
(598,277,l),
(587,159,o),
(512,57,o),
(382,57,cs),
(232,57,o),
(138,190,o),
(138,350,cs),
(138,510,o),
(232,642,o),
(382,642,cs),
(512,642,o),
(584,536,o),
(597,418,c),
(677,428,l),
(661,597,o),
(542,716,o),
(382,716,cs),
(212,716,o),
(60,580,o),
(60,350,cs),
(60,120,o),
(212,-16,o),
(382,-16,cs)
);
}
);
width = 742;
},
{
layerId = m005;
shapes = (
{
closed = 1;
nodes = (
(592,-16,o),
(715,124,o),
(719,273,c),
(581,283,l),
(576,194,o),
(532,97,o),
(402,97,cs),
(271,97,o),
(188,194,o),
(188,350,cs),
(188,506,o),
(270,602,o),
(402,602,cs),
(532,602,o),
(576,501,o),
(581,412,c),
(719,422,l),
(715,572,o),
(592,716,o),
(402,716,cs),
(214,716,o),
(50,590,o),
(50,350,cs),
(50,110,o),
(214,-16,o),
(402,-16,cs)
);
}
);
width = 774;
},
{
layerId = m007;
shapes = (
{
closed = 1;
nodes = (
(527,-16,o),
(642,99,o),
(661,258,c),
(602,266,l),
(587,147,o),
(507,37,o),
(377,37,cs),
(217,37,o),
(123,180,o),
(123,350,cs),
(123,520,o),
(217,662,o),
(377,662,cs),
(507,662,o),
(584,547,o),
(601,428,c),
(661,437,l),
(642,596,o),
(527,716,o),
(377,716,cs),
(207,716,o),
(65,580,o),
(65,350,cs),
(65,120,o),
(207,-16,o),
(377,-16,cs)
);
}
);
width = 731;
},
{
layerId = m004;
shapes = (
{
closed = 1;
nodes = (
(460,-16,o),
(601,98,o),
(650,267,c),
(573,277,l),
(539,159,o),
(444,57,o),
(314,57,cs),
(154,57,o),
(97,193,o),
(127,350,cs),
(161,527,o),
(278,642,o),
(428,642,cs),
(558,642,o),
(611,556,o),
(599,417,c),
(681,428,l),
(695,567,o),
(622,716,o),
(442,716,cs),
(272,716,o),
(97,595,o),
(49,350,cs),
(11,154,o),
(110,-16,o),
(300,-16,cs)
);
}
);
width = 722;
},
{
layerId = m008;
shapes = (
{
closed = 1;
nodes = (
(522,-16,o),
(666,107,o),
(703,273,c),
(567,283,l),
(545,194,o),
(472,97,o),
(342,97,cs),
(222,97,o),
(157,194,o),
(187,350,cs),
(217,506,o),
(320,602,o),
(450,602,cs),
(570,602,o),
(604,501,o),
(592,412,c),
(732,422,l),
(755,560,o),
(670,716,o),
(450,716,cs),
(260,716,o),
(96,590,o),
(49,350,cs),
(5,124,o),
(122,-16,o),
(342,-16,cs)
);
}
);
width = 774;
},
{
layerId = m006;
shapes = (
{
closed = 1;
nodes = (
(455,-16,o),
(592,99,o),
(642,258,c),
(585,266,l),
(547,147,o),
(445,37,o),
(315,37,cs),
(155,37,o),
(89,180,o),
(122,350,cs),
(155,520,o),
(277,662,o),
(437,662,cs),
(567,662,o),
(621,547,o),
(615,428,c),
(677,437,l),
(689,596,o),
(597,716,o),
(447,716,cs),
(277,716,o),
(109,580,o),
(64,350,cs),
(19,120,o),
(135,-16,o),
(305,-16,cs)
);
}
);
width = 731;
}
);
metricLeft = O;
metricRight = "=O+5";
unicode = 67;
},
{
glyphname = D;
kernLeft = H;
kernRight = D;
lastChange = "2022-07-26 06:50:25 +0000";
layers = (
{
layerId = m01;
shapes = (
{
closed = 1;
nodes = (
(285,0,ls),
(485,0,o),
(603,110,o),
(603,350,cs),
(603,590,o),
(485,700,o),
(285,700,cs),
(143,700,l),
(143,627,l),
(285,627,ls),
(445,627,o),
(525,540,o),
(525,350,cs),
(525,160,o),
(445,73,o),
(285,73,cs),
(143,73,l),
(143,0,l)
);
},
{
closed = 1;
nodes = (
(163,0,l),
(163,700,l),
(85,700,l),
(85,0,l)
);
}
);
width = 658;
},
{
layerId = m005;
shapes = (
{
closed = 1;
nodes = (
(305,0,ls),
(503,0,o),
(653,90,o),
(653,350,cs),
(653,610,o),
(503,700,o),
(305,700,cs),
(133,700,l),
(133,587,l),
(305,587,ls),
(449,587,o),
(515,525,o),
(515,350,cs),
(515,175,o),
(449,113,o),
(305,113,cs),
(133,113,l),
(133,0,l)
);
},
{
closed = 1;
nodes = (
(213,0,l),
(213,700,l),
(75,700,l),
(75,0,l)
);
}
);
width = 698;
},
{
layerId = m007;
shapes = (
{
closed = 1;
nodes = (
(280,0,ls),
(480,0,o),
(588,110,o),
(588,350,cs),
(588,590,o),
(480,700,o),
(280,700,cs),
(138,700,l),
(138,647,l),
(280,647,ls),
(450,647,o),
(530,550,o),
(530,350,cs),
(530,150,o),
(450,53,o),
(280,53,cs),
(138,53,l),
(138,0,l)
);
},
{
closed = 1;
nodes = (
(148,0,l),
(148,700,l),
(90,700,l),
(90,0,l)
);
}
);
width = 648;
},
{
layerId = m004;
shapes = (
{
closed = 1;
nodes = (
(216,0,ls),
(426,0,o),
(556,114,o),
(602,350,cs),
(646,576,o),
(532,700,o),
(352,700,cs),
(210,700,l),
(196,627,l),
(338,627,ls),
(488,627,o),
(564,556,o),
(524,350,cs),
(492,183,o),
(400,73,o),
(230,73,cs),
(88,73,l),
(74,0,l)
);
},
{
closed = 1;
nodes = (
(94,0,l),
(230,700,l),
(152,700,l),
(16,0,l)
);
}
);
width = 648;
},
{
layerId = m008;
shapes = (
{
closed = 1;
nodes = (
(236,0,ls),
(434,0,o),
(601,90,o),
(652,350,cs),
(703,610,o),
(570,700,o),
(372,700,cs),
(200,700,l),
(178,587,l),
(350,587,ls),
(494,587,o),
(548,525,o),
(514,350,cs),
(480,175,o),
(402,113,o),
(258,113,cs),
(86,113,l),
(64,0,l)
);
},
{
closed = 1;
nodes = (
(144,0,l),
(280,700,l),
(142,700,l),
(6,0,l)
);
}
);
width = 698;
},
{
layerId = m006;
shapes = (
{
closed = 1;
nodes = (
(211,0,ls),
(411,0,o),
(540,110,o),
(587,350,cs),
(634,590,o),
(547,700,o),
(347,700,cs),
(205,700,l),
(195,647,l),
(337,647,ls),
(507,647,o),
(568,550,o),
(529,350,cs),
(490,150,o),
(391,53,o),
(221,53,cs),
(79,53,l),
(69,0,l)
);
},
{
closed = 1;
nodes = (
(79,0,l),
(215,700,l),
(157,700,l),
(21,0,l)
);
}
);
width = 648;
}
);
metricLeft = H;
metricRight = "=O-5";
unicode = 68;
},
{
glyphname = Eth;
kernLeft = H;
kernRight = D;
lastChange = "2022-07-26 06:50:25 +0000";
layers = (
{
layerId = m01;
shapes = (
{
closed = 1;
nodes = (
(315,320,l),
(315,380,l),
(15,380,l),
(15,320,l)
);
},
{
ref = D;
}
);
width = 658;
},
{
layerId = m005;
shapes = (
{
closed = 1;
nodes = (
(325,305,l),
(325,395,l),
(5,395,l),
(5,305,l)
);
},
{
pos = (-5,0);
ref = D;
}
);
width = 693;
},
{
layerId = m007;
shapes = (
{
closed = 1;
nodes = (
(310,330,l),
(310,370,l),
(20,370,l),
(20,330,l)
);
},
{
ref = D;
}
);
width = 648;
},
{
layerId = m004;
shapes = (
{
closed = 1;
nodes = (
(309,320,l),
(321,380,l),
(21,380,l),
(9,320,l)
);
},
{
ref = D;
}
);
width = 648;
},
{
layerId = m008;
shapes = (
{
closed = 1;
nodes = (
(316,305,l),
(334,395,l),
(14,395,l),
(-4,305,l)
);
},
{
pos = (-5,0);
ref = D;
}
);
width = 693;
},
{
layerId = m006;
shapes = (
{
closed = 1;
nodes = (
(306,330,l),
(314,370,l),
(24,370,l),
(16,330,l)
);
},
{
ref = D;
}
);
width = 648;
}
);
metricLeft = "=D-70";
metricRight = D;
unicode = 208;
},
{
glyphname = Dcroat;
kernLeft = H;
kernRight = D;
lastChange = "2022-08-07 08:28:59 +0000";
layers = (
{
layerId = m01;
shapes = (
{
closed = 1;
nodes = (
(305,323,l),
(305,377,l),
(15,377,l),
(15,323,l)
);
},
{
pos = (20,0);
ref = D;
}
);
width = 678;
},
{
layerId = m005;
shapes = (
{
closed = 1;
nodes = (
(333,294,l),
(333,407,l),
(5,407,l),
(5,294,l)
);
},
{
pos = (15,0);
ref = D;
}
);
width = 713;
},
{
layerId = m007;
shapes = (
{
closed = 1;
nodes = (
(310,330,l),
(310,370,l),
(20,370,l),
(20,330,l)
);
},
{
pos = (15,0);
ref = D;
}
);
width = 663;
},
{
layerId = m004;
shapes = (
{
closed = 1;
nodes = (
(300,323,l),
(310,377,l),
(20,377,l),
(10,323,l)
);
},
{
pos = (20,0);
ref = D;
}
);
width = 668;
},
{
layerId = m008;
shapes = (
{
closed = 1;
nodes = (
(316,305,l),
(334,395,l),
(14,395,l),
(-4,305,l)
);
},
{
pos = (15,0);
ref = D;
}
);
width = 713;
},
{
layerId = m006;
shapes = (
{
closed = 1;
nodes = (
(306,330,l),
(314,370,l),
(24,370,l),
(16,330,l)
);
},
{
pos = (15,0);
ref = D;
}
);
width = 663;
}
);
metricLeft = "=D-70";
metricRight = D;
unicode = 272;
},
{
glyphname = E;
kernLeft = H;
kernRight = E;
lastChange = "2022-08-02 18:51:29 +0000";
layers = (
{
layerId = m01;
shapes = (
{
closed = 1;
nodes = (
(163,0,l),
(163,700,l),
(85,700,l),
(85,0,l)
);
},
{
closed = 1;
nodes = (
(493,0,l),
(493,73,l),
(153,73,l),
(153,0,l)
);
},
{
closed = 1;
nodes = (
(433,327,l),
(433,400,l),
(153,400,l),
(153,327,l)
);
},
{
closed = 1;
nodes = (
(493,627,l),
(493,700,l),
(153,700,l),
(153,627,l)
);
}
);
width = 548;
},
{
layerId = m005;
shapes = (
{
closed = 1;
nodes = (
(213,0,l),
(213,700,l),
(75,700,l),
(75,0,l)
);
},
{
closed = 1;
nodes = (
(543,0,l),
(543,113,l),
(143,113,l),
(143,0,l)
);
},
{
closed = 1;
nodes = (
(483,307,l),
(483,420,l),
(143,420,l),
(143,307,l)
);
},
{
closed = 1;
nodes = (
(543,587,l),
(543,700,l),
(143,700,l),
(143,587,l)
);
}
);
width = 588;
},
{
layerId = m007;
shapes = (
{
closed = 1;
nodes = (
(148,0,l),
(148,700,l),
(90,700,l),
(90,0,l)
);
},
{
closed = 1;
nodes = (
(478,0,l),
(478,53,l),
(138,53,l),
(138,0,l)
);
},
{
closed = 1;
nodes = (
(418,337,l),
(418,390,l),
(138,390,l),
(138,337,l)
);
},
{
closed = 1;
nodes = (
(478,647,l),
(478,700,l),
(138,700,l),
(138,647,l)
);
}
);
width = 538;
},
{
layerId = m004;
shapes = (
{
closed = 1;
nodes = (
(94,0,l),
(230,700,l),
(152,700,l),
(16,0,l)
);
},
{
closed = 1;
nodes = (
(424,0,l),
(438,73,l),
(98,73,l),
(84,0,l)
);
},
{
closed = 1;
nodes = (
(428,327,l),
(442,400,l),
(162,400,l),
(148,327,l)
);
},
{
closed = 1;
nodes = (
(546,627,l),
(560,700,l),
(220,700,l),
(206,627,l)
);
}
);
width = 548;
},
{
layerId = m008;
shapes = (
{
closed = 1;
nodes = (
(144,0,l),
(280,700,l),
(142,700,l),
(6,0,l)
);
},
{
closed = 1;
nodes = (
(474,0,l),
(496,113,l),
(96,113,l),
(74,0,l)
);
},
{
closed = 1;
nodes = (
(474,307,l),
(496,420,l),
(156,420,l),
(134,307,l)
);
},
{
closed = 1;
nodes = (
(588,587,l),
(610,700,l),
(210,700,l),
(188,587,l)
);
}
);
width = 588;
},
{
layerId = m006;
shapes = (
{
closed = 1;
nodes = (
(79,0,l),
(215,700,l),
(157,700,l),
(21,0,l)
);
},
{
closed = 1;
nodes = (
(409,0,l),
(419,53,l),
(79,53,l),
(69,0,l)
);
},
{
closed = 1;
nodes = (
(414,337,l),
(425,390,l),
(145,390,l),
(134,337,l)
);
},
{
closed = 1;
nodes = (
(535,647,l),
(545,700,l),
(205,700,l),
(195,647,l)
);
}
);
width = 538;
}
);
metricLeft = H;
unicode = 69;
},
{
glyphname = F;
kernLeft = H;
kernRight = F;
lastChange = "2022-08-21 21:19:24 +0000";
layers = (
{
layerId = m01;
shapes = (
{
closed = 1;
nodes = (
(163,0,l),
(163,700,l),
(85,700,l),
(85,0,l)
);
},
{
closed = 1;
nodes = (
(443,327,l),
(443,400,l),
(153,400,l),
(153,327,l)
);
},
{
closed = 1;
nodes = (
(493,627,l),
(493,700,l),
(153,700,l),
(153,627,l)
);
}
);
width = 533;
},
{
layerId = m005;
shapes = (
{
closed = 1;
nodes = (
(213,0,l),
(213,700,l),
(75,700,l),
(75,0,l)
);
},
{
closed = 1;
nodes = (
(493,307,l),
(493,420,l),
(143,420,l),
(143,307,l)
);
},
{
closed = 1;
nodes = (
(543,587,l),
(543,700,l),
(143,700,l),
(143,587,l)
);
}
);
width = 573;
},
{
layerId = m007;
shapes = (
{
closed = 1;
nodes = (
(148,0,l),
(148,700,l),
(90,700,l),
(90,0,l)
);
},
{
closed = 1;
nodes = (
(428,337,l),
(428,390,l),
(138,390,l),
(138,337,l)
);
},
{
closed = 1;
nodes = (
(478,647,l),
(478,700,l),
(138,700,l),
(138,647,l)
);
}
);
width = 523;
},
{
layerId = m004;
shapes = (
{
closed = 1;
nodes = (
(94,0,l),
(230,700,l),
(152,700,l),
(16,0,l)
);
},
{
closed = 1;
nodes = (
(438,327,l),
(452,400,l),
(162,400,l),
(148,327,l)
);
},
{
closed = 1;
nodes = (
(546,627,l),
(560,700,l),
(220,700,l),
(206,627,l)
);
}
);
width = 533;
},
{
layerId = m008;
shapes = (
{
closed = 1;
nodes = (
(140,0,l),
(280,700,l),
(142,700,l),
(6,0,l)
);
},
{
closed = 1;
nodes = (
(484,307,l),
(506,420,l),
(156,420,l),
(134,307,l)
);
},
{
closed = 1;
nodes = (
(588,587,l),
(610,700,l),
(210,700,l),
(188,587,l)
);
}
);
width = 573;
},
{
layerId = m006;
shapes = (
{
closed = 1;
nodes = (
(79,0,l),
(215,700,l),
(157,700,l),
(21,0,l)
);
},
{
closed = 1;
nodes = (
(424,337,l),
(435,390,l),
(145,390,l),
(134,337,l)
);
},
{
closed = 1;
nodes = (
(535,647,l),
(545,700,l),
(205,700,l),
(195,647,l)
);
}
);
width = 523;
}
);
metricLeft = H;
unicode = 70;
},
{
glyphname = G;
kernLeft = O;
kernRight = G;
lastChange = "2022-08-02 14:31:10 +0000";
layers = (
{
layerId = m01;
shapes = (
{
closed = 1;
nodes = (
(504,-16,o),
(665,65,o),
(665,311,c),
(657,262,l),
(642,0,l),
(715,0,l),
(715,354,l),
(387,354,l),
(387,281,l),
(630,281,l),
(610,149,o),
(498,57,o),
(382,57,cs),
(232,57,o),
(138,190,o),
(138,350,cs),
(138,510,o),
(232,642,o),
(382,642,cs),
(522,642,o),
(605,531,o),
(612,421,c),
(690,431,l),
(677,601,o),
(538,715,o),
(382,715,cs),
(212,715,o),
(60,580,o),
(60,350,cs),
(60,120,o),
(212,-16,o),
(382,-16,cs)
);
}
);
width = 785;
},
{
layerId = m005;
shapes = (
{
closed = 1;
nodes = (
(582,-16,o),
(677,122,o),
(685,301,c),
(665,291,l),
(631,0,l),
(765,0,l),
(765,354,l),
(377,354,l),
(377,241,l),
(615,241,l),
(603,162,o),
(522,97,o),
(402,97,cs),
(271,97,o),
(188,194,o),
(188,350,cs),
(188,506,o),
(270,602,o),
(402,602,cs),
(532,602,o),
(597,515,o),
(602,425,c),
(741,435,l),
(737,585,o),
(592,715,o),
(402,715,cs),
(214,715,o),
(50,590,o),
(50,350,cs),
(50,110,o),
(214,-16,o),
(402,-16,cs)
);
}
);
width = 825;
},
{
layerId = m007;
shapes = (
{
closed = 1;
nodes = (
(497,-16,o),
(650,71,o),
(670,301,c),
(662,309,l),
(648,0,l),
(700,0,l),
(700,344,l),
(392,344,l),
(392,291,l),
(636,291,l),
(621,148,o),
(501,37,o),
(377,37,cs),
(221,37,o),
(123,186,o),
(123,350,cs),
(123,514,o),
(221,662,o),
(377,662,cs),
(519,662,o),
(604,543,o),
(616,432,c),
(674,440,l),
(657,600,o),
(527,715,o),
(377,715,cs),
(211,715,o),
(65,576,o),
(65,350,cs),
(65,124,o),
(211,-16,o),
(377,-16,cs)
);
}
);
width = 775;
},
{
layerId = m004;
shapes = (
{
closed = 1;
nodes = (
(422,-16,o),
(599,65,o),
(646,311,c),
(629,262,l),
(563,0,l),
(636,0,l),
(705,354,l),
(377,354,l),
(363,281,l),
(606,281,l),
(560,149,o),
(430,57,o),
(314,57,cs),
(164,57,o),
(96,190,o),
(127,350,cs),
(161,527,o),
(278,642,o),
(428,642,cs),
(568,642,o),
(633,560,o),
(615,421,c),
(695,431,l),
(711,570,o),
(642,715,o),
(442,715,cs),
(272,715,o),
(97,595,o),
(49,350,cs),
(11,154,o),
(110,-16,o),
(300,-16,cs)
);
}
);
width = 775;
},
{
layerId = m008;
shapes = (
{
closed = 1;
nodes = (
(510,-16,o),
(632,122,o),
(674,301,c),
(653,291,l),
(562,0,l),
(696,0,l),
(765,354,l),
(377,354,l),
(355,241,l),
(593,241,l),
(565,162,o),
(472,97,o),
(352,97,cs),
(232,97,o),
(157,194,o),
(187,350,cs),
(217,506,o),
(330,602,o),
(450,602,cs),
(570,602,o),
(628,514,o),
(616,425,c),
(757,435,l),
(780,573,o),
(672,715,o),
(472,715,cs),
(272,715,o),
(96,590,o),
(49,350,cs),
(5,124,o),
(120,-16,o),
(330,-16,cs)
);
}
);
width = 825;
},
{
layerId = m006;
shapes = (
{
closed = 1;
nodes = (
(425,-16,o),
(595,71,o),
(659,301,c),
(653,309,l),
(579,0,l),
(631,0,l),
(698,344,l),
(390,344,l),
(380,291,l),
(624,291,l),
(581,148,o),
(439,37,o),
(315,37,cs),
(159,37,o),
(90,186,o),
(122,350,cs),
(154,514,o),
(281,662,o),
(437,662,cs),
(579,662,o),
(641,543,o),
(631,432,c),
(690,440,l),
(705,600,o),
(597,715,o),
(447,715,cs),
(281,715,o),
(108,576,o),
(64,350,cs),
(20,124,o),
(139,-16,o),
(305,-16,cs)
);
}
);
width = 775;
}
);
metricLeft = O;
metricRight = "=H-15";
unicode = 71;
},
{
glyphname = H;
kernLeft = H;
kernRight = H;
lastChange = "2022-08-21 17:38:42 +0000";
layers = (
{
layerId = m01;
shapes = (
{
closed = 1;
nodes = (
(581,0,l),
(581,700,l),
(503,700,l),
(503,0,l)
);
},
{
closed = 1;
nodes = (
(163,0,l),
(163,700,l),
(85,700,l),
(85,0,l)
);
},
{
closed = 1;
nodes = (
(513,327,l),
(513,400,l),
(153,400,l),
(153,327,l)
);
}
);
width = 666;
},
{
layerId = m005;
shapes = (
{
closed = 1;
nodes = (
(631,0,l),
(631,700,l),
(493,700,l),
(493,0,l)
);
},
{
closed = 1;
nodes = (
(213,0,l),
(213,700,l),
(75,700,l),
(75,0,l)
);
},
{
closed = 1;
nodes = (
(563,307,l),
(563,420,l),
(143,420,l),
(143,307,l)
);
}
);
width = 706;
},
{
layerId = m007;
shapes = (
{
closed = 1;
nodes = (
(566,0,l),
(566,700,l),
(508,700,l),
(508,0,l)
);
},
{
closed = 1;
nodes = (
(148,0,l),
(148,700,l),
(90,700,l),
(90,0,l)
);
},
{
closed = 1;
nodes = (
(528,337,l),
(528,390,l),
(128,390,l),
(128,337,l)
);
}
);
width = 656;
},
{
layerId = m004;
shapes = (
{
closed = 1;
nodes = (
(512,0,l),
(648,700,l),
(570,700,l),
(434,0,l)
);
},
{
closed = 1;
nodes = (
(94,0,l),
(230,700,l),
(152,700,l),
(16,0,l)
);
},
{
closed = 1;
nodes = (
(508,327,l),
(522,400,l),
(162,400,l),
(148,327,l)
);
}
);
width = 666;
},
{
layerId = m008;
shapes = (
{
closed = 1;
nodes = (
(562,0,l),
(698,700,l),
(560,700,l),
(424,0,l)
);
},
{
closed = 1;
nodes = (
(144,0,l),
(280,700,l),
(142,700,l),
(6,0,l)
);
},
{
closed = 1;
nodes = (
(554,307,l),
(576,420,l),
(156,420,l),
(134,307,l)
);
}
);
width = 706;
},
{
layerId = m006;
shapes = (
{
closed = 1;
nodes = (
(497,0,l),
(633,700,l),
(575,700,l),
(439,0,l)
);
},
{
closed = 1;
nodes = (
(79,0,l),
(215,700,l),
(157,700,l),
(21,0,l)
);
},
{
closed = 1;
nodes = (
(524,337,l),
(535,390,l),
(135,390,l),
(124,337,l)
);
}
);
width = 656;
}
);
unicode = 72;
},
{
glyphname = Hbar;
kernLeft = H;
kernRight = H;
lastChange = "2022-08-02 18:22:32 +0000";
layers = (
{
layerId = m01;
shapes = (
{
closed = 1;
nodes = (
(656,530,l),
(656,590,l),
(20,590,l),
(20,530,l)
);
},
{
pos = (5,0);
ref = H;
}
);
width = 676;
},
{
layerId = m005;
shapes = (
{
closed = 1;
nodes = (
(676,520,l),
(676,600,l),
(10,600,l),
(10,520,l)
);
},
{
pos = (-10,0);
ref = H;
}
);
width = 686;
},
{
layerId = m007;
shapes = (
{
closed = 1;
nodes = (
(641,540,l),
(641,580,l),
(25,580,l),
(25,540,l)
);
},
{
pos = (5,0);
ref = H;
}
);
width = 666;
},
{
layerId = m004;
shapes = (
{
closed = 1;
nodes = (
(690,530,l),
(702,590,l),
(66,590,l),
(54,530,l)
);
},
{
pos = (4,0);
ref = H;
}
);
width = 676;
},
{
layerId = m008;
shapes = (
{
closed = 1;
nodes = (
(698,520,l),
(714,600,l),
(58,600,l),
(42,520,l)
);
},
{
pos = (-16,0);
ref = H;
}
);
width = 676;
},
{
layerId = m006;
shapes = (
{
closed = 1;
nodes = (
(677,540,l),
(685,580,l),
(69,580,l),
(61,540,l)
);
},
{
pos = (4,0);
ref = H;
}
);
width = 666;
}
);
metricLeft = "=H-65";
metricRight = "=H-65";
unicode = 294;
},
{
glyphname = I;
kernLeft = H;
kernRight = H;
lastChange = "2022-07-26 06:50:25 +0000";
layers = (
{
layerId = m01;
shapes = (
{
closed = 1;
nodes = (
(163,0,l),
(163,700,l),
(85,700,l),
(85,0,l)
);
}
);
width = 248;
},
{
layerId = m005;
shapes = (
{
closed = 1;
nodes = (
(213,0,l),
(213,700,l),
(75,700,l),
(75,0,l)
);
}
);
width = 288;
},
{
layerId = m007;
shapes = (
{
closed = 1;
nodes = (
(148,0,l),
(148,700,l),
(90,700,l),
(90,0,l)
);
}
);
width = 238;
},
{
layerId = m004;
shapes = (
{
closed = 1;
nodes = (
(94,0,l),
(230,700,l),
(152,700,l),
(16,0,l)
);
}
);
width = 248;
},
{
layerId = m008;
shapes = (
{
closed = 1;
nodes = (
(144,0,l),
(280,700,l),
(142,700,l),
(6,0,l)
);
}
);
width = 288;
},
{
layerId = m006;
shapes = (
{
closed = 1;
nodes = (
(79,0,l),
(215,700,l),
(157,700,l),
(21,0,l)
);
}
);
width = 238;
}
);
metricLeft = H;
metricRight = H;
unicode = 73;
},
{
glyphname = J;
kernLeft = J;
kernRight = U;
lastChange = "2022-08-07 07:41:10 +0000";
layers = (
{
layerId = m01;
shapes = (
{
closed = 1;
nodes = (
(388,-16,o),
(475,72,o),
(475,212,cs),
(475,700,l),
(397,700,l),
(397,212,ls),
(397,112,o),
(338,57,o),
(258,57,cs),
(178,57,o),
(118,112,o),
(118,212,cs),
(118,270,l),
(40,270,l),
(40,212,ls),
(40,72,o),
(128,-16,o),
(258,-16,cs)
);
}
);
width = 555;
},
{
layerId = m005;
shapes = (
{
closed = 1;
nodes = (
(423,-16,o),
(525,70,o),
(525,242,cs),
(525,700,l),
(387,700,l),
(387,242,ls),
(387,138,o),
(343,97,o),
(278,97,cs),
(213,97,o),
(168,138,o),
(168,242,cs),
(168,270,l),
(30,270,l),
(30,242,ls),
(30,70,o),
(132,-16,o),
(278,-16,cs)
);
}
);
width = 595;
},
{
layerId = m007;
shapes = (
{
closed = 1;
nodes = (
(383,-16,o),
(460,62,o),
(460,202,cs),
(460,700,l),
(402,700,l),
(402,202,ls),
(402,92,o),
(343,37,o),
(253,37,cs),
(163,37,o),
(103,92,o),
(103,202,cs),
(103,270,l),
(45,270,l),
(45,202,ls),
(45,62,o),
(123,-16,o),
(253,-16,cs)
);
}
);
width = 545;
},
{
layerId = m004;
shapes = (
{
closed = 1;
nodes = (
(307,-16,o),
(412,26,o),
(448,212,cs),
(543,700,l),
(465,700,l),
(370,212,ls),
(349,104,o),
(287,57,o),
(207,57,cs),
(127,57,o),
(71,104,o),
(91,212,cs),
(102,270,l),
(24,270,l),
(13,212,ls),
(-11,84,o),
(67,-16,o),
(197,-16,cs)
);
}
);
width = 556;
},
{
layerId = m008;
shapes = (
{
closed = 1;
nodes = (
(377,-16,o),
(468,55,o),
(504,242,cs),
(593,700,l),
(455,700,l),
(366,242,ls),
(345,134,o),
(299,97,o),
(239,97,cs),
(179,97,o),
(129,144,o),
(147,242,cs),
(152,270,l),
(14,270,l),
(9,242,ls),
(-16,104,o),
(61,-16,o),
(227,-16,cs)
);
}
);
width = 596;
},
{
layerId = m006;
shapes = (
{
closed = 1;
nodes = (
(322,-16,o),
(400,45,o),
(431,202,cs),
(528,700,l),
(470,700,l),
(373,202,ls),
(348,74,o),
(282,37,o),
(202,37,cs),
(122,37,o),
(51,84,o),
(74,202,cs),
(87,270,l),
(29,270,l),
(16,202,ls),
(-8,74,o),
(72,-16,o),
(202,-16,cs)
);
}
);
width = 546;
}
);
unicode = 74;
},
{
glyphname = K;
kernLeft = H;
kernRight = K;
lastChange = "2022-07-26 06:50:25 +0000";
layers = (
{
layerId = m01;
shapes = (
{
closed = 1;
nodes = (
(557,700,l),
(467,700,l),
(101,280,l),
(154,234,l)
);
},
{
closed = 1;
nodes = (
(163,0,l),
(163,700,l),
(85,700,l),
(85,0,l)
);
},
{
closed = 1;
nodes = (
(586,0,l),
(307,422,l),
(239,392,l),
(496,0,l)
);
}
);
width = 606;
},
{
layerId = m005;
shapes = (
{
closed = 1;
nodes = (
(628,700,l),
(470,700,l),
(86,279,l),
(178,199,l)
);
},
{
closed = 1;
nodes = (
(213,0,l),
(213,700,l),
(75,700,l),
(75,0,l)
);
},
{
closed = 1;
nodes = (
(652,0,l),
(340,451,l),
(222,399,l),
(497,0,l)
);
}
);
width = 662;
},
{
layerId = m007;
shapes = (
{
closed = 1;
nodes = (
(530,700,l),
(467,700,l),
(110,281,l),
(148,248,l)
);
},
{
closed = 1;
nodes = (
(148,0,l),
(148,700,l),
(90,700,l),
(90,0,l)
);
},
{
closed = 1;
nodes = (
(562,0,l),
(280,437,l),
(249,388,l),
(496,0,l)
);
}
);
width = 587;
},
{
layerId = m004;
shapes = (
{
closed = 1;
nodes = (
(624,700,l),
(524,700,l),
(76,280,l),
(130,234,l)
);
},
{
closed = 1;
nodes = (
(94,0,l),
(230,700,l),
(152,700,l),
(16,0,l)
);
},
{
closed = 1;
nodes = (
(517,0,l),
(320,422,l),
(246,392,l),
(427,0,l)
);
}
);
width = 606;
},
{
layerId = m008;
shapes = (
{
closed = 1;
nodes = (
(695,700,l),
(522,700,l),
(94,313,l),
(148,199,l)
);
},
{
closed = 1;
nodes = (
(144,0,l),
(280,700,l),
(142,700,l),
(6,0,l)
);
},
{
closed = 1;
nodes = (
(583,0,l),
(359,451,l),
(231,399,l),
(428,0,l)
);
}
);
width = 662;
},
{
layerId = m006;
shapes = (
{
closed = 1;
nodes = (
(597,700,l),
(529,700,l),
(91,281,l),
(127,248,l)
);
},
{
closed = 1;
nodes = (
(79,0,l),
(215,700,l),
(157,700,l),
(21,0,l)
);
},
{
closed = 1;
nodes = (
(493,0,l),
(296,437,l),
(255,388,l),
(427,0,l)
);
}
);
width = 587;
}
);
metricLeft = H;
unicode = 75;
},
{
glyphname = L;
kernLeft = H;
kernRight = L;
lastChange = "2022-07-26 06:50:25 +0000";
layers = (
{
layerId = m01;
shapes = (
{
closed = 1;
nodes = (
(163,0,l),
(163,700,l),
(85,700,l),
(85,0,l)
);
},
{
closed = 1;
nodes = (
(488,0,l),
(488,73,l),
(148,73,l),
(148,0,l)
);
}
);
width = 508;
},
{
layerId = m005;
shapes = (
{
closed = 1;
nodes = (
(213,0,l),
(213,700,l),
(75,700,l),
(75,0,l)
);
},
{
closed = 1;
nodes = (
(538,0,l),
(538,113,l),
(138,113,l),
(138,0,l)
);
}
);
width = 548;
},
{
layerId = m007;
shapes = (
{
closed = 1;
nodes = (
(148,0,l),
(148,700,l),
(90,700,l),
(90,0,l)
);
},
{
closed = 1;
nodes = (
(473,0,l),
(473,53,l),
(133,53,l),
(133,0,l)
);
}
);
width = 498;
},
{
layerId = m004;
shapes = (
{
closed = 1;
nodes = (
(94,0,l),
(230,700,l),
(152,700,l),
(16,0,l)
);
},
{
closed = 1;
nodes = (
(419,0,l),
(433,73,l),
(93,73,l),
(79,0,l)
);
}
);
width = 508;
},
{
layerId = m008;
shapes = (
{
closed = 1;
nodes = (
(144,0,l),
(280,700,l),
(142,700,l),
(6,0,l)
);
},
{
closed = 1;
nodes = (
(469,0,l),
(491,113,l),
(91,113,l),
(69,0,l)
);
}
);
width = 548;
},
{
layerId = m006;
shapes = (
{
closed = 1;
nodes = (
(79,0,l),
(215,700,l),
(157,700,l),
(21,0,l)
);
},
{
closed = 1;
nodes = (
(404,0,l),
(414,53,l),
(74,53,l),
(64,0,l)
);
}
);
width = 498;
}
);
metricLeft = H;
unicode = 76;
},
{
glyphname = Lslash;
kernLeft = H;
kernRight = L;
lastChange = "2022-07-26 06:50:25 +0000";
layers = (
{
layerId = m01;
shapes = (
{
closed = 1;
nodes = (
(345,390,l),
(345,450,l),
(5,310,l),
(5,250,l)
);
},
{
ref = L;
}
);
width = 508;
},
{
layerId = m005;
shapes = (
{
closed = 1;
nodes = (
(355,373,l),
(355,475,l),
(-5,327,l),
(-5,225,l)
);
},
{
pos = (6,0);
ref = L;
}
);
width = 554;
},
{
layerId = m007;
shapes = (
{
closed = 1;
nodes = (
(330,402,l),
(330,440,l),
(10,298,l),
(10,260,l)
);
},
{
ref = L;
}
);
width = 498;
},
{
layerId = m004;
shapes = (
{
closed = 1;
nodes = (
(353,390,l),
(364,450,l),
(-3,310,l),
(-14,250,l)
);
},
{
ref = L;
}
);
width = 508;
},
{
layerId = m008;
shapes = (
{
closed = 1;
nodes = (
(358,373,l),
(378,475,l),
(-10,327,l),
(-30,225,l)
);
},
{
pos = (5,0);
ref = L;
}
);
width = 553;
},
{
layerId = m006;
shapes = (
{
closed = 1;
nodes = (
(339,402,l),
(346,440,l),
(-1,298,l),
(-8,260,l)
);
},
{
pos = (-1,0);
ref = L;
}
);
width = 497;
}
);
metricLeft = "=L-80";
metricRight = L;
unicode = 321;
},
{
glyphname = M;
kernLeft = H;
kernRight = H;
lastChange = "2022-07-26 06:50:25 +0000";
layers = (
{
layerId = m01;
shapes = (
{
closed = 1;
nodes = (
(163,0,l),
(163,612,l),
(165,612,l),
(386,0,l),
(462,0,l),
(683,612,l),
(685,612,l),
(685,0,l),
(763,0,l),
(763,700,l),
(641,700,l),
(425,101,l),
(423,101,l),
(206,700,l),
(85,700,l),
(85,0,l)
);
}
);
width = 848;
},
{
layerId = m005;
shapes = (
{
closed = 1;
nodes = (
(213,0,l),
(213,572,l),
(172,572,l),
(393,0,l),
(495,0,l),
(716,572,l),
(675,572,l),
(675,0,l),
(813,0,l),
(813,700,l),
(633,700,l),
(417,131,l),
(471,131,l),
(254,700,l),
(75,700,l),
(75,0,l)
);
}
);
width = 888;
},
{
layerId = m007;
shapes = (
{
closed = 1;
nodes = (
(148,0,l),
(148,632,l),
(145,632,l),
(386,0,l),
(432,0,l),
(673,632,l),
(670,632,l),
(670,0,l),
(728,0,l),
(728,700,l),
(641,700,l),
(405,81,l),
(413,81,l),
(176,700,l),
(90,700,l),
(90,0,l)
);
}
);
width = 818;
},
{
layerId = m004;
shapes = (
{
closed = 1;
nodes = (
(94,0,l),
(213,612,l),
(215,612,l),
(317,0,l),
(393,0,l),
(733,612,l),
(735,612,l),
(616,0,l),
(694,0,l),
(830,700,l),
(708,700,l),
(376,101,l),
(374,101,l),
(273,700,l),
(152,700,l),
(16,0,l)
);
}
);
width = 848;
},
{
layerId = m008;
shapes = (
{
closed = 1;
nodes = (
(139,0,l),
(250,572,l),
(209,572,l),
(319,0,l),
(426,0,l),
(758,572,l),
(712,572,l),
(601,0,l),
(744,0,l),
(880,700,l),
(695,700,l),
(368,131,l),
(422,131,l),
(316,700,l),
(142,700,l),
(6,0,l)
);
}
);
width = 888;
},
{
layerId = m006;
shapes = (
{
closed = 1;
nodes = (
(79,0,l),
(202,632,l),
(199,632,l),
(317,0,l),
(363,0,l),
(727,632,l),
(724,632,l),
(601,0,l),
(659,0,l),
(795,700,l),
(708,700,l),
(352,81,l),
(360,81,l),
(243,700,l),
(157,700,l),
(21,0,l)
);
}
);
width = 818;
}
);
metricLeft = H;
metricRight = H;
unicode = 77;
},
{
glyphname = N;
kernLeft = H;
kernRight = H;
lastChange = "2022-07-26 06:50:25 +0000";
layers = (
{
layerId = m01;
shapes = (
{
closed = 1;
nodes = (
(611,0,l),
(184,700,l),
(105,700,l),
(532,0,l)
);
},
{
closed = 1;
nodes = (
(164,0,l),
(164,700,l),
(85,700,l),
(85,0,l)
);
},
{
closed = 1;
nodes = (
(631,0,l),
(631,700,l),
(552,700,l),
(552,0,l)
);
}
);
width = 716;
},
{
layerId = m005;
shapes = (
{
closed = 1;
nodes = (
(665,0,l),
(224,700,l),
(81,700,l),
(522,0,l)
);
},
{
closed = 1;
nodes = (
(214,0,l),
(214,700,l),
(75,700,l),
(75,0,l)
);
},
{
closed = 1;
nodes = (
(671,0,l),
(671,700,l),
(532,700,l),
(532,0,l)
);
}
);
width = 746;
},
{
layerId = m007;
shapes = (
{
closed = 1;
nodes = (
(593,0,l),
(168,700,l),
(108,700,l),
(533,0,l)
);
},
{
closed = 1;
nodes = (
(149,0,l),
(149,700,l),
(90,700,l),
(90,0,l)
);
},
{
closed = 1;
nodes = (
(611,0,l),
(611,700,l),
(552,700,l),
(552,0,l)
);
}
);
width = 701;
},
{
layerId = m004;
shapes = (
{
closed = 1;
nodes = (
(542,0,l),
(251,700,l),
(172,700,l),
(463,0,l)
);
},
{
closed = 1;
nodes = (
(95,0,l),
(231,700,l),
(152,700,l),
(16,0,l)
);
},
{
closed = 1;
nodes = (
(562,0,l),
(698,700,l),
(619,700,l),
(483,0,l)
);
}
);
width = 716;
},
{
layerId = m008;
shapes = (
{
closed = 1;
nodes = (
(591,0,l),
(286,700,l),
(143,700,l),
(448,0,l)
);
},
{
closed = 1;
nodes = (
(140,0,l),
(276,700,l),
(142,700,l),
(6,0,l)
);
},
{
closed = 1;
nodes = (
(602,0,l),
(738,700,l),
(594,700,l),
(458,0,l)
);
}
);
width = 746;
},
{
layerId = m006;
shapes = (
{
closed = 1;
nodes = (
(524,0,l),
(235,700,l),
(175,700,l),
(464,0,l)
);
},
{
closed = 1;
nodes = (
(80,0,l),
(216,700,l),
(157,700,l),
(21,0,l)
);
},
{
closed = 1;
nodes = (
(542,0,l),
(678,700,l),
(619,700,l),
(483,0,l)
);
}
);
width = 701;
}
);
metricLeft = H;
metricRight = H;
unicode = 78;
},
{
glyphname = Eng;
kernLeft = H;
kernRight = H;
lastChange = "2022-08-02 18:26:09 +0000";
layers = (
{
layerId = m01;
shapes = (
{
closed = 1;
nodes = (
(492,-200,ls),
(578,-200,o),
(631,-163,o),
(631,-76,cs),
(631,0,l),
(553,0,l),
(553,-55,ls),
(553,-117,o),
(534,-127,o),
(480,-127,cs),
(423,-127,l),
(423,-200,l)
);
},
{
ref = N;
}
);
width = 716;
},
{
layerId = m005;
shapes = (
{
closed = 1;
nodes = (
(501,-200,ls),
(611,-200,o),
(671,-150,o),
(671,-40,cs),
(671,0,l),
(536,0,l),
(536,-27,ls),
(536,-67,o),
(516,-87,o),
(476,-87,cs),
(386,-87,l),
(386,-200,l)
);
},
{
ref = N;
}
);
width = 746;
},
{
layerId = m007;
shapes = (
{
closed = 1;
nodes = (
(482,-190,ls),
(565,-190,o),
(611,-158,o),
(611,-76,cs),
(611,0,l),
(553,0,l),
(553,-55,ls),
(553,-124,o),
(528,-137,o),
(470,-137,cs),
(423,-137,l),
(423,-190,l)
);
},
{
ref = N;
}
);
width = 701;
},
{
layerId = m004;
shapes = (
{
closed = 1;
nodes = (
(383,-200,ls),
(483,-200,o),
(531,-158,o),
(550,-60,cs),
(562,0,l),
(487,0,l),
(474,-67,ls),
(466,-107,o),
(442,-127,o),
(402,-127,cs),
(312,-127,l),
(298,-200,l)
);
},
{
ref = N;
}
);
width = 716;
},
{
layerId = m008;
shapes = (
{
closed = 1;
nodes = (
(413,-200,ls),
(503,-200,o),
(572,-155,o),
(589,-67,cs),
(602,0,l),
(467,0,l),
(462,-27,ls),
(454,-67,o),
(440,-87,o),
(400,-87,cs),
(300,-87,l),
(278,-200,l)
);
},
{
ref = N;
}
);
width = 746;
},
{
layerId = m006;
shapes = (
{
closed = 1;
nodes = (
(373,-200,ls),
(459,-200,o),
(512,-156,o),
(528,-70,cs),
(542,0,l),
(487,0,l),
(472,-77,ls),
(463,-122,o),
(433,-147,o),
(388,-147,cs),
(308,-147,l),
(298,-200,l)
);
},
{
ref = N;
}
);
width = 701;
}
);
metricLeft = N;
metricRight = H;
unicode = 330;
},
{
glyphname = O;
kernLeft = O;
kernRight = O;
lastChange = "2022-08-11 17:59:34 +0000";
layers = (
{
layerId = m01;
shapes = (
{
closed = 1;
nodes = (
(552,-16,o),
(704,120,o),
(704,350,cs),
(704,580,o),
(552,716,o),
(382,716,cs),
(212,716,o),
(60,580,o),
(60,350,cs),
(60,120,o),
(212,-16,o),
(382,-16,cs)
);
},
{
closed = 1;
nodes = (
(232,57,o),
(138,190,o),
(138,350,cs),
(138,510,o),
(232,643,o),
(382,643,cs),
(532,643,o),
(626,510,o),
(626,350,cs),
(626,190,o),
(532,57,o),
(382,57,cs)
);
}
);
width = 764;
},
{
layerId = m005;
shapes = (
{
closed = 1;
nodes = (
(602,-16,o),
(754,120,o),
(754,350,cs),
(754,580,o),
(602,716,o),
(402,716,cs),
(202,716,o),
(50,580,o),
(50,350,cs),
(50,120,o),
(202,-16,o),
(402,-16,cs)
);
},
{
closed = 1;
nodes = (
(272,97,o),
(188,200,o),
(188,350,cs),
(188,500,o),
(272,603,o),
(402,603,cs),
(532,603,o),
(616,500,o),
(616,350,cs),
(616,200,o),
(532,97,o),
(402,97,cs)
);
}
);
width = 804;
},
{
layerId = m007;
shapes = (
{
closed = 1;
nodes = (
(547,-16,o),
(689,120,o),
(689,350,cs),
(689,580,o),
(547,716,o),
(377,716,cs),
(207,716,o),
(65,580,o),
(65,350,cs),
(65,120,o),
(207,-16,o),
(377,-16,cs)
);
},
{
closed = 1;
nodes = (
(217,37,o),
(123,180,o),
(123,350,cs),
(123,520,o),
(217,663,o),
(377,663,cs),
(537,663,o),
(631,520,o),
(631,350,cs),
(631,180,o),
(537,37,o),
(377,37,cs)
);
}
);
width = 754;
},
{
layerId = m004;
shapes = (
{
closed = 1;
nodes = (
(470,-16,o),
(647,114,o),
(693,350,cs),
(735,566,o),
(612,716,o),
(442,716,cs),
(272,716,o),
(95,586,o),
(49,350,cs),
(7,134,o),
(130,-16,o),
(300,-16,cs)
);
},
{
closed = 1;
nodes = (
(164,57,o),
(96,190,o),
(127,350,cs),
(158,510,o),
(278,643,o),
(428,643,cs),
(578,643,o),
(646,510,o),
(615,350,cs),
(584,190,o),
(464,57,o),
(314,57,cs)
);
}
);
width = 744;
},
{
layerId = m008;
shapes = (
{
closed = 1;
nodes = (
(530,-16,o),
(705,105,o),
(753,350,cs),
(791,546,o),
(662,716,o),
(472,716,cs),
(272,716,o),
(97,595,o),
(49,350,cs),
(11,154,o),
(140,-16,o),
(330,-16,cs)
);
},
{
closed = 1;
nodes = (
(232,97,o),
(156,193,o),
(187,350,cs),
(216,500,o),
(320,603,o),
(450,603,cs),
(570,603,o),
(646,507,o),
(615,350,cs),
(586,200,o),
(482,97,o),
(352,97,cs)
);
}
);
width = 804;
},
{
layerId = m006;
shapes = (
{
closed = 1;
nodes = (
(475,-16,o),
(642,114,o),
(688,350,cs),
(730,566,o),
(617,716,o),
(447,716,cs),
(277,716,o),
(110,586,o),
(64,350,cs),
(22,134,o),
(135,-16,o),
(305,-16,cs)
);
},
{
closed = 1;
nodes = (
(155,37,o),
(89,180,o),
(122,350,cs),
(155,520,o),
(277,663,o),
(437,663,cs),
(597,663,o),
(663,520,o),
(630,350,cs),
(597,180,o),
(475,37,o),
(315,37,cs)
);
}
);
width = 754;
}
);
unicode = 79;
},
{
glyphname = Oslash;
kernLeft = O;
kernRight = O;
lastChange = "2022-08-02 18:27:00 +0000";
layers = (
{
layerId = m01;
shapes = (
{
closed = 1;
nodes = (
(98,-66,l),
(753,765,l),
(665,765,l),
(10,-66,l)
);
},
{
ref = O;
}
);
width = 763;
},
{
layerId = m005;
shapes = (
{
closed = 1;
nodes = (
(119,-66,l),
(765,765,l),
(646,765,l),
(0,-66,l)
);
},
{
pos = (-19,0);
ref = O;
}
);
width = 765;
},
{
layerId = m007;
shapes = (
{
closed = 1;
nodes = (
(77,-56,l),
(716,755,l),
(654,755,l),
(15,-56,l)
);
},
{
pos = (-11,0);
ref = O;
}
);
width = 731;
},
{
layerId = m004;
shapes = (
{
closed = 1;
nodes = (
(7,-66,l),
(824,765,l),
(736,765,l),
(-81,-66,l)
);
},
{
pos = (-10,0);
ref = O;
}
);
width = 744;
},
{
layerId = m008;
shapes = (
{
closed = 1;
nodes = (
(38,-66,l),
(846,765,l),
(727,765,l),
(-81,-66,l)
);
},
{
pos = (-19,0);
ref = O;
}
);
width = 766;
},
{
layerId = m006;
shapes = (
{
closed = 1;
nodes = (
(-2,-56,l),
(795,755,l),
(733,755,l),
(-64,-56,l)
);
},
{
pos = (-11,0);
ref = O;
}
);
width = 732;
}
);
metricLeft = "=O-50";
metricRight = "=O-50";
unicode = 216;
},
{
glyphname = P;
kernLeft = H;
kernRight = P;
lastChange = "2022-07-26 06:50:25 +0000";
layers = (
{
layerId = m01;
shapes = (
{
closed = 1;
nodes = (
(305,309,ls),
(435,309,o),
(536,380,o),
(536,504,cs),
(536,639,o),
(435,700,o),
(305,700,cs),
(118,700,l),
(118,627,l),
(305,627,ls),
(395,627,o),
(458,594,o),
(458,504,cs),
(458,414,o),
(395,382,o),
(305,382,cs),
(118,382,l),
(118,309,l)
);
},
{
closed = 1;
nodes = (
(163,0,l),
(163,700,l),
(85,700,l),
(85,0,l)
);
}
);
width = 576;
},
{
layerId = m005;
shapes = (
{
closed = 1;
nodes = (
(315,268,ls),
(475,268,o),
(586,344,o),
(586,484,cs),
(586,624,o),
(475,700,o),
(315,700,cs),
(108,700,l),
(108,587,l),
(315,587,ls),
(395,587,o),
(448,564,o),
(448,484,cs),
(448,404,o),
(395,381,o),
(315,381,cs),
(108,381,l),
(108,268,l)
);
},
{
closed = 1;
nodes = (
(213,0,l),
(213,700,l),
(75,700,l),
(75,0,l)
);
}
);
width = 616;
},
{
layerId = m007;
shapes = (
{
closed = 1;
nodes = (
(300,329,ls),
(427,329,o),
(521,395,o),
(521,514,cs),
(521,643,o),
(427,700,o),
(300,700,cs),
(123,700,l),
(123,647,l),
(300,647,ls),
(394,647,o),
(463,611,o),
(463,514,cs),
(463,417,o),
(394,382,o),
(300,382,cs),
(123,382,l),
(123,329,l)
);
},
{
closed = 1;
nodes = (
(148,0,l),
(148,700,l),
(90,700,l),
(90,0,l)
);
}
);
width = 566;
},
{
layerId = m004;
shapes = (
{
closed = 1;
nodes = (
(296,309,ls),
(456,309,o),
(542,386,o),
(565,504,cs),
(584,602,o),
(512,700,o),
(372,700,cs),
(185,700,l),
(171,627,l),
(358,627,ls),
(448,627,o),
(502,583,o),
(487,504,cs),
(470,416,o),
(400,382,o),
(310,382,cs),
(123,382,l),
(109,309,l)
);
},
{
closed = 1;
nodes = (
(94,0,l),
(230,700,l),
(152,700,l),
(16,0,l)
);
}
);
width = 576;
},
{
layerId = m008;
shapes = (
{
closed = 1;
nodes = (
(298,268,ls),
(458,268,o),
(581,327,o),
(611,484,cs),
(636,612,o),
(542,700,o),
(382,700,cs),
(175,700,l),
(153,587,l),
(360,587,ls),
(440,587,o),
(489,562,o),
(473,484,cs),
(457,406,o),
(400,381,o),
(320,381,cs),
(113,381,l),
(91,268,l)
);
},
{
closed = 1;
nodes = (
(144,0,l),
(280,700,l),
(142,700,l),
(6,0,l)
);
}
);
width = 616;
},
{
layerId = m006;
shapes = (
{
closed = 1;
nodes = (
(295,329,ls),
(425,329,o),
(529,395,o),
(552,514,cs),
(573,622,o),
(497,700,o),
(367,700,cs),
(190,700,l),
(180,647,l),
(357,647,ls),
(451,647,o),
(513,611,o),
(494,514,cs),
(477,426,o),
(399,382,o),
(305,382,cs),
(128,382,l),
(118,329,l)
);
},
{
closed = 1;
nodes = (
(79,0,l),
(215,700,l),
(157,700,l),
(21,0,l)
);
}
);
width = 566;
}
);
metricLeft = H;
unicode = 80;
},
{
glyphname = Thorn;
kernLeft = H;
lastChange = "2022-07-26 06:50:25 +0000";
layers = (
{
layerId = m01;
shapes = (
{
closed = 1;
nodes = (
(305,155,ls),
(435,155,o),
(536,226,o),
(536,350,cs),
(536,485,o),
(435,546,o),
(305,546,cs),
(118,546,l),
(118,473,l),
(305,473,ls),
(395,473,o),
(458,440,o),
(458,350,cs),
(458,260,o),
(395,228,o),
(305,228,cs),
(118,228,l),
(118,155,l)
);
},
{
closed = 1;
nodes = (
(163,0,l),
(163,700,l),
(85,700,l),
(85,0,l)
);
}
);
width = 596;
},
{
layerId = m005;
shapes = (
{
closed = 1;
nodes = (
(315,134,ls),
(475,134,o),
(586,210,o),
(586,350,cs),
(586,490,o),
(475,566,o),
(315,566,cs),
(108,566,l),
(108,453,l),
(315,453,ls),
(395,453,o),
(448,430,o),
(448,350,cs),
(448,270,o),
(395,247,o),
(315,247,cs),
(108,247,l),
(108,134,l)
);
},
{
closed = 1;
nodes = (
(213,0,l),
(213,700,l),
(75,700,l),
(75,0,l)
);
}
);
width = 636;
},
{
layerId = m007;
shapes = (
{
closed = 1;
nodes = (
(300,165,ls),
(427,165,o),
(521,231,o),
(521,350,cs),
(521,479,o),
(427,536,o),
(300,536,cs),
(123,536,l),
(123,483,l),
(300,483,ls),
(394,483,o),
(463,447,o),
(463,350,cs),
(463,253,o),
(394,218,o),
(300,218,cs),
(123,218,l),
(123,165,l)
);
},
{
closed = 1;
nodes = (
(148,0,l),
(148,700,l),
(90,700,l),
(90,0,l)
);
}
);
width = 586;
},
{
layerId = m004;
shapes = (
{
closed = 1;
nodes = (
(266,155,ls),
(426,155,o),
(512,232,o),
(535,350,cs),
(554,448,o),
(482,546,o),
(342,546,cs),
(155,546,l),
(141,473,l),
(328,473,ls),
(418,473,o),
(472,429,o),
(457,350,cs),
(438,252,o),
(370,228,o),
(280,228,cs),
(93,228,l),
(79,155,l)
);
},
{
closed = 1;
nodes = (
(94,0,l),
(230,700,l),
(152,700,l),
(16,0,l)
);
}
);
width = 596;
},
{
layerId = m008;
shapes = (
{
closed = 1;
nodes = (
(272,134,ls),
(432,134,o),
(555,193,o),
(585,350,cs),
(610,478,o),
(516,566,o),
(356,566,cs),
(149,566,l),
(127,453,l),
(334,453,ls),
(414,453,o),
(463,428,o),
(447,350,cs),
(431,272,o),
(374,247,o),
(294,247,cs),
(87,247,l),
(65,134,l)
);
},
{
closed = 1;
nodes = (
(144,0,l),
(280,700,l),
(142,700,l),
(6,0,l)
);
}
);
width = 636;
},
{
layerId = m006;
shapes = (
{
closed = 1;
nodes = (
(263,165,ls),
(390,165,o),
(497,231,o),
(520,350,cs),
(545,479,o),
(462,536,o),
(335,536,cs),
(158,536,l),
(148,483,l),
(325,483,ls),
(419,483,o),
(481,447,o),
(462,350,cs),
(443,253,o),
(367,218,o),
(273,218,cs),
(96,218,l),
(86,165,l)
);
},
{
closed = 1;
nodes = (
(79,0,l),
(215,700,l),
(157,700,l),
(21,0,l)
);
}
);
width = 586;
}
);
metricLeft = H;
metricRight = B;
unicode = 222;
},
{
glyphname = Q;
kernLeft = O;
kernRight = Q;
lastChange = "2022-08-03 06:40:05 +0000";
layers = (
{
layerId = m01;
shapes = (
{
closed = 1;
nodes = (
(751,-66,l),
(416,346,l),
(328,346,l),
(663,-66,l)
);
},
{
ref = O;
}
);
width = 791;
},
{
layerId = m005;
shapes = (
{
closed = 1;
nodes = (
(781,-66,l),
(463,366,l),
(308,366,l),
(626,-66,l)
);
},
{
ref = O;
}
);
width = 811;
},
{
layerId = m007;
shapes = (
{
closed = 1;
nodes = (
(730,-66,l),
(401,346,l),
(339,346,l),
(668,-66,l)
);
},
{
ref = O;
}
);
width = 775;
},
{
layerId = m004;
shapes = (
{
closed = 1;
nodes = (
(670,-66,l),
(415,346,l),
(327,346,l),
(582,-66,l)
);
},
{
ref = O;
}
);
width = 781;
},
{
layerId = m008;
shapes = (
{
closed = 1;
nodes = (
(700,-66,l),
(466,366,l),
(331,366,l),
(565,-66,l)
);
},
{
ref = O;
}
);
width = 811;
},
{
layerId = m006;
shapes = (
{
closed = 1;
nodes = (
(649,-66,l),
(400,346,l),
(338,346,l),
(587,-66,l)
);
},
{
ref = O;
}
);
width = 775;
}
);
metricLeft = O;
metricRight = "=O-20";
unicode = 81;
},
{
glyphname = R;
kernLeft = H;
kernRight = R;
lastChange = "2022-08-02 18:52:23 +0000";
layers = (
{
layerId = m01;
shapes = (
{
closed = 1;
nodes = (
(163,0,l),
(163,309,l),
(326,309,ls),
(441,309,o),
(451,256,o),
(456,174,cs),
(466,0,l),
(546,0,l),
(536,159,ls),
(526,312,o),
(490,342,o),
(350,342,c),
(350,340,l),
(450,340,o),
(536,385,o),
(536,504,cs),
(536,639,o),
(435,700,o),
(305,700,cs),
(85,700,l),
(85,0,l)
);
},
{
closed = 1;
nodes = (
(163,627,l),
(305,627,ls),
(395,627,o),
(458,594,o),
(458,504,cs),
(458,414,o),
(395,382,o),
(305,382,cs),
(163,382,l)
);
}
);
width = 611;
},
{
layerId = m005;
shapes = (
{
closed = 1;
nodes = (
(213,0,l),
(213,268,l),
(315,268,ls),
(435,268,o),
(440,233,o),
(446,153,cs),
(457,0,l),
(597,0,l),
(586,140,ls),
(573,309,o),
(540,322,o),
(360,322,c),
(360,317,l),
(460,317,o),
(586,340,o),
(586,484,cs),
(586,624,o),
(475,700,o),
(315,700,cs),
(75,700,l),
(75,0,l)
);
},
{
closed = 1;
nodes = (
(213,587,l),
(315,587,ls),
(395,587,o),
(448,554,o),
(448,484,cs),
(448,414,o),
(395,381,o),
(315,381,cs),
(213,381,l)
);
}
);
width = 652;
},
{
layerId = m007;
shapes = (
{
closed = 1;
nodes = (
(148,0,l),
(148,329,l),
(321,329,ls),
(445,329,o),
(457,268,o),
(461,185,cs),
(470,0,l),
(530,0,l),
(521,168,ls),
(513,317,o),
(481,352,o),
(355,352,c),
(355,350,l),
(443,350,o),
(521,401,o),
(521,514,cs),
(521,643,o),
(427,700,o),
(300,700,cs),
(90,700,l),
(90,0,l)
);
},
{
closed = 1;
nodes = (
(148,647,l),
(300,647,ls),
(394,647,o),
(463,611,o),
(463,514,cs),
(463,417,o),
(394,382,o),
(300,382,cs),
(148,382,l)
);
}
);
width = 600;
},
{
layerId = m004;
shapes = (
{
closed = 1;
nodes = (
(94,0,l),
(154,309,l),
(317,309,ls),
(417,309,o),
(435,273,o),
(421,174,cs),
(397,0,l),
(477,0,l),
(498,159,ls),
(519,318,o),
(477,342,o),
(347,342,c),
(347,340,l),
(447,340,o),
(542,385,o),
(565,504,cs),
(584,602,o),
(512,700,o),
(372,700,cs),
(152,700,l),
(16,0,l)
);
},
{
closed = 1;
nodes = (
(216,627,l),
(358,627,ls),
(448,627,o),
(502,583,o),
(487,504,cs),
(470,416,o),
(400,382,o),
(310,382,cs),
(168,382,l)
);
}
);
width = 611;
},
{
layerId = m008;
shapes = (
{
closed = 1;
nodes = (
(144,0,l),
(196,268,l),
(298,268,ls),
(418,268,o),
(417,233,o),
(407,153,cs),
(388,0,l),
(528,0,l),
(544,140,ls),
(562,299,o),
(524,324,o),
(354,324,c),
(353,315,l),
(453,315,o),
(583,340,o),
(611,484,cs),
(636,612,o),
(542,700,o),
(382,700,cs),
(142,700,l),
(6,0,l)
);
},
{
closed = 1;
nodes = (
(258,587,l),
(360,587,ls),
(440,587,o),
(489,562,o),
(473,484,cs),
(457,406,o),
(400,381,o),
(320,381,cs),
(218,381,l)
);
}
);
width = 652;
},
{
layerId = m006;
shapes = (
{
closed = 1;
nodes = (
(79,0,l),
(143,329,l),
(316,329,ls),
(440,329,o),
(440,268,o),
(428,185,cs),
(401,0,l),
(461,0,l),
(485,168,ls),
(506,317,o),
(480,352,o),
(354,352,c),
(354,350,l),
(442,350,o),
(530,401,o),
(552,514,cs),
(577,643,o),
(494,700,o),
(367,700,cs),
(157,700,l),
(21,0,l)
);
},
{
closed = 1;
nodes = (
(205,647,l),
(357,647,ls),
(451,647,o),
(513,611,o),
(494,514,cs),
(475,417,o),
(399,382,o),
(305,382,cs),
(153,382,l)
);
}
);
width = 600;
}
);
metricLeft = H;
unicode = 82;
},
{
glyphname = S;
kernLeft = S;
kernRight = S;
lastChange = "2022-08-21 06:53:56 +0000";
layers = (
{
layerId = m01;
shapes = (
{
closed = 1;
nodes = (
(450,-16,o),
(541,81,o),
(541,181,cs),
(541,445,o),
(162,364,o),
(162,538,cs),
(162,608,o),
(220,643,o),
(300,643,cs),
(390,643,o),
(436,588,o),
(436,498,c),
(514,508,l),
(514,628,o),
(430,716,o),
(300,716,cs),
(180,716,o),
(84,648,o),
(84,538,cs),
(84,290,o),
(463,387,o),
(463,181,cs),
(463,101,o),
(390,57,o),
(310,57,cs),
(190,57,o),
(123,146,o),
(123,276,c),
(45,266,l),
(45,116,o),
(130,-16,o),
(310,-16,cs)
);
}
);
width = 591;
},
{
layerId = m005;
shapes = (
{
closed = 1;
nodes = (
(489,-16,o),
(591,83,o),
(591,201,cs),
(591,472,o),
(212,381,o),
(212,528,cs),
(212,580,o),
(261,603,o),
(320,603,cs),
(400,603,o),
(425,566,o),
(425,491,c),
(563,501,l),
(563,630,o),
(474,716,o),
(320,716,cs),
(176,716,o),
(74,639,o),
(74,518,cs),
(74,261,o),
(453,358,o),
(453,191,cs),
(453,119,o),
(399,97,o),
(330,97,cs),
(222,97,o),
(174,159,o),
(174,283,c),
(35,273,l),
(35,113,o),
(127,-16,o),
(330,-16,cs)
);
}
);
width = 631;
},
{
layerId = m007;
shapes = (
{
closed = 1;
nodes = (
(441,-16,o),
(526,75,o),
(526,171,cs),
(526,423,o),
(147,362,o),
(147,548,cs),
(147,625,o),
(211,663,o),
(295,663,cs),
(397,663,o),
(441,599,o),
(441,509,c),
(499,517,l),
(499,627,o),
(428,716,o),
(295,716,cs),
(178,716,o),
(89,653,o),
(89,548,cs),
(89,313,o),
(468,381,o),
(468,171,cs),
(468,84,o),
(389,37,o),
(305,37,cs),
(175,37,o),
(112,136,o),
(108,265,c),
(50,257,l),
(53,114,o),
(134,-16,o),
(305,-16,cs)
);
}
);
width = 581;
},
{
layerId = m004;
shapes = (
{
closed = 1;
nodes = (
(402,-16,o),
(503,62,o),
(503,191,cs),
(503,411,o),
(201,399,o),
(201,538,cs),
(201,598,o),
(246,643,o),
(336,643,cs),
(426,643,o),
(464,568,o),
(464,498,c),
(544,508,l),
(544,618,o),
(466,716,o),
(336,716,cs),
(196,716,o),
(123,628,o),
(123,538,cs),
(123,339,o),
(426,361,o),
(426,191,cs),
(426,111,o),
(362,57,o),
(282,57,cs),
(152,57,o),
(108,176,o),
(108,276,c),
(28,266,l),
(28,156,o),
(82,-16,o),
(282,-16,cs)
);
}
);
width = 589;
},
{
layerId = m008;
shapes = (
{
closed = 1;
nodes = (
(440,-16,o),
(559,71,o),
(559,201,cs),
(559,461,o),
(246,398,o),
(246,518,cs),
(246,578,o),
(298,603,o),
(358,603,cs),
(428,603,o),
(451,551,o),
(451,491,c),
(591,501,l),
(591,601,o),
(540,716,o),
(358,716,cs),
(218,716,o),
(108,628,o),
(108,518,cs),
(108,288,o),
(421,361,o),
(421,201,cs),
(421,141,o),
(380,97,o),
(300,97,cs),
(210,97,o),
(160,163,o),
(160,283,c),
(19,273,l),
(19,113,o),
(100,-16,o),
(300,-16,cs)
);
}
);
width = 632;
},
{
layerId = m006;
shapes = (
{
closed = 1;
nodes = (
(383,-16,o),
(486,61,o),
(486,181,cs),
(486,416,o),
(186,388,o),
(186,548,cs),
(186,608,o),
(235,663,o),
(335,663,cs),
(435,663,o),
(471,567,o),
(471,507,c),
(530,517,l),
(530,607,o),
(465,716,o),
(335,716,cs),
(215,716,o),
(130,648,o),
(130,548,cs),
(130,348,o),
(430,377,o),
(430,181,cs),
(430,91,o),
(363,37,o),
(273,37,cs),
(143,37,o),
(90,137,o),
(90,267,c),
(31,257,l),
(31,117,o),
(103,-16,o),
(273,-16,cs)
);
}
);
width = 578;
}
);
unicode = 83;
},
{
glyphname = Germandbls;
kernLeft = H;
kernRight = B;
lastChange = "2022-07-26 06:50:25 +0000";
layers = (
{
layerId = m01;
shapes = (
{
closed = 1;
nodes = (
(373,0,ls),
(526,0,o),
(625,77,o),
(625,207,cs),
(625,337,o),
(522,410,o),
(368,410,c),
(384,379,l),
(557,587,ls),
(598,637,o),
(569,700,o),
(505,700,cs),
(115,700,l),
(115,627,l),
(494,627,l),
(323,413,l),
(323,337,l),
(373,337,ls),
(453,337,o),
(547,307,o),
(547,207,cs),
(547,107,o),
(453,78,o),
(373,78,cs),
(293,78,l),
(293,0,l)
);
},
{
closed = 1;
nodes = (
(163,0,l),
(163,700,l),
(85,700,l),
(85,0,l)
);
}
);
width = 690;
},
{
layerId = m005;
shapes = (
{
closed = 1;
nodes = (
(393,0,ls),
(563,0,o),
(675,72,o),
(675,212,cs),
(675,352,o),
(563,407,o),
(393,407,c),
(388,321,l),
(583,536,ls),
(650,610,o),
(615,700,o),
(525,700,cs),
(105,700,l),
(105,587,l),
(475,587,l),
(313,406,l),
(313,306,l),
(393,306,ls),
(467,306,o),
(537,292,o),
(537,212,cs),
(537,132,o),
(467,118,o),
(393,118,cs),
(303,118,l),
(303,0,l)
);
},
{
closed = 1;
nodes = (
(213,0,l),
(213,700,l),
(75,700,l),
(75,0,l)
);
}
);
width = 730;
},
{
layerId = m007;
shapes = (
{
closed = 1;
nodes = (
(338,0,ls),
(488,0,o),
(580,82,o),
(580,207,cs),
(580,327,o),
(491,410,o),
(350,410,c),
(351,407,l),
(514,603,ls),
(552,648,o),
(528,700,o),
(470,700,cs),
(120,700,l),
(120,647,l),
(480,647,l),
(298,419,l),
(298,357,l),
(348,357,ls),
(438,357,o),
(522,315,o),
(522,207,cs),
(522,99,o),
(438,58,o),
(348,58,cs),
(268,58,l),
(268,0,l)
);
},
{
closed = 1;
nodes = (
(148,0,l),
(148,700,l),
(90,700,l),
(90,0,l)
);
}
);
width = 650;
},
{
layerId = m004;
shapes = (
{
closed = 1;
nodes = (
(304,0,ls),
(464,0,o),
(570,70,o),
(596,207,cs),
(619,325,o),
(529,410,o),
(369,410,c),
(389,379,l),
(602,587,ls),
(653,637,o),
(636,700,o),
(572,700,cs),
(182,700,l),
(168,627,l),
(547,627,l),
(334,413,l),
(319,337,l),
(369,337,ls),
(469,337,o),
(536,295,o),
(518,207,cs),
(501,119,o),
(419,78,o),
(319,78,cs),
(239,78,l),
(224,0,l)
);
},
{
closed = 1;
nodes = (
(94,0,l),
(230,700,l),
(152,700,l),
(16,0,l)
);
}
);
width = 689;
},
{
layerId = m008;
shapes = (
{
closed = 1;
nodes = (
(364,0,ls),
(524,0,o),
(619,64,o),
(643,192,cs),
(666,310,o),
(573,407,o),
(433,407,c),
(381,321,l),
(618,536,ls),
(700,610,o),
(672,700,o),
(582,700,cs),
(172,700,l),
(150,587,l),
(520,587,l),
(323,406,l),
(303,306,l),
(383,306,ls),
(463,306,o),
(523,281,o),
(509,212,cs),
(494,133,o),
(437,118,o),
(347,118,cs),
(257,118,l),
(234,0,l)
);
},
{
closed = 1;
nodes = (
(144,0,l),
(280,700,l),
(142,700,l),
(6,0,l)
);
}
);
width = 729;
},
{
layerId = m006;
shapes = (
{
closed = 1;
nodes = (
(269,0,ls),
(439,0,o),
(527,82,o),
(551,207,cs),
(575,325,o),
(491,410,o),
(361,410,c),
(349,395,l),
(562,603,ls),
(609,648,o),
(595,700,o),
(537,700,cs),
(187,700,l),
(177,647,l),
(537,647,l),
(310,419,l),
(298,357,l),
(348,357,ls),
(448,357,o),
(514,315,o),
(493,207,cs),
(472,99,o),
(390,58,o),
(290,58,cs),
(210,58,l),
(199,0,l)
);
},
{
closed = 1;
nodes = (
(79,0,l),
(215,700,l),
(157,700,l),
(21,0,l)
);
}
);
width = 649;
}
);
metricLeft = H;
metricRight = "=B+5";
unicode = 7838;
},
{
glyphname = T;
kernLeft = T;
kernRight = T;
lastChange = "2022-07-26 20:37:47 +0000";
layers = (
{
layerId = m01;
shapes = (
{
closed = 1;
nodes = (
(348,0,l),
(348,627,l),
(270,627,l),
(270,0,l)
);
},
{
closed = 1;
nodes = (
(598,627,l),
(598,700,l),
(20,700,l),
(20,627,l)
);
}
);
width = 618;
},
{
layerId = m005;
shapes = (
{
closed = 1;
nodes = (
(398,0,l),
(398,627,l),
(260,627,l),
(260,0,l)
);
},
{
closed = 1;
nodes = (
(648,587,l),
(648,700,l),
(10,700,l),
(10,587,l)
);
}
);
width = 658;
},
{
layerId = m007;
shapes = (
{
closed = 1;
nodes = (
(333,0,l),
(333,657,l),
(275,657,l),
(275,0,l)
);
},
{
closed = 1;
nodes = (
(583,647,l),
(583,700,l),
(25,700,l),
(25,647,l)
);
}
);
width = 608;
},
{
layerId = m004;
shapes = (
{
closed = 1;
nodes = (
(279,0,l),
(401,627,l),
(323,627,l),
(201,0,l)
);
},
{
closed = 1;
nodes = (
(651,627,l),
(665,700,l),
(87,700,l),
(73,627,l)
);
}
);
width = 618;
},
{
layerId = m008;
shapes = (
{
closed = 1;
nodes = (
(330,0,l),
(452,627,l),
(314,627,l),
(192,0,l)
);
},
{
closed = 1;
nodes = (
(694,587,l),
(716,700,l),
(78,700,l),
(56,587,l)
);
}
);
width = 659;
},
{
layerId = m006;
shapes = (
{
closed = 1;
nodes = (
(264,0,l),
(392,657,l),
(334,657,l),
(206,0,l)
);
},
{
closed = 1;
nodes = (
(640,647,l),
(650,700,l),
(92,700,l),
(82,647,l)
);
}
);
width = 608;
}
);
unicode = 84;
},
{
glyphname = Tbar;
kernLeft = T;
kernRight = T;
lastChange = "2022-07-23 20:25:36 +0000";
layers = (
{
layerId = m01;
shapes = (
{
closed = 1;
nodes = (
(479,320,l),
(479,380,l),
(139,380,l),
(139,320,l)
);
},
{
ref = T;
}
);
width = 618;
},
{
layerId = m005;
shapes = (
{
closed = 1;
nodes = (
(509,305,l),
(509,395,l),
(149,395,l),
(149,305,l)
);
},
{
ref = T;
}
);
width = 658;
},
{
layerId = m007;
shapes = (
{
closed = 1;
nodes = (
(464,330,l),
(464,370,l),
(144,370,l),
(144,330,l)
);
},
{
ref = T;
}
);
width = 608;
},
{
layerId = m004;
shapes = (
{
closed = 1;
nodes = (
(473,320,l),
(485,380,l),
(145,380,l),
(133,320,l)
);
},
{
ref = T;
}
);
width = 618;
},
{
layerId = m008;
shapes = (
{
closed = 1;
nodes = (
(500,305,l),
(518,395,l),
(158,395,l),
(140,305,l)
);
},
{
ref = T;
}
);
width = 659;
},
{
layerId = m006;
shapes = (
{
closed = 1;
nodes = (
(460,330,l),
(468,370,l),
(148,370,l),
(140,330,l)
);
},
{
ref = T;
}
);
width = 608;
}
);
metricLeft = T;
metricRight = T;
unicode = 358;
},
{
glyphname = U;
kernLeft = U;
kernRight = U;
lastChange = "2022-07-26 06:58:51 +0000";
layers = (
{
layerId = m01;
shapes = (
{
closed = 1;
nodes = (
(468,-16,o),
(575,72,o),
(575,242,cs),
(575,700,l),
(497,700,l),
(497,242,ls),
(497,112,o),
(418,57,o),
(328,57,cs),
(238,57,o),
(158,112,o),
(158,242,cs),
(158,700,l),
(80,700,l),
(80,242,ls),
(80,72,o),
(188,-16,o),
(328,-16,cs)
);
}
);
width = 655;
},
{
layerId = m005;
shapes = (
{
closed = 1;
nodes = (
(503,-16,o),
(625,80,o),
(625,272,cs),
(625,700,l),
(487,700,l),
(487,272,ls),
(487,139,o),
(426,97,o),
(348,97,cs),
(270,97,o),
(208,140,o),
(208,272,cs),
(208,700,l),
(70,700,l),
(70,272,ls),
(70,80,o),
(193,-16,o),
(348,-16,cs)
);
}
);
width = 695;
},
{
layerId = m007;
shapes = (
{
closed = 1;
nodes = (
(459,-16,o),
(560,67,o),
(560,242,cs),
(560,700,l),
(502,700,l),
(502,242,ls),
(502,96,o),
(417,37,o),
(323,37,cs),
(229,37,o),
(143,96,o),
(143,242,cs),
(143,700,l),
(85,700,l),
(85,242,ls),
(85,67,o),
(187,-16,o),
(323,-16,cs)
);
}
);
width = 645;
},
{
layerId = m004;
shapes = (
{
closed = 1;
nodes = (
(396,-16,o),
(517,55,o),
(553,242,cs),
(642,700,l),
(564,700,l),
(475,242,ls),
(448,105,o),
(350,57,o),
(280,57,cs),
(180,57,o),
(111,114,o),
(136,242,cs),
(225,700,l),
(147,700,l),
(58,242,ls),
(27,85,o),
(126,-16,o),
(266,-16,cs)
);
}
);
width = 655;
},
{
layerId = m008;
shapes = (
{
closed = 1;
nodes = (
(427,-16,o),
(565,46,o),
(609,272,cs),
(692,700,l),
(553,700,l),
(470,272,ls),
(441,125,o),
(357,97,o),
(297,97,cs),
(217,97,o),
(168,154,o),
(191,272,cs),
(274,700,l),
(137,700,l),
(54,272,ls),
(22,105,o),
(127,-16,o),
(277,-16,cs)
);
}
);
width = 695;
},
{
layerId = m006;
shapes = (
{
closed = 1;
nodes = (
(391,-16,o),
(502,55,o),
(538,242,cs),
(627,700,l),
(569,700,l),
(480,242,ls),
(449,85,o),
(351,37,o),
(261,37,cs),
(161,37,o),
(90,85,o),
(121,242,cs),
(210,700,l),
(152,700,l),
(63,242,ls),
(29,67,o),
(121,-16,o),
(251,-16,cs)
);
}
);
width = 645;
}
);
unicode = 85;
},
{
glyphname = V;
kernLeft = V;
kernRight = V;
lastChange = "2022-08-02 18:53:04 +0000";
layers = (
{
layerId = m01;
shapes = (
{
closed = 1;
nodes = (
(355,0,l),
(588,700,l),
(510,700,l),
(289,36,l),
(318,36,l),
(98,700,l),
(20,700,l),
(253,0,l)
);
}
);
width = 608;
},
{
layerId = m005;
shapes = (
{
closed = 1;
nodes = (
(407,0,l),
(654,700,l),
(519,700,l),
(285,36,l),
(379,36,l),
(145,700,l),
(10,700,l),
(257,0,l)
);
}
);
width = 664;
},
{
layerId = m007;
shapes = (
{
closed = 1;
nodes = (
(333,0,l),
(559,700,l),
(502,700,l),
(288,36,l),
(295,36,l),
(82,700,l),
(25,700,l),
(251,0,l)
);
}
);
width = 584;
},
{
layerId = m004;
shapes = (
{
closed = 1;
nodes = (
(286,0,l),
(655,700,l),
(573,700,l),
(223,36,l),
(252,36,l),
(161,700,l),
(87,700,l),
(184,0,l)
);
}
);
width = 608;
},
{
layerId = m008;
shapes = (
{
closed = 1;
nodes = (
(338,0,l),
(721,700,l),
(576,700,l),
(213,36,l),
(307,36,l),
(202,700,l),
(77,700,l),
(188,0,l)
);
}
);
width = 664;
},
{
layerId = m006;
shapes = (
{
closed = 1;
nodes = (
(264,0,l),
(626,700,l),
(564,700,l),
(221,36,l),
(233,36,l),
(149,700,l),
(92,700,l),
(182,0,l)
);
}
);
width = 584;
}
);
unicode = 86;
},
{
glyphname = W;
kernLeft = V;
kernRight = V;
lastChange = "2022-08-21 20:54:37 +0000";
layers = (
{
layerId = m01;
shapes = (
{
closed = 1;
nodes = (
(310,0,l),
(438,587,l),
(418,587,l),
(546,0,l),
(649,0,l),
(821,700,l),
(748,700,l),
(585,38,l),
(606,38,l),
(462,700,l),
(394,700,l),
(250,38,l),
(271,38,l),
(108,700,l),
(35,700,l),
(207,0,l)
);
}
);
width = 856;
},
{
layerId = m005;
shapes = (
{
closed = 1;
nodes = (
(351,0,l),
(488,587,l),
(438,587,l),
(575,0,l),
(748,0,l),
(900,700,l),
(768,700,l),
(625,38,l),
(676,38,l),
(523,700,l),
(403,700,l),
(250,38,l),
(301,38,l),
(158,700,l),
(25,700,l),
(177,0,l)
);
}
);
width = 925;
},
{
layerId = m007;
shapes = (
{
closed = 1;
nodes = (
(276,0,l),
(410,587,l),
(409,587,l),
(543,0,l),
(612,0,l),
(779,700,l),
(726,700,l),
(572,38,l),
(589,38,l),
(439,700,l),
(380,700,l),
(230,38,l),
(251,38,l),
(93,700,l),
(40,700,l),
(207,0,l)
);
}
);
width = 819;
},
{
layerId = m004;
shapes = (
{
closed = 1;
nodes = (
(241,0,l),
(483,587,l),
(463,587,l),
(477,0,l),
(580,0,l),
(888,700,l),
(811,700,l),
(519,38,l),
(540,38,l),
(525,700,l),
(457,700,l),
(184,38,l),
(205,38,l),
(171,700,l),
(102,700,l),
(138,0,l)
);
}
);
width = 856;
},
{
layerId = m008;
shapes = (
{
closed = 1;
nodes = (
(277,0,l),
(528,587,l),
(478,587,l),
(501,0,l),
(679,0,l),
(967,700,l),
(830,700,l),
(558,38,l),
(609,38,l),
(585,700,l),
(465,700,l),
(183,38,l),
(234,38,l),
(220,700,l),
(92,700,l),
(108,0,l)
);
}
);
width = 925;
},
{
layerId = m006;
shapes = (
{
closed = 1;
nodes = (
(207,0,l),
(455,587,l),
(454,587,l),
(474,0,l),
(543,0,l),
(846,700,l),
(786,700,l),
(503,38,l),
(526,38,l),
(505,700,l),
(447,700,l),
(168,38,l),
(192,38,l),
(163,700,l),
(107,700,l),
(138,0,l)
);
}
);
width = 819;
}
);
metricLeft = "=V+15";
metricRight = "=V+15";
unicode = 87;
},
{
glyphname = X;
kernLeft = X;
kernRight = X;
lastChange = "2022-08-03 06:45:22 +0000";
layers = (
{
layerId = m01;
shapes = (
{
closed = 1;
nodes = (
(577,0,l),
(106,700,l),
(20,700,l),
(491,0,l)
);
},
{
closed = 1;
nodes = (
(106,0,l),
(577,700,l),
(491,700,l),
(20,0,l)
);
}
);
width = 597;
},
{
layerId = m005;
shapes = (
{
closed = 1;
nodes = (
(652,0,l),
(164,700,l),
(10,700,l),
(498,0,l)
);
},
{
closed = 1;
nodes = (
(164,0,l),
(652,700,l),
(498,700,l),
(10,0,l)
);
}
);
width = 662;
},
{
layerId = m007;
shapes = (
{
closed = 1;
nodes = (
(544,0,l),
(87,700,l),
(25,700,l),
(482,0,l)
);
},
{
closed = 1;
nodes = (
(87,0,l),
(544,700,l),
(482,700,l),
(25,0,l)
);
}
);
width = 569;
},
{
layerId = m004;
shapes = (
{
closed = 1;
nodes = (
(508,0,l),
(173,700,l),
(97,700,l),
(432,0,l)
);
},
{
closed = 1;
nodes = (
(47,0,l),
(654,700,l),
(558,700,l),
(-49,0,l)
);
}
);
width = 607;
},
{
layerId = m008;
shapes = (
{
closed = 1;
nodes = (
(583,0,l),
(231,700,l),
(87,700,l),
(439,0,l)
);
},
{
closed = 1;
nodes = (
(105,0,l),
(729,700,l),
(565,700,l),
(-59,0,l)
);
}
);
width = 672;
},
{
layerId = m006;
shapes = (
{
closed = 1;
nodes = (
(480,0,l),
(159,700,l),
(102,700,l),
(423,0,l)
);
},
{
closed = 1;
nodes = (
(23,0,l),
(616,700,l),
(549,700,l),
(-44,0,l)
);
}
);
width = 569;
}
);
unicode = 88;
},
{
glyphname = Y;
kernLeft = Y;
kernRight = Y;
lastChange = "2022-08-02 18:53:42 +0000";
layers = (
{
layerId = m01;
shapes = (
{
closed = 1;
nodes = (
(227,0,l),
(532,700,l),
(450,700,l),
(145,0,l)
);
},
{
closed = 1;
nodes = (
(300,246,l),
(102,700,l),
(20,700,l),
(253,165,l)
);
}
);
width = 552;
},
{
layerId = m005;
shapes = (
{
closed = 1;
nodes = (
(275,0,l),
(598,700,l),
(455,700,l),
(132,0,l)
);
},
{
closed = 1;
nodes = (
(361,245,l),
(154,700,l),
(10,700,l),
(279,104,l)
);
}
);
width = 608;
},
{
layerId = m007;
shapes = (
{
closed = 1;
nodes = (
(208,0,l),
(505,700,l),
(447,700,l),
(150,0,l)
);
},
{
closed = 1;
nodes = (
(277,247,l),
(83,700,l),
(25,700,l),
(244,187,l)
);
}
);
width = 530;
},
{
layerId = m004;
shapes = (
{
closed = 1;
nodes = (
(158,0,l),
(599,700,l),
(513,700,l),
(72,0,l)
);
},
{
closed = 1;
nodes = (
(275,246,l),
(165,700,l),
(87,700,l),
(216,165,l)
);
}
);
width = 552;
},
{
layerId = m008;
shapes = (
{
closed = 1;
nodes = (
(201,0,l),
(660,700,l),
(507,700,l),
(48,0,l)
);
},
{
closed = 1;
nodes = (
(325,245,l),
(206,700,l),
(77,700,l),
(230,104,l)
);
}
);
width = 603;
},
{
layerId = m006;
shapes = (
{
closed = 1;
nodes = (
(139,0,l),
(572,700,l),
(514,700,l),
(81,0,l)
);
},
{
closed = 1;
nodes = (
(256,247,l),
(150,700,l),
(92,700,l),
(211,187,l)
);
}
);
width = 530;
}
);
unicode = 89;
},
{
glyphname = Z;
kernLeft = Z;
kernRight = Z;
lastChange = "2022-07-25 10:52:12 +0000";
layers = (
{
layerId = m01;
shapes = (
{
closed = 1;
nodes = (
(156,73,l),
(510,627,l),
(424,627,l),
(70,73,l)
);
},
{
closed = 1;
nodes = (
(510,0,l),
(510,73,l),
(70,73,l),
(70,0,l)
);
},
{
closed = 1;
nodes = (
(510,627,l),
(510,700,l),
(70,700,l),
(70,627,l)
);
}
);
width = 580;
},
{
layerId = m005;
shapes = (
{
closed = 1;
nodes = (
(210,113,l),
(550,587,l),
(400,587,l),
(60,113,l)
);
},
{
closed = 1;
nodes = (
(550,0,l),
(550,113,l),
(60,113,l),
(60,0,l)
);
},
{
closed = 1;
nodes = (
(550,587,l),
(550,700,l),
(60,700,l),
(60,587,l)
);
}
);
width = 610;
},
{
layerId = m007;
shapes = (
{
closed = 1;
nodes = (
(128,53,l),
(495,647,l),
(432,647,l),
(65,53,l)
);
},
{
closed = 1;
nodes = (
(495,0,l),
(495,53,l),
(65,53,l),
(65,0,l)
);
},
{
closed = 1;
nodes = (
(495,647,l),
(495,700,l),
(65,700,l),
(65,647,l)
);
}
);
width = 570;
},
{
layerId = m004;
shapes = (
{
closed = 1;
nodes = (
(102,73,l),
(564,627,l),
(478,627,l),
(16,73,l)
);
},
{
closed = 1;
nodes = (
(442,0,l),
(456,73,l),
(16,73,l),
(2,0,l)
);
},
{
closed = 1;
nodes = (
(564,627,l),
(578,700,l),
(138,700,l),
(124,627,l)
);
}
);
width = 581;
},
{
layerId = m008;
shapes = (
{
closed = 1;
nodes = (
(164,113,l),
(596,587,l),
(446,587,l),
(14,113,l)
);
},
{
closed = 1;
nodes = (
(482,0,l),
(504,113,l),
(14,113,l),
(-8,0,l)
);
},
{
closed = 1;
nodes = (
(596,587,l),
(618,700,l),
(128,700,l),
(106,587,l)
);
}
);
width = 611;
},
{
layerId = m006;
shapes = (
{
closed = 1;
nodes = (
(70,53,l),
(553,647,l),
(490,647,l),
(7,53,l)
);
},
{
closed = 1;
nodes = (
(427,0,l),
(437,53,l),
(7,53,l),
(-3,0,l)
);
},
{
closed = 1;
nodes = (
(553,647,l),
(563,700,l),
(133,700,l),
(123,647,l)
);
}
);
width = 571;
}
);
unicode = 90;
},
{
glyphname = R.ss01;
kernLeft = H;
kernRight = R;
lastChange = "2022-08-07 08:01:51 +0000";
layers = (
{
layerId = m01;
shapes = (
{
closed = 1;
nodes = (
(305,309,ls),
(435,309,o),
(536,380,o),
(536,504,cs),
(536,639,o),
(435,700,o),
(305,700,cs),
(118,700,l),
(118,627,l),
(305,627,ls),
(395,627,o),
(458,594,o),
(458,504,cs),
(458,414,o),
(395,382,o),
(305,382,cs),
(118,382,l),
(118,309,l)
);
},
{
closed = 1;
nodes = (
(163,0,l),
(163,700,l),
(85,700,l),
(85,0,l)
);
},
{
closed = 1;
nodes = (
(550,0,l),
(366,350,l),
(282,343,l),
(461,0,l)
);
}
);
width = 595;
},
{
layerId = m005;
shapes = (
{
closed = 1;
nodes = (
(315,268,ls),
(475,268,o),
(586,344,o),
(586,484,cs),
(586,624,o),
(475,700,o),
(315,700,cs),
(108,700,l),
(108,587,l),
(315,587,ls),
(395,587,o),
(448,564,o),
(448,484,cs),
(448,404,o),
(395,381,o),
(315,381,cs),
(108,381,l),
(108,268,l)
);
},
{
closed = 1;
nodes = (
(213,0,l),
(213,700,l),
(75,700,l),
(75,0,l)
);
},
{
closed = 1;
nodes = (
(597,0,l),
(391,372,l),
(245,359,l),
(443,0,l)
);
}
);
width = 632;
},
{
layerId = m007;
shapes = (
{
closed = 1;
nodes = (
(300,329,ls),
(427,329,o),
(521,395,o),
(521,514,cs),
(521,643,o),
(427,700,o),
(300,700,cs),
(123,700,l),
(123,647,l),
(300,647,ls),
(394,647,o),
(463,611,o),
(463,514,cs),
(463,417,o),
(394,382,o),
(300,382,cs),
(123,382,l),
(123,329,l)
);
},
{
closed = 1;
nodes = (
(148,0,l),
(148,700,l),
(90,700,l),
(90,0,l)
);
},
{
closed = 1;
nodes = (
(528,0,l),
(355,349,l),
(291,344,l),
(460,0,l)
);
}
);
width = 578;
},
{
layerId = m004;
shapes = (
{
closed = 1;
nodes = (
(296,309,ls),
(456,309,o),
(542,386,o),
(565,504,cs),
(584,602,o),
(512,700,o),
(372,700,cs),
(185,700,l),
(171,627,l),
(358,627,ls),
(448,627,o),
(502,583,o),
(487,504,cs),
(468,406,o),
(400,382,o),
(310,382,cs),
(123,382,l),
(109,309,l)
);
},
{
closed = 1;
nodes = (
(94,0,l),
(230,700,l),
(152,700,l),
(16,0,l)
);
},
{
closed = 1;
nodes = (
(481,0,l),
(365,350,l),
(285,343,l),
(397,0,l)
);
}
);
width = 595;
},
{
layerId = m008;
shapes = (
{
closed = 1;
nodes = (
(298,268,ls),
(458,268,o),
(581,327,o),
(611,484,cs),
(636,612,o),
(542,700,o),
(382,700,cs),
(175,700,l),
(153,587,l),
(360,587,ls),
(440,587,o),
(489,562,o),
(473,484,cs),
(457,406,o),
(400,381,o),
(320,381,cs),
(113,381,l),
(91,268,l)
);
},
{
closed = 1;
nodes = (
(144,0,l),
(280,700,l),
(142,700,l),
(6,0,l)
);
},
{
closed = 1;
nodes = (
(528,0,l),
(394,372,l),
(246,359,l),
(374,0,l)
);
}
);
width = 632;
},
{
layerId = m006;
shapes = (
{
closed = 1;
nodes = (
(295,329,ls),
(425,329,o),
(529,395,o),
(552,514,cs),
(573,622,o),
(497,700,o),
(367,700,cs),
(190,700,l),
(180,647,l),
(357,647,ls),
(451,647,o),
(513,611,o),
(494,514,cs),
(477,426,o),
(399,382,o),
(305,382,cs),
(128,382,l),
(118,329,l)
);
},
{
closed = 1;
nodes = (
(79,0,l),
(215,700,l),
(157,700,l),
(21,0,l)
);
},
{
closed = 1;
nodes = (
(459,0,l),
(354,349,l),
(289,344,l),
(391,0,l)
);
}
);
width = 578;
}
);
metricLeft = R;
metricRight = "=R-20";
},
{
glyphname = Y.ss02;
kernLeft = Yalt;
kernRight = Yalt;
lastChange = "2022-08-07 08:00:33 +0000";
layers = (
{
layerId = m01;
shapes = (
{
closed = 1;
nodes = (
(588,700,l),
(500,700,l),
(267,315,l),
(333,279,l)
);
},
{
closed = 1;
nodes = (
(333,0,l),
(333,317,l),
(255,317,l),
(255,0,l)
);
},
{
closed = 1;
nodes = (
(321,315,l),
(88,700,l),
(0,700,l),
(255,279,l)
);
}
);
width = 588;
},
{
layerId = m005;
shapes = (
{
closed = 1;
nodes = (
(666,700,l),
(514,700,l),
(265,319,l),
(379,257,l)
);
},
{
closed = 1;
nodes = (
(397,0,l),
(397,337,l),
(259,337,l),
(259,0,l)
);
},
{
closed = 1;
nodes = (
(391,319,l),
(142,700,l),
(-10,700,l),
(277,257,l)
);
}
);
width = 656;
},
{
layerId = m007;
shapes = (
{
closed = 1;
nodes = (
(557,700,l),
(493,700,l),
(268,319,l),
(297,260,l)
);
},
{
closed = 1;
nodes = (
(310,0,l),
(310,324,l),
(252,324,l),
(252,0,l)
);
},
{
closed = 1;
nodes = (
(294,319,l),
(69,700,l),
(5,700,l),
(265,260,l)
);
}
);
width = 562;
},
{
layerId = m004;
shapes = (
{
closed = 1;
nodes = (
(655,700,l),
(563,700,l),
(255,315,l),
(318,279,l)
);
},
{
closed = 1;
nodes = (
(264,0,l),
(326,317,l),
(248,317,l),
(186,0,l)
);
},
{
closed = 1;
nodes = (
(309,315,l),
(151,700,l),
(67,700,l),
(240,279,l)
);
}
);
width = 588;
},
{
layerId = m008;
shapes = (
{
closed = 1;
nodes = (
(733,700,l),
(571,700,l),
(248,319,l),
(360,257,l)
);
},
{
closed = 1;
nodes = (
(328,0,l),
(393,337,l),
(255,337,l),
(190,0,l)
);
},
{
closed = 1;
nodes = (
(374,319,l),
(199,700,l),
(57,700,l),
(258,257,l)
);
}
);
width = 656;
},
{
layerId = m006;
shapes = (
{
closed = 1;
nodes = (
(624,700,l),
(560,700,l),
(261,319,l),
(279,260,l)
);
},
{
closed = 1;
nodes = (
(241,0,l),
(304,324,l),
(246,324,l),
(183,0,l)
);
},
{
closed = 1;
nodes = (
(287,319,l),
(136,700,l),
(72,700,l),
(247,260,l)
);
}
);
width = 562;
}
);
metricLeft = "=Y-20";
metricRight = "=Y-20";
},
{
glyphname = Oslash.ss03;
kernLeft = O;
kernRight = O;
lastChange = "2022-08-07 08:03:49 +0000";
layers = (
{
layerId = m01;
shapes = (
{
closed = 1;
nodes = (
(98,0,l),
(753,700,l),
(665,700,l),
(10,0,l)
);
},
{
ref = O;
}
);
width = 763;
},
{
layerId = m005;
shapes = (
{
closed = 1;
nodes = (
(129,0,l),
(795,700,l),
(666,700,l),
(0,0,l)
);
},
{
pos = (-4,0);
ref = O;
}
);
width = 795;
},
{
layerId = m007;
shapes = (
{
closed = 1;
nodes = (
(76,0,l),
(712,700,l),
(651,700,l),
(15,0,l)
);
},
{
pos = (-13,0);
ref = O;
}
);
width = 727;
},
{
layerId = m004;
shapes = (
{
closed = 1;
nodes = (
(19,0,l),
(810,700,l),
(722,700,l),
(-69,0,l)
);
},
{
pos = (-12,0);
ref = O;
}
);
width = 743;
},
{
layerId = m008;
shapes = (
{
closed = 1;
nodes = (
(70,0,l),
(872,700,l),
(733,700,l),
(-69,0,l)
);
},
{
ref = O;
}
);
width = 805;
},
{
layerId = m006;
shapes = (
{
closed = 1;
nodes = (
(7,0,l),
(779,700,l),
(718,700,l),
(-54,0,l)
);
},
{
pos = (-14,0);
ref = O;
}
);
width = 727;
}
);
metricLeft = "=O-50";
metricRight = "=O-50";
},
{
glyphname = Q.ss03;
kernLeft = O;
kernRight = Q;
lastChange = "2022-08-07 08:03:55 +0000";
layers = (
{
layerId = m01;
shapes = (
{
closed = 1;
nodes = (
(717,0,l),
(416,346,l),
(328,346,l),
(629,0,l)
);
},
{
ref = O;
}
);
width = 772;
},
{
layerId = m005;
shapes = (
{
closed = 1;
nodes = (
(801,0,l),
(473,346,l),
(318,346,l),
(646,0,l)
);
},
{
ref = O;
}
);
width = 846;
},
{
layerId = m007;
shapes = (
{
closed = 1;
nodes = (
(685,0,l),
(401,346,l),
(340,346,l),
(624,0,l)
);
},
{
ref = O;
}
);
width = 749;
},
{
layerId = m004;
shapes = (
{
closed = 1;
nodes = (
(649,0,l),
(415,346,l),
(327,346,l),
(561,0,l)
);
},
{
ref = O;
}
);
width = 763;
},
{
layerId = m008;
shapes = (
{
closed = 1;
nodes = (
(733,0,l),
(472,346,l),
(337,346,l),
(598,0,l)
);
},
{
ref = O;
}
);
width = 847;
},
{
layerId = m006;
shapes = (
{
closed = 1;
nodes = (
(617,0,l),
(400,346,l),
(339,346,l),
(556,0,l)
);
},
{
ref = O;
}
);
width = 749;
}
);
metricLeft = Q;
metricRight = "=Q+15";
},
{
glyphname = a;
kernLeft = a;
kernRight = u;
lastChange = "2022-08-21 06:52:49 +0000";
layers = (
{
layerId = m01;
shapes = (
{
closed = 1;
nodes = (
(329,-16,o),
(396,70,o),
(396,180,c),
(386,140,l),
(386,0,l),
(461,0,l),
(461,331,ls),
(461,471,o),
(378,516,o),
(268,516,cs),
(148,516,o),
(63,448,o),
(63,348,c),
(136,338,l),
(136,408,o),
(188,443,o),
(268,443,cs),
(338,443,o),
(374,418,o),
(383,379,cs),
(390,350,o),
(381,312,o),
(291,308,cs),
(181,303,o),
(50,275,o),
(50,140,cs),
(50,50,o),
(119,-16,o),
(219,-16,cs)
);
},
{
closed = 1;
nodes = (
(169,57,o),
(128,90,o),
(128,140,cs),
(128,220,o),
(208,233,o),
(278,235,cs),
(328,237,o),
(396,253,o),
(396,323,c),
(386,313,l),
(386,243,ls),
(386,113,o),
(319,57,o),
(229,57,cs)
);
}
);
width = 526;
},
{
layerId = m005;
shapes = (
{
closed = 1;
nodes = (
(339,-16,o),
(386,80,o),
(386,180,c),
(376,141,l),
(376,0,l),
(511,0,l),
(511,326,ls),
(511,476,o),
(408,516,o),
(288,516,cs),
(148,516,o),
(54,432,o),
(54,332,c),
(188,322,l),
(188,382,o),
(228,403,o),
(288,403,cs),
(338,403,o),
(367,385,o),
(374,357,cs),
(383,318,o),
(350,301,o),
(290,298,cs),
(180,292,o),
(40,270,o),
(40,140,cs),
(40,29,o),
(139,-16,o),
(209,-16,cs)
);
},
{
closed = 1;
nodes = (
(199,97,o),
(178,120,o),
(178,150,cs),
(178,180,o),
(209,199,o),
(259,205,cs),
(339,215,o),
(396,218,o),
(396,338,c),
(376,318,l),
(376,243,ls),
(376,140,o),
(299,97,o),
(249,97,cs)
);
}
);
width = 566;
},
{
layerId = m007;
shapes = (
{
closed = 1;
nodes = (
(319,-16,o),
(401,63,o),
(401,180,c),
(391,129,l),
(391,0,l),
(446,0,l),
(446,331,ls),
(446,471,o),
(373,516,o),
(263,516,cs),
(150,516,o),
(72,447,o),
(68,357,c),
(121,349,l),
(127,428,o),
(183,463,o),
(263,463,cs),
(337,463,o),
(382,436,o),
(389,380,cs),
(393,340,o),
(375,302,o),
(286,298,cs),
(176,293,o),
(55,262,o),
(55,135,cs),
(55,49,o),
(118,-16,o),
(214,-16,cs)
);
},
{
closed = 1;
nodes = (
(160,37,o),
(113,78,o),
(113,135,cs),
(113,224,o),
(202,243,o),
(273,245,cs),
(322,247,o),
(401,251,o),
(401,339,c),
(391,299,l),
(391,233,ls),
(391,107,o),
(319,37,o),
(224,37,cs)
);
}
);
width = 516;
},
{
layerId = m004;
shapes = (
{
closed = 1;
nodes = (
(268,-16,o),
(340,62,o),
(363,180,c),
(345,140,l),
(318,0,l),
(393,0,l),
(456,323,ls),
(479,441,o),
(410,516,o),
(280,516,cs),
(160,516,o),
(82,446,o),
(63,348,c),
(134,338,l),
(147,407,o),
(196,443,o),
(276,443,cs),
(356,443,o),
(387,412,o),
(389,372,cs),
(391,332,o),
(366,306,o),
(276,303,cs),
(176,300,o),
(38,289,o),
(11,152,cs),
(-6,64,o),
(58,-16,o),
(158,-16,cs)
);
},
{
closed = 1;
nodes = (
(112,57,o),
(78,93,o),
(90,152,cs),
(103,221,o),
(186,233,o),
(256,235,cs),
(316,237,o),
(377,254,o),
(391,323,c),
(379,313,l),
(365,243,ls),
(341,125,o),
(252,57,o),
(172,57,cs)
);
}
);
width = 527;
},
{
layerId = m008;
shapes = (
{
closed = 1;
nodes = (
(268,-16,o),
(334,80,o),
(353,180,c),
(335,141,l),
(308,0,l),
(443,0,l),
(499,291,ls),
(531,458,o),
(440,516,o),
(310,516,cs),
(180,516,o),
(75,460,o),
(51,332,c),
(183,322,l),
(194,382,o),
(238,403,o),
(298,403,cs),
(348,403,o),
(374,385,o),
(375,357,cs),
(377,318,o),
(340,301,o),
(280,298,cs),
(159,291,o),
(24,270,o),
(1,150,cs),
(-22,29,o),
(68,-16,o),
(138,-16,cs)
);
},
{
closed = 1;
nodes = (
(150,97,o),
(133,120,o),
(139,150,cs),
(145,179,o),
(171,198,o),
(231,205,cs),
(313,215,o),
(370,218,o),
(394,338,c),
(370,318,l),
(355,243,ls),
(334,140,o),
(270,97,o),
(200,97,cs)
);
}
);
width = 567;
},
{
layerId = m006;
shapes = (
{
closed = 1;
nodes = (
(253,-16,o),
(345,63,o),
(368,180,c),
(348,129,l),
(323,0,l),
(378,0,l),
(444,339,ls),
(467,457,o),
(395,516,o),
(285,516,cs),
(165,516,o),
(90,444,o),
(69,357,c),
(121,347,l),
(139,415,o),
(195,463,o),
(285,463,cs),
(345,463,o),
(395,430,o),
(395,380,cs),
(395,340,o),
(366,302,o),
(276,298,cs),
(176,294,o),
(40,272,o),
(15,145,cs),
(-2,56,o),
(63,-16,o),
(153,-16,cs)
);
},
{
closed = 1;
nodes = (
(113,37,o),
(60,76,o),
(73,145,cs),
(86,213,o),
(173,242,o),
(253,245,cs),
(313,247,o),
(385,260,o),
(400,339,c),
(381,299,l),
(368,233,ls),
(343,107,o),
(263,37,o),
(163,37,cs)
);
}
);
width = 517;
}
);
metricRight = "=u-10";
unicode = 97;
},
{
glyphname = ae;
kernLeft = a;
kernRight = o;
lastChange = "2022-08-10 14:48:09 +0000";
layers = (
{
layerId = m01;
shapes = (
{
closed = 1;
nodes = (
(737,-16,o),
(804,46,o),
(824,144,c),
(746,154,l),
(736,114,o),
(717,57,o),
(617,57,cs),
(517,57,o),
(464,140,o),
(464,230,c),
(827,230,l),
(827,248,ls),
(827,428,o),
(728,516,o),
(608,516,cs),
(488,516,o),
(386,428,o),
(386,248,cs),
(386,68,o),
(497,-16,o),
(617,-16,cs)
);
},
{
closed = 1;
nodes = (
(169,57,o),
(128,90,o),
(128,140,cs),
(128,220,o),
(208,233,o),
(278,235,cs),
(328,237,o),
(396,253,o),
(396,323,c),
(386,313,l),
(386,243,ls),
(386,113,o),
(319,57,o),
(229,57,cs)
);
},
{
closed = 1;
nodes = (
(329,-16,o),
(426,70,o),
(426,180,c),
(461,331,l),
(461,471,o),
(378,516,o),
(268,516,cs),
(148,516,o),
(63,448,o),
(63,348,c),
(136,338,l),
(136,408,o),
(188,443,o),
(268,443,cs),
(338,443,o),
(378,419,o),
(384,369,cs),
(387,339,o),
(371,312,o),
(291,308,cs),
(181,303,o),
(50,275,o),
(50,140,cs),
(50,50,o),
(119,-16,o),
(219,-16,cs)
);
},
{
closed = 1;
nodes = (
(464,358,o),
(498,443,o),
(608,443,cs),
(718,443,o),
(749,358,o),
(749,298,c),
(464,298,l)
);
}
);
width = 872;
},
{
layerId = m005;
shapes = (
{
closed = 1;
nodes = (
(787,-16,o),
(874,58,o),
(887,147,c),
(751,157,l),
(740,129,o),
(717,97,o),
(647,97,cs),
(582,97,o),
(525,140,o),
(525,210,c),
(887,210,l),
(887,248,ls),
(887,418,o),
(778,516,o),
(638,516,cs),
(498,516,o),
(386,418,o),
(386,248,cs),
(386,78,o),
(507,-16,o),
(647,-16,cs)
);
},
{
closed = 1;
nodes = (
(209,97,o),
(178,108,o),
(178,148,cs),
(178,198,o),
(231,203,o),
(271,207,cs),
(353,216,o),
(406,226,o),
(406,309,c),
(386,308,l),
(386,233,ls),
(386,150,o),
(319,97,o),
(249,97,cs)
);
},
{
closed = 1;
nodes = (
(339,-16,o),
(456,40,o),
(456,220,c),
(509,336,l),
(509,480,o),
(409,516,o),
(288,516,cs),
(144,516,o),
(54,449,o),
(54,362,c),
(188,343,l),
(188,393,o),
(258,403,o),
(298,403,cs),
(348,403,o),
(380,391,o),
(388,362,cs),
(396,333,o),
(382,313,o),
(322,309,cs),
(212,302,o),
(40,298,o),
(40,148,cs),
(40,47,o),
(123,-16,o),
(229,-16,cs)
);
},
{
closed = 1;
nodes = (
(525,368,o),
(578,403,o),
(638,403,cs),
(698,403,o),
(748,368,o),
(748,308,c),
(525,308,l)
);
}
);
width = 922;
},
{
layerId = m007;
shapes = (
{
closed = 1;
nodes = (
(737,-16,o),
(795,48,o),
(817,135,c),
(758,143,l),
(744,95,o),
(717,37,o),
(617,37,cs),
(507,37,o),
(449,140,o),
(449,240,c),
(822,240,l),
(822,248,ls),
(822,428,o),
(728,516,o),
(608,516,cs),
(488,516,o),
(391,418,o),
(391,248,cs),
(391,78,o),
(497,-16,o),
(617,-16,cs)
);
},
{
closed = 1;
nodes = (
(160,37,o),
(113,78,o),
(113,135,cs),
(113,224,o),
(202,243,o),
(273,245,cs),
(322,247,o),
(401,251,o),
(401,339,c),
(391,299,l),
(391,233,ls),
(391,107,o),
(319,37,o),
(224,37,cs)
);
},
{
closed = 1;
nodes = (
(319,-16,o),
(421,53,o),
(421,210,c),
(446,331,l),
(446,471,o),
(373,516,o),
(263,516,cs),
(150,516,o),
(72,447,o),
(68,357,c),
(121,349,l),
(127,428,o),
(183,463,o),
(263,463,cs),
(337,463,o),
(382,436,o),
(389,380,cs),
(393,340,o),
(375,302,o),
(286,298,cs),
(176,293,o),
(55,262,o),
(55,135,cs),
(55,49,o),
(118,-16,o),
(214,-16,cs)
);
},
{
closed = 1;
nodes = (
(449,358,o),
(488,463,o),
(608,463,cs),
(728,463,o),
(764,358,o),
(764,288,c),
(449,288,l)
);
}
);
width = 872;
},
{
layerId = m004;
shapes = (
{
closed = 1;
nodes = (
(672,-16,o),
(756,46,o),
(795,144,c),
(719,154,l),
(701,114,o),
(666,57,o),
(576,57,cs),
(476,57,o),
(424,140,o),
(442,230,c),
(815,230,l),
(821,265,ls),
(850,433,o),
(752,516,o),
(632,516,cs),
(512,516,o),
(403,432,o),
(370,265,cs),
(340,108,o),
(432,-16,o),
(562,-16,cs)
);
},
{
closed = 1;
nodes = (
(112,57,o),
(78,93,o),
(90,152,cs),
(105,231,o),
(186,233,o),
(256,235,cs),
(316,237,o),
(377,254,o),
(391,323,c),
(379,313,l),
(365,243,ls),
(341,125,o),
(262,57,o),
(172,57,cs)
);
},
{
closed = 1;
nodes = (
(268,-16,o),
(370,62,o),
(393,180,c),
(456,323,l),
(479,441,o),
(410,516,o),
(280,516,cs),
(160,516,o),
(82,446,o),
(63,348,c),
(134,338,l),
(147,407,o),
(196,443,o),
(276,443,cs),
(356,443,o),
(387,412,o),
(389,372,cs),
(391,332,o),
(366,306,o),
(276,303,cs),
(146,299,o),
(36,280,o),
(11,152,cs),
(-6,64,o),
(58,-16,o),
(158,-16,cs)
);
},
{
closed = 1;
nodes = (
(468,367,o),
(522,443,o),
(622,443,cs),
(712,443,o),
(769,396,o),
(750,298,c),
(455,298,l)
);
}
);
width = 884;
},
{
layerId = m008;
shapes = (
{
closed = 1;
nodes = (
(706,-16,o),
(807,58,o),
(838,147,c),
(703,157,l),
(687,129,o),
(658,97,o),
(588,97,cs),
(523,97,o),
(474,140,o),
(488,210,c),
(850,210,l),
(857,248,ls),
(886,405,o),
(770,516,o),
(640,516,cs),
(490,516,o),
(389,415,o),
(360,268,cs),
(326,91,o),
(446,-16,o),
(586,-16,cs)
);
},
{
closed = 1;
nodes = (
(150,97,o),
(133,120,o),
(139,150,cs),
(145,179,o),
(171,198,o),
(231,205,cs),
(313,215,o),
(370,218,o),
(394,338,c),
(370,318,l),
(355,243,ls),
(334,140,o),
(270,97,o),
(200,97,cs)
);
},
{
closed = 1;
nodes = (
(288,-16,o),
(402,65,o),
(443,240,c),
(499,291,l),
(527,438,o),
(450,516,o),
(310,516,cs),
(180,516,o),
(75,460,o),
(51,332,c),
(183,322,l),
(194,382,o),
(238,403,o),
(298,403,cs),
(348,403,o),
(374,385,o),
(375,357,cs),
(377,318,o),
(340,301,o),
(280,298,cs),
(159,291,o),
(24,270,o),
(1,150,cs),
(-22,29,o),
(68,-16,o),
(158,-16,cs)
);
},
{
closed = 1;
nodes = (
(518,367,o),
(578,403,o),
(628,403,cs),
(698,403,o),
(741,367,o),
(730,308,c),
(507,308,l)
);
}
);
width = 913;
},
{
layerId = m006;
shapes = (
{
closed = 1;
nodes = (
(676,-16,o),
(738,53,o),
(775,135,c),
(718,145,l),
(691,91,o),
(656,37,o),
(566,37,cs),
(456,37,o),
(411,152,o),
(428,240,c),
(801,240,l),
(802,248,ls),
(824,427,o),
(730,516,o),
(620,516,cs),
(500,516,o),
(404,415,o),
(375,268,cs),
(346,121,o),
(426,-16,o),
(566,-16,cs)
);
},
{
closed = 1;
nodes = (
(103,37,o),
(60,76,o),
(71,135,cs),
(86,213,o),
(163,242,o),
(253,245,cs),
(313,247,o),
(385,260,o),
(400,339,c),
(381,299,l),
(368,233,ls),
(343,107,o),
(263,37,o),
(163,37,cs)
);
},
{
closed = 1;
nodes = (
(273,-16,o),
(365,63,o),
(388,180,c),
(444,339,l),
(467,457,o),
(395,516,o),
(285,516,cs),
(165,516,o),
(90,444,o),
(69,357,c),
(121,347,l),
(139,415,o),
(195,463,o),
(285,463,cs),
(345,463,o),
(395,430,o),
(395,380,cs),
(395,340,o),
(366,302,o),
(276,298,cs),
(136,292,o),
(36,253,o),
(13,135,cs),
(-2,56,o),
(63,-16,o),
(153,-16,cs)
);
},
{
closed = 1;
nodes = (
(456,386,o),
(530,463,o),
(620,463,cs),
(720,463,o),
(767,367,o),
(752,288,c),
(437,288,l)
);
}
);
width = 873;
}
);
metricLeft = a;
metricRight = e;
unicode = 230;
},
{
glyphname = b;
kernLeft = l;
kernRight = o;
lastChange = "2022-08-02 18:54:58 +0000";
layers = (
{
layerId = m01;
shapes = (
{
closed = 1;
nodes = (
(150,0,l),
(150,700,l),
(75,700,l),
(75,0,l)
);
},
{
closed = 1;
nodes = (
(454,-16,o),
(536,110,o),
(536,250,cs),
(536,390,o),
(454,516,o),
(314,516,cs),
(204,516,o),
(145,430,o),
(145,330,cs),
(145,170,ls),
(145,70,o),
(204,-16,o),
(314,-16,cs)
);
},
{
closed = 1;
nodes = (
(224,57,o),
(150,120,o),
(150,250,cs),
(150,380,o),
(224,443,o),
(304,443,cs),
(384,443,o),
(458,380,o),
(458,250,cs),
(458,120,o),
(384,57,o),
(304,57,cs)
);
}
);
width = 581;
},
{
layerId = m005;
shapes = (
{
closed = 1;
nodes = (
(200,0,l),
(200,700,l),
(65,700,l),
(65,0,l)
);
},
{
closed = 1;
nodes = (
(514,-16,o),
(586,102,o),
(586,250,cs),
(586,398,o),
(514,516,o),
(364,516,cs),
(224,516,o),
(185,400,o),
(185,290,cs),
(185,210,ls),
(185,100,o),
(224,-16,o),
(364,-16,cs)
);
},
{
closed = 1;
nodes = (
(264,97,o),
(200,140,o),
(200,250,cs),
(200,360,o),
(264,403,o),
(324,403,cs),
(384,403,o),
(448,360,o),
(448,250,cs),
(448,140,o),
(384,97,o),
(324,97,cs)
);
}
);
width = 621;
},
{
layerId = m007;
shapes = (
{
closed = 1;
nodes = (
(135,0,l),
(135,700,l),
(80,700,l),
(80,0,l)
);
},
{
closed = 1;
nodes = (
(439,-16,o),
(521,110,o),
(521,250,cs),
(521,390,o),
(439,516,o),
(309,516,cs),
(209,516,o),
(125,430,o),
(125,330,cs),
(125,170,ls),
(125,70,o),
(209,-16,o),
(309,-16,cs)
);
},
{
closed = 1;
nodes = (
(219,37,o),
(135,110,o),
(135,250,cs),
(135,390,o),
(219,463,o),
(299,463,cs),
(389,463,o),
(463,385,o),
(463,250,cs),
(463,115,o),
(389,37,o),
(299,37,cs)
);
}
);
width = 571;
},
{
layerId = m004;
shapes = (
{
closed = 1;
nodes = (
(81,0,l),
(217,700,l),
(142,700,l),
(6,0,l)
);
},
{
closed = 1;
nodes = (
(363,-16,o),
(480,78,o),
(513,245,cs),
(543,402,o),
(460,516,o),
(350,516,cs),
(250,516,o),
(161,448,o),
(139,330,cs),
(108,170,ls),
(88,72,o),
(153,-16,o),
(263,-16,cs)
);
},
{
closed = 1;
nodes = (
(173,57,o),
(107,132,o),
(130,250,cs),
(153,368,o),
(240,443,o),
(320,443,cs),
(410,443,o),
(457,363,o),
(434,245,cs),
(413,137,o),
(333,57,o),
(253,57,cs)
);
}
);
width = 579;
},
{
layerId = m008;
shapes = (
{
closed = 1;
nodes = (
(131,0,l),
(267,700,l),
(132,700,l),
(-4,0,l)
);
},
{
closed = 1;
nodes = (
(432,-16,o),
(537,103,o),
(566,250,cs),
(594,397,o),
(525,516,o),
(395,516,cs),
(255,516,o),
(194,408,o),
(172,290,cs),
(157,210,ls),
(135,92,o),
(162,-16,o),
(302,-16,cs)
);
},
{
closed = 1;
nodes = (
(214,97,o),
(158,140,o),
(180,250,cs),
(201,360,o),
(273,403,o),
(333,403,cs),
(393,403,o),
(449,360,o),
(428,250,cs),
(406,140,o),
(334,97,o),
(274,97,cs)
);
}
);
width = 621;
},
{
layerId = m006;
shapes = (
{
closed = 1;
nodes = (
(66,0,l),
(202,700,l),
(147,700,l),
(11,0,l)
);
},
{
closed = 1;
nodes = (
(367,-16,o),
(470,93,o),
(501,250,cs),
(525,378,o),
(460,516,o),
(330,516,cs),
(210,516,o),
(139,428,o),
(120,330,cs),
(89,170,ls),
(70,72,o),
(137,-16,o),
(237,-16,cs)
);
},
{
closed = 1;
nodes = (
(147,37,o),
(87,110,o),
(115,250,cs),
(142,390,o),
(230,463,o),
(320,463,cs),
(410,463,o),
(469,388,o),
(443,250,cs),
(416,113,o),
(327,37,o),
(237,37,cs)
);
}
);
width = 571;
}
);
metricLeft = l;
metricRight = o;
unicode = 98;
},
{
glyphname = c;
kernLeft = o;
kernRight = o;
lastChange = "2022-08-02 18:54:58 +0000";
layers = (
{
layerId = m01;
shapes = (
{
closed = 1;
nodes = (
(401,-16,o),
(491,67,o),
(501,187,c),
(423,197,l),
(418,117,o),
(371,57,o),
(281,57,cs),
(171,57,o),
(123,148,o),
(123,248,cs),
(123,348,o),
(171,443,o),
(281,443,cs),
(371,443,o),
(418,377,o),
(423,297,c),
(501,307,l),
(491,427,o),
(401,516,o),
(281,516,cs),
(161,516,o),
(45,428,o),
(45,248,cs),
(45,68,o),
(161,-16,o),
(281,-16,cs)
);
}
);
width = 546;
},
{
layerId = m005;
shapes = (
{
closed = 1;
nodes = (
(418,-16,o),
(527,34,o),
(543,193,c),
(397,203,l),
(382,118,o),
(346,97,o),
(296,97,cs),
(222,97,o),
(183,147,o),
(183,248,cs),
(183,341,o),
(224,403,o),
(296,403,cs),
(354,403,o),
(382,375,o),
(397,291,c),
(543,301,l),
(526,460,o),
(419,516,o),
(296,516,cs),
(163,516,o),
(35,431,o),
(35,247,cs),
(35,64,o),
(163,-16,o),
(296,-16,cs)
);
}
);
width = 578;
},
{
layerId = m007;
shapes = (
{
closed = 1;
nodes = (
(396,-16,o),
(472,69,o),
(485,188,c),
(427,196,l),
(418,106,o),
(376,37,o),
(276,37,cs),
(156,37,o),
(108,144,o),
(108,248,cs),
(108,351,o),
(156,463,o),
(276,463,cs),
(376,463,o),
(418,388,o),
(427,298,c),
(485,306,l),
(472,425,o),
(396,516,o),
(276,516,cs),
(156,516,o),
(50,428,o),
(50,248,cs),
(50,68,o),
(156,-16,o),
(276,-16,cs)
);
}
);
width = 535;
},
{
layerId = m004;
shapes = (
{
closed = 1;
nodes = (
(338,-16,o),
(427,42,o),
(467,187,c),
(391,197,l),
(369,110,o),
(318,57,o),
(228,57,cs),
(138,57,o),
(80,134,o),
(107,271,cs),
(128,379,o),
(207,443,o),
(297,443,cs),
(377,443,o),
(421,377,o),
(411,297,c),
(491,307,l),
(501,396,o),
(437,516,o),
(297,516,cs),
(187,516,o),
(61,438,o),
(29,271,cs),
(-3,104,o),
(88,-16,o),
(228,-16,cs)
);
}
);
width = 545;
},
{
layerId = m008;
shapes = (
{
closed = 1;
nodes = (
(354,-16,o),
(469,49,o),
(511,193,c),
(367,203,l),
(343,137,o),
(306,97,o),
(246,97,cs),
(176,97,o),
(143,147,o),
(164,258,cs),
(180,341,o),
(235,403,o),
(305,403,cs),
(375,403,o),
(386,361,o),
(385,291,c),
(532,301,l),
(543,430,o),
(457,516,o),
(307,516,cs),
(177,516,o),
(50,431,o),
(20,277,cs),
(-15,100,o),
(104,-16,o),
(244,-16,cs)
);
}
);
width = 577;
},
{
layerId = m006;
shapes = (
{
closed = 1;
nodes = (
(325,-16,o),
(417,69,o),
(454,188,c),
(397,196,l),
(375,119,o),
(315,37,o),
(215,37,cs),
(105,37,o),
(67,140,o),
(92,268,cs),
(109,356,o),
(178,463,o),
(298,463,cs),
(398,463,o),
(425,388,o),
(417,298,c),
(476,306,l),
(486,416,o),
(428,516,o),
(298,516,cs),
(178,516,o),
(64,425,o),
(34,268,cs),
(0,91,o),
(85,-16,o),
(215,-16,cs)
);
}
);
width = 536;
}
);
metricLeft = o;
metricRight = o;
unicode = 99;
},
{
glyphname = d;
kernLeft = o;
kernRight = l;
lastChange = "2022-08-02 18:54:58 +0000";
layers = (
{
layerId = m01;
shapes = (
{
closed = 1;
nodes = (
(506,0,l),
(506,700,l),
(431,700,l),
(431,0,l)
);
},
{
closed = 1;
nodes = (
(377,-16,o),
(436,70,o),
(436,170,c),
(436,330,l),
(436,430,o),
(377,516,o),
(267,516,cs),
(127,516,o),
(45,390,o),
(45,250,cs),
(45,110,o),
(127,-16,o),
(267,-16,cs)
);
},
{
closed = 1;
nodes = (
(197,57,o),
(123,120,o),
(123,250,cs),
(123,380,o),
(197,443,o),
(277,443,cs),
(357,443,o),
(431,380,o),
(431,250,cs),
(431,120,o),
(357,57,o),
(277,57,cs)
);
}
);
width = 581;
},
{
layerId = m005;
shapes = (
{
closed = 1;
nodes = (
(556,0,l),
(556,700,l),
(421,700,l),
(421,0,l)
);
},
{
closed = 1;
nodes = (
(397,-16,o),
(436,100,o),
(436,210,c),
(436,290,l),
(436,400,o),
(397,516,o),
(257,516,cs),
(107,516,o),
(35,398,o),
(35,250,cs),
(35,102,o),
(107,-16,o),
(257,-16,cs)
);
},
{
closed = 1;
nodes = (
(237,97,o),
(173,140,o),
(173,250,cs),
(173,360,o),
(237,403,o),
(297,403,cs),
(357,403,o),
(421,360,o),
(421,250,cs),
(421,140,o),
(357,97,o),
(297,97,cs)
);
}
);
width = 621;
},
{
layerId = m007;
shapes = (
{
closed = 1;
nodes = (
(491,0,l),
(491,700,l),
(436,700,l),
(436,0,l)
);
},
{
closed = 1;
nodes = (
(362,-16,o),
(446,70,o),
(446,170,cs),
(446,330,ls),
(446,430,o),
(362,516,o),
(262,516,cs),
(132,516,o),
(50,390,o),
(50,250,cs),
(50,110,o),
(132,-16,o),
(262,-16,cs)
);
},
{
closed = 1;
nodes = (
(182,37,o),
(108,115,o),
(108,250,cs),
(108,385,o),
(182,463,o),
(272,463,cs),
(352,463,o),
(436,390,o),
(436,250,cs),
(436,110,o),
(352,37,o),
(272,37,cs)
);
}
);
width = 571;
},
{
layerId = m004;
shapes = (
{
closed = 1;
nodes = (
(436,0,l),
(572,700,l),
(497,700,l),
(361,0,l)
);
},
{
closed = 1;
nodes = (
(289,-16,o),
(378,52,o),
(400,170,c),
(431,330,l),
(451,428,o),
(386,516,o),
(276,516,cs),
(176,516,o),
(59,422,o),
(26,255,cs),
(-4,98,o),
(79,-16,o),
(189,-16,cs)
);
},
{
closed = 1;
nodes = (
(129,57,o),
(82,136,o),
(105,255,cs),
(126,362,o),
(206,443,o),
(286,443,cs),
(366,443,o),
(432,368,o),
(409,250,cs),
(386,132,o),
(299,57,o),
(219,57,cs)
);
}
);
width = 580;
},
{
layerId = m008;
shapes = (
{
closed = 1;
nodes = (
(488,0,l),
(624,700,l),
(489,700,l),
(353,0,l)
);
},
{
closed = 1;
nodes = (
(326,-16,o),
(387,92,o),
(409,210,cs),
(424,290,ls),
(446,408,o),
(419,516,o),
(279,516,cs),
(149,516,o),
(44,397,o),
(15,250,cs),
(-13,103,o),
(56,-16,o),
(186,-16,cs)
);
},
{
closed = 1;
nodes = (
(188,97,o),
(132,140,o),
(153,250,cs),
(175,360,o),
(247,403,o),
(307,403,cs),
(367,403,o),
(423,360,o),
(401,250,cs),
(380,140,o),
(308,97,o),
(248,97,cs)
);
}
);
width = 622;
},
{
layerId = m006;
shapes = (
{
closed = 1;
nodes = (
(423,0,l),
(559,700,l),
(504,700,l),
(368,0,l)
);
},
{
closed = 1;
nodes = (
(321,-16,o),
(392,72,o),
(411,170,cs),
(442,330,ls),
(461,428,o),
(394,516,o),
(294,516,cs),
(164,516,o),
(61,407,o),
(30,250,cs),
(6,122,o),
(71,-16,o),
(201,-16,cs)
);
},
{
closed = 1;
nodes = (
(121,37,o),
(62,112,o),
(88,250,cs),
(115,387,o),
(204,463,o),
(294,463,cs),
(384,463,o),
(444,390,o),
(416,250,cs),
(389,110,o),
(301,37,o),
(211,37,cs)
);
}
);
width = 572;
}
);
metricLeft = o;
metricRight = l;
unicode = 100;
},
{
glyphname = eth;
kernLeft = o;
kernRight = O;
lastChange = "2022-08-03 06:57:14 +0000";
layers = (
{
layerId = m01;
shapes = (
{
closed = 1;
nodes = (
(456,-16,o),
(529,126,o),
(529,276,cs),
(529,576,o),
(366,716,o),
(166,716,c),
(166,648,l),
(316,648,o),
(459,540,o),
(459,280,c),
(474,270,l),
(474,380,o),
(400,465,o),
(286,465,cs),
(153,465,o),
(45,357,o),
(45,224,cs),
(45,92,o),
(153,-16,o),
(286,-16,cs)
);
},
{
closed = 1;
nodes = (
(194,57,o),
(123,134,o),
(123,226,cs),
(123,318,o),
(194,392,o),
(286,392,cs),
(378,392,o),
(452,318,o),
(452,226,cs),
(452,134,o),
(378,57,o),
(286,57,cs)
);
},
{
closed = 1;
nodes = (
(500,650,l),
(477,695,l),
(169,550,l),
(192,505,l)
);
}
);
width = 589;
},
{
layerId = m005;
shapes = (
{
closed = 1;
nodes = (
(451,-15,o),
(561,80,o),
(561,280,cs),
(561,600,o),
(368,715,o),
(168,715,c),
(168,605,l),
(327,605,o),
(447,529,o),
(447,329,c),
(468,287,l),
(468,407,o),
(391,465,o),
(291,465,cs),
(146,465,o),
(35,366,o),
(35,224,cs),
(35,77,o),
(151,-17,o),
(301,-16,cs)
);
},
{
closed = 1;
nodes = (
(229,97,o),
(183,148,o),
(183,226,cs),
(183,304,o),
(228,352,o),
(301,352,cs),
(374,352,o),
(422,304,o),
(422,226,cs),
(422,148,o),
(374,97,o),
(301,97,cs)
);
},
{
closed = 1;
nodes = (
(531,631,l),
(505,685,l),
(188,537,l),
(214,483,l)
);
}
);
width = 611;
},
{
layerId = m007;
shapes = (
{
closed = 1;
nodes = (
(441,-16,o),
(514,128,o),
(514,256,cs),
(514,546,o),
(371,706,o),
(171,706,c),
(171,658,l),
(331,658,o),
(464,515,o),
(464,285,c),
(468,289,l),
(468,389,o),
(384,454,o),
(281,454,cs),
(151,454,o),
(50,350,o),
(50,220,cs),
(50,90,o),
(151,-16,o),
(281,-16,cs)
);
},
{
closed = 1;
nodes = (
(181,37,o),
(108,120,o),
(108,220,cs),
(108,320,o),
(181,401,o),
(281,401,cs),
(381,401,o),
(457,320,o),
(457,220,cs),
(457,120,o),
(381,37,o),
(281,37,cs)
);
},
{
closed = 1;
nodes = (
(493,645,l),
(475,681,l),
(176,541,l),
(194,505,l)
);
}
);
width = 579;
},
{
layerId = m004;
shapes = (
{
closed = 1;
nodes = (
(378,-16,o),
(477,90,o),
(514,276,cs),
(569,561,o),
(436,716,o),
(236,716,c),
(223,648,l),
(403,648,o),
(492,525,o),
(444,280,c),
(457,270,l),
(479,380,o),
(417,465,o),
(293,465,cs),
(170,465,o),
(48,371,o),
(20,224,cs),
(-3,106,o),
(78,-16,o),
(228,-16,cs)
);
},
{
closed = 1;
nodes = (
(138,57,o),
(80,134,o),
(98,226,cs),
(116,318,o),
(183,392,o),
(293,392,cs),
(383,392,o),
(445,318,o),
(427,226,cs),
(409,134,o),
(338,57,o),
(228,57,cs)
);
},
{
closed = 1;
nodes = (
(557,650,l),
(543,695,l),
(207,550,l),
(221,505,l)
);
}
);
width = 588;
},
{
layerId = m008;
shapes = (
{
closed = 1;
nodes = (
(381,-15,o),
(507,74,o),
(546,280,cs),
(609,600,o),
(438,715,o),
(238,715,c),
(217,605,l),
(387,605,o),
(481,529,o),
(442,329,c),
(462,276,l),
(475,385,o),
(395,465,o),
(285,465,cs),
(150,465,o),
(37,366,o),
(12,234,cs),
(-13,106,o),
(81,-17,o),
(241,-16,cs)
);
},
{
closed = 1;
nodes = (
(179,98,o),
(135,156,o),
(149,226,cs),
(162,295,o),
(213,351,o),
(295,351,cs),
(363,351,o),
(410,295,o),
(396,226,cs),
(383,156,o),
(329,98,o),
(247,98,cs)
);
},
{
closed = 1;
nodes = (
(585,631,l),
(569,685,l),
(223,537,l),
(239,483,l)
);
}
);
width = 610;
},
{
layerId = m006;
shapes = (
{
closed = 1;
nodes = (
(370,-16,o),
(467,109,o),
(496,256,cs),
(557,570,o),
(420,706,o),
(240,706,c),
(231,658,l),
(401,658,o),
(499,530,o),
(451,285,c),
(456,289,l),
(474,377,o),
(404,454,o),
(291,454,cs),
(161,454,o),
(51,357,o),
(26,230,cs),
(1,102,o),
(80,-16,o),
(220,-16,cs)
);
},
{
closed = 1;
nodes = (
(130,37,o),
(61,112,o),
(84,230,cs),
(102,318,o),
(181,401,o),
(291,401,cs),
(381,401,o),
(453,328,o),
(432,220,cs),
(412,122,o),
(330,37,o),
(220,37,cs)
);
},
{
closed = 1;
nodes = (
(550,645,l),
(539,681,l),
(213,541,l),
(224,505,l)
);
}
);
width = 579;
}
);
metricLeft = d;
unicode = 240;
},
{
glyphname = dcroat;
kernLeft = o;
kernRight = l;
lastChange = "2022-08-04 16:00:20 +0000";
layers = (
{
layerId = m01;
shapes = (
{
closed = 1;
nodes = (
(604,573,l),
(604,627,l),
(244,627,l),
(244,573,l)
);
},
{
ref = d;
}
);
width = 589;
},
{
layerId = m005;
shapes = (
{
closed = 1;
nodes = (
(651,568,l),
(651,630,l),
(263,630,l),
(263,568,l)
);
},
{
ref = d;
}
);
width = 626;
},
{
layerId = m007;
shapes = (
{
closed = 1;
nodes = (
(594,583,l),
(594,617,l),
(254,617,l),
(254,583,l)
);
},
{
ref = d;
}
);
width = 584;
},
{
layerId = m004;
shapes = (
{
closed = 1;
nodes = (
(647,573,l),
(658,627,l),
(298,627,l),
(287,573,l)
);
},
{
ref = d;
}
);
width = 590;
},
{
layerId = m008;
shapes = (
{
closed = 1;
nodes = (
(693,568,l),
(705,630,l),
(317,630,l),
(305,568,l)
);
},
{
ref = d;
}
);
width = 626;
},
{
layerId = m006;
shapes = (
{
closed = 1;
nodes = (
(639,583,l),
(646,617,l),
(306,617,l),
(299,583,l)
);
},
{
ref = d;
}
);
width = 585;
}
);
metricLeft = d;
metricRight = "=l-90";
unicode = 273;
},
{
glyphname = e;
kernLeft = o;
kernRight = o;
lastChange = "2022-08-11 18:51:50 +0000";
layers = (
{
layerId = m01;
shapes = (
{
closed = 1;
nodes = (
(401,-16,o),
(473,46,o),
(493,144,c),
(415,154,l),
(405,114,o),
(381,57,o),
(281,57,cs),
(181,57,o),
(123,140,o),
(123,230,c),
(496,230,l),
(496,248,ls),
(496,428,o),
(392,516,o),
(272,516,cs),
(152,516,o),
(45,428,o),
(45,248,cs),
(45,68,o),
(161,-16,o),
(281,-16,cs)
);
},
{
closed = 1;
nodes = (
(123,358,o),
(162,443,o),
(272,443,cs),
(382,443,o),
(418,358,o),
(418,298,c),
(123,298,l)
);
}
);
width = 541;
},
{
layerId = m005;
shapes = (
{
closed = 1;
nodes = (
(436,-16,o),
(523,58,o),
(536,147,c),
(400,157,l),
(389,129,o),
(366,97,o),
(296,97,cs),
(231,97,o),
(174,140,o),
(174,210,c),
(536,210,l),
(536,248,ls),
(536,418,o),
(427,516,o),
(287,516,cs),
(147,516,o),
(35,418,o),
(35,248,cs),
(35,78,o),
(156,-16,o),
(296,-16,cs)
);
},
{
closed = 1;
nodes = (
(174,368,o),
(227,403,o),
(287,403,cs),
(347,403,o),
(397,368,o),
(397,308,c),
(174,308,l)
);
}
);
width = 571;
},
{
layerId = m007;
shapes = (
{
closed = 1;
nodes = (
(396,-16,o),
(454,48,o),
(476,135,c),
(417,143,l),
(403,95,o),
(376,37,o),
(276,37,cs),
(166,37,o),
(108,140,o),
(108,240,c),
(481,240,l),
(481,248,ls),
(481,428,o),
(387,516,o),
(267,516,cs),
(147,516,o),
(50,418,o),
(50,248,cs),
(50,78,o),
(156,-16,o),
(276,-16,cs)
);
},
{
closed = 1;
nodes = (
(108,358,o),
(147,463,o),
(267,463,cs),
(387,463,o),
(423,358,o),
(423,288,c),
(108,288,l)
);
}
);
width = 531;
},
{
layerId = m004;
shapes = (
{
closed = 1;
nodes = (
(330,-16,o),
(414,46,o),
(453,144,c),
(377,154,l),
(359,114,o),
(324,57,o),
(234,57,cs),
(144,57,o),
(82,142,o),
(100,230,c),
(473,230,l),
(479,265,ls),
(506,423,o),
(400,516,o),
(290,516,cs),
(160,516,o),
(61,432,o),
(28,265,cs),
(-2,108,o),
(90,-16,o),
(230,-16,cs)
);
},
{
closed = 1;
nodes = (
(130,386,o),
(190,443,o),
(280,443,cs),
(370,443,o),
(425,386,o),
(408,298,c),
(113,298,l)
);
}
);
width = 542;
},
{
layerId = m008;
shapes = (
{
closed = 1;
nodes = (
(364,-16,o),
(465,58,o),
(496,147,c),
(361,157,l),
(345,129,o),
(316,97,o),
(246,97,cs),
(181,97,o),
(132,140,o),
(146,210,c),
(508,210,l),
(515,248,ls),
(542,396,o),
(438,516,o),
(298,516,cs),
(158,516,o),
(47,415,o),
(20,278,cs),
(-16,91,o),
(104,-16,o),
(244,-16,cs)
);
},
{
closed = 1;
nodes = (
(176,367,o),
(236,403,o),
(286,403,cs),
(356,403,o),
(399,367,o),
(388,308,c),
(165,308,l)
);
}
);
width = 571;
},
{
layerId = m006;
shapes = (
{
closed = 1;
nodes = (
(335,-16,o),
(397,53,o),
(434,135,c),
(377,145,l),
(350,91,o),
(315,37,o),
(225,37,cs),
(115,37,o),
(70,152,o),
(87,240,c),
(460,240,l),
(461,248,ls),
(483,427,o),
(389,516,o),
(279,516,cs),
(159,516,o),
(63,415,o),
(34,268,cs),
(5,121,o),
(85,-16,o),
(225,-16,cs)
);
},
{
closed = 1;
nodes = (
(115,386,o),
(189,463,o),
(279,463,cs),
(379,463,o),
(426,367,o),
(411,288,c),
(96,288,l)
);
}
);
width = 532;
}
);
metricLeft = o;
metricRight = o;
unicode = 101;
},
{
glyphname = f;
kernLeft = f;
kernRight = f;
lastChange = "2022-08-24 20:29:16 +0000";
layers = (
{
layerId = m01;
shapes = (
{
closed = 1;
nodes = (
(203,0,l),
(203,577,ls),
(203,617,o),
(223,637,o),
(263,637,cs),
(353,637,l),
(353,710,l),
(268,710,ls),
(178,710,o),
(128,660,o),
(128,570,cs),
(128,0,l)
);
},
{
closed = 1;
nodes = (
(353,427,l),
(353,500,l),
(20,500,l),
(20,427,l)
);
}
);
width = 373;
},
{
layerId = m005;
shapes = (
{
closed = 1;
nodes = (
(253,0,l),
(253,537,ls),
(253,577,o),
(273,597,o),
(313,597,cs),
(403,597,l),
(403,710,l),
(288,710,ls),
(178,710,o),
(118,660,o),
(118,550,cs),
(118,0,l)
);
},
{
closed = 1;
nodes = (
(403,387,l),
(403,500,l),
(10,500,l),
(10,387,l)
);
}
);
width = 413;
},
{
layerId = m007;
shapes = (
{
closed = 1;
nodes = (
(188,0,l),
(188,587,ls),
(188,632,o),
(213,657,o),
(258,657,cs),
(338,657,l),
(338,710,l),
(263,710,ls),
(177,710,o),
(133,666,o),
(133,580,cs),
(133,0,l)
);
},
{
closed = 1;
nodes = (
(338,447,l),
(338,500,l),
(25,500,l),
(25,447,l)
);
}
);
width = 363;
},
{
layerId = m004;
shapes = (
{
closed = 1;
nodes = (
(135,0,l),
(247,577,ls),
(255,617,o),
(279,637,o),
(319,637,cs),
(409,637,l),
(423,710,l),
(338,710,ls),
(238,710,o),
(190,668,o),
(171,570,cs),
(60,0,l)
);
},
{
closed = 1;
nodes = (
(368,427,l),
(382,500,l),
(49,500,l),
(35,427,l)
);
}
);
width = 374;
},
{
layerId = m008;
shapes = (
{
closed = 1;
nodes = (
(185,0,l),
(289,537,ls),
(297,577,o),
(311,597,o),
(351,597,cs),
(451,597,l),
(473,710,l),
(338,710,ls),
(248,710,o),
(179,665,o),
(162,577,cs),
(50,0,l)
);
},
{
closed = 1;
nodes = (
(410,387,l),
(432,500,l),
(39,500,l),
(17,387,l)
);
}
);
width = 414;
},
{
layerId = m006;
shapes = (
{
closed = 1;
nodes = (
(120,0,l),
(234,587,ls),
(243,632,o),
(273,657,o),
(318,657,cs),
(398,657,l),
(408,710,l),
(333,710,ls),
(247,710,o),
(194,666,o),
(178,580,cs),
(65,0,l)
);
},
{
closed = 1;
nodes = (
(357,447,l),
(367,500,l),
(54,500,l),
(44,447,l)
);
}
);
width = 364;
}
);
unicode = 102;
},
{
glyphname = g;
kernLeft = o;
kernRight = g;
lastChange = "2022-08-02 18:54:58 +0000";
layers = (
{
layerId = m01;
shapes = (
{
closed = 1;
nodes = (
(417,-216,o),
(506,-141,o),
(506,19,cs),
(506,500,l),
(431,500,l),
(431,19,ls),
(431,-101,o),
(367,-143,o),
(277,-143,cs),
(177,-143,o),
(138,-76,o),
(138,-51,c),
(60,-61,l),
(60,-116,o),
(137,-216,o),
(277,-216,cs)
);
},
{
closed = 1;
nodes = (
(377,-16,o),
(436,70,o),
(436,170,c),
(436,330,l),
(436,430,o),
(377,516,o),
(267,516,cs),
(127,516,o),
(45,390,o),
(45,250,cs),
(45,110,o),
(127,-16,o),
(267,-16,cs)
);
},
{
closed = 1;
nodes = (
(197,57,o),
(123,120,o),
(123,250,cs),
(123,380,o),
(197,443,o),
(277,443,cs),
(357,443,o),
(431,380,o),
(431,250,cs),
(431,120,o),
(357,57,o),
(277,57,cs)
);
}
);
width = 581;
},
{
layerId = m005;
shapes = (
{
closed = 1;
nodes = (
(472,-216,o),
(556,-130,o),
(556,50,cs),
(556,500,l),
(421,500,l),
(421,20,ls),
(421,-90,o),
(342,-103,o),
(292,-103,cs),
(242,-103,o),
(208,-85,o),
(198,-45,c),
(50,-55,l),
(50,-113,o),
(122,-216,o),
(292,-216,cs)
);
},
{
closed = 1;
nodes = (
(397,-16,o),
(436,100,o),
(436,210,c),
(436,290,l),
(436,400,o),
(397,516,o),
(257,516,cs),
(107,516,o),
(35,398,o),
(35,250,cs),
(35,102,o),
(107,-16,o),
(257,-16,cs)
);
},
{
closed = 1;
nodes = (
(237,97,o),
(173,140,o),
(173,250,cs),
(173,360,o),
(237,403,o),
(297,403,cs),
(357,403,o),
(421,360,o),
(421,250,cs),
(421,140,o),
(357,97,o),
(297,97,cs)
);
}
);
width = 621;
},
{
layerId = m007;
shapes = (
{
closed = 1;
nodes = (
(408,-216,o),
(491,-146,o),
(491,9,cs),
(491,500,l),
(436,500,l),
(436,9,ls),
(436,-118,o),
(366,-163,o),
(272,-163,cs),
(177,-163,o),
(133,-96,o),
(125,-62,c),
(66,-70,l),
(73,-122,o),
(144,-216,o),
(272,-216,cs)
);
},
{
closed = 1;
nodes = (
(362,-16,o),
(446,70,o),
(446,170,cs),
(446,330,ls),
(446,430,o),
(362,516,o),
(262,516,cs),
(132,516,o),
(50,390,o),
(50,250,cs),
(50,110,o),
(132,-16,o),
(262,-16,cs)
);
},
{
closed = 1;
nodes = (
(182,37,o),
(108,115,o),
(108,250,cs),
(108,385,o),
(182,463,o),
(272,463,cs),
(352,463,o),
(436,390,o),
(436,250,cs),
(436,110,o),
(352,37,o),
(272,37,cs)
);
}
);
width = 571;
},
{
layerId = m004;
shapes = (
{
closed = 1;
nodes = (
(295,-216,o),
(406,-158,o),
(440,19,cs),
(533,500,l),
(458,500,l),
(365,19,ls),
(340,-109,o),
(259,-143,o),
(179,-143,cs),
(99,-143,o),
(58,-91,o),
(58,-51,c),
(-22,-61,l),
(-22,-121,o),
(45,-216,o),
(175,-216,cs)
);
},
{
closed = 1;
nodes = (
(289,-16,o),
(378,52,o),
(400,170,c),
(431,330,l),
(451,428,o),
(386,516,o),
(276,516,cs),
(176,516,o),
(59,422,o),
(26,255,cs),
(-4,98,o),
(79,-16,o),
(189,-16,cs)
);
},
{
closed = 1;
nodes = (
(129,57,o),
(82,136,o),
(105,255,cs),
(126,362,o),
(206,443,o),
(286,443,cs),
(366,443,o),
(432,368,o),
(409,250,cs),
(386,132,o),
(299,57,o),
(219,57,cs)
);
}
);
width = 580;
},
{
layerId = m008;
shapes = (
{
closed = 1;
nodes = (
(372,-216,o),
(462,-137,o),
(492,20,cs),
(585,500,l),
(450,500,l),
(357,20,ls),
(340,-68,o),
(294,-103,o),
(214,-103,cs),
(154,-103,o),
(121,-75,o),
(121,-45,c),
(-29,-55,l),
(-29,-115,o),
(32,-216,o),
(192,-216,cs)
);
},
{
closed = 1;
nodes = (
(326,-16,o),
(387,92,o),
(409,210,cs),
(424,290,ls),
(446,408,o),
(419,516,o),
(279,516,cs),
(149,516,o),
(44,397,o),
(15,250,cs),
(-13,103,o),
(56,-16,o),
(186,-16,cs)
);
},
{
closed = 1;
nodes = (
(188,97,o),
(132,140,o),
(153,250,cs),
(175,360,o),
(247,403,o),
(307,403,cs),
(367,403,o),
(423,360,o),
(401,250,cs),
(380,140,o),
(308,97,o),
(248,97,cs)
);
}
);
width = 622;
},
{
layerId = m006;
shapes = (
{
closed = 1;
nodes = (
(298,-216,o),
(395,-146,o),
(425,9,cs),
(520,500,l),
(465,500,l),
(370,9,ls),
(345,-118,o),
(266,-163,o),
(172,-163,cs),
(77,-163,o),
(46,-96,o),
(45,-62,c),
(-16,-70,l),
(-19,-122,o),
(34,-216,o),
(162,-216,cs)
);
},
{
closed = 1;
nodes = (
(321,-16,o),
(392,72,o),
(411,170,cs),
(442,330,ls),
(461,428,o),
(394,516,o),
(294,516,cs),
(164,516,o),
(61,407,o),
(30,250,cs),
(6,122,o),
(71,-16,o),
(201,-16,cs)
);
},
{
closed = 1;
nodes = (
(121,37,o),
(62,112,o),
(88,250,cs),
(115,387,o),
(204,463,o),
(294,463,cs),
(384,463,o),
(444,390,o),
(416,250,cs),
(389,110,o),
(301,37,o),
(211,37,cs)
);
}
);
width = 572;
}
);
metricLeft = o;
metricRight = l;
unicode = 103;
},
{
glyphname = h;
kernLeft = l;
kernRight = m;
lastChange = "2022-07-28 09:57:05 +0000";
layers = (
{
layerId = m01;
shapes = (
{
closed = 1;
nodes = (
(478,0,l),
(478,349,ls),
(478,459,o),
(415,516,o),
(325,516,cs),
(225,516,o),
(145,449,o),
(145,349,cs),
(150,243,l),
(150,393,o),
(220,443,o),
(300,443,cs),
(370,443,o),
(403,399,o),
(403,319,cs),
(403,0,l)
);
},
{
closed = 1;
nodes = (
(150,0,l),
(150,700,l),
(75,700,l),
(75,0,l)
);
}
);
width = 548;
},
{
layerId = m005;
shapes = (
{
closed = 1;
nodes = (
(528,0,l),
(528,319,ls),
(528,459,o),
(462,516,o),
(372,516,cs),
(242,516,o),
(184,413,o),
(184,293,c),
(200,243,l),
(200,354,o),
(251,403,o),
(311,403,cs),
(351,403,o),
(393,393,o),
(393,303,cs),
(393,0,l)
);
},
{
closed = 1;
nodes = (
(200,0,l),
(200,700,l),
(65,700,l),
(65,0,l)
);
}
);
width = 588;
},
{
layerId = m007;
shapes = (
{
closed = 1;
nodes = (
(463,0,l),
(463,339,ls),
(463,459,o),
(400,516,o),
(310,516,cs),
(210,516,o),
(125,449,o),
(125,319,c),
(135,243,l),
(135,403,o),
(210,463,o),
(295,463,cs),
(375,463,o),
(408,409,o),
(408,309,cs),
(408,0,l)
);
},
{
closed = 1;
nodes = (
(135,0,l),
(135,700,l),
(80,700,l),
(80,0,l)
);
}
);
width = 538;
},
{
layerId = m004;
shapes = (
{
closed = 1;
nodes = (
(409,0,l),
(471,318,ls),
(498,455,o),
(436,516,o),
(346,516,cs),
(246,516,o),
(156,428,o),
(144,349,cs),
(128,243,l),
(157,390,o),
(247,443,o),
(317,443,cs),
(377,443,o),
(411,398,o),
(392,300,cs),
(334,0,l)
);
},
{
closed = 1;
nodes = (
(81,0,l),
(217,700,l),
(142,700,l),
(6,0,l)
);
}
);
width = 548;
},
{
layerId = m008;
shapes = (
{
closed = 1;
nodes = (
(459,0,l),
(521,319,ls),
(544,437,o),
(493,516,o),
(383,516,cs),
(273,516,o),
(195,411,o),
(172,293,c),
(178,243,l),
(200,354,o),
(260,403,o),
(320,403,cs),
(360,403,o),
(396,372,o),
(383,303,cs),
(324,0,l)
);
},
{
closed = 1;
nodes = (
(131,0,l),
(267,700,l),
(132,700,l),
(-4,0,l)
);
}
);
width = 587;
},
{
layerId = m006;
shapes = (
{
closed = 1;
nodes = (
(394,0,l),
(460,339,ls),
(483,459,o),
(431,516,o),
(341,516,cs),
(241,516,o),
(143,449,o),
(118,319,c),
(113,243,l),
(144,403,o),
(231,463,o),
(316,463,cs),
(396,463,o),
(418,409,o),
(399,309,cs),
(339,0,l)
);
},
{
closed = 1;
nodes = (
(66,0,l),
(202,700,l),
(147,700,l),
(11,0,l)
);
}
);
width = 538;
}
);
metricLeft = m;
metricRight = m;
unicode = 104;
},
{
glyphname = hbar;
kernLeft = l;
kernRight = m;
lastChange = "2022-08-04 15:59:22 +0000";
layers = (
{
layerId = m01;
shapes = (
{
closed = 1;
nodes = (
(345,573,l),
(345,627,l),
(-15,627,l),
(-15,573,l)
);
},
{
pos = (5,0);
ref = h;
}
);
width = 553;
},
{
layerId = m005;
shapes = (
{
closed = 1;
nodes = (
(363,568,l),
(363,630,l),
(-25,630,l),
(-25,568,l)
);
},
{
pos = (5,0);
ref = h;
}
);
width = 593;
},
{
layerId = m007;
shapes = (
{
closed = 1;
nodes = (
(330,583,l),
(330,617,l),
(-10,617,l),
(-10,583,l)
);
},
{
ref = h;
}
);
width = 538;
},
{
layerId = m004;
shapes = (
{
closed = 1;
nodes = (
(388,573,l),
(399,627,l),
(39,627,l),
(28,573,l)
);
},
{
pos = (5,0);
ref = h;
}
);
width = 553;
},
{
layerId = m008;
shapes = (
{
closed = 1;
nodes = (
(405,568,l),
(417,630,l),
(29,630,l),
(17,568,l)
);
},
{
pos = (5,0);
ref = h;
}
);
width = 592;
},
{
layerId = m006;
shapes = (
{
closed = 1;
nodes = (
(375,583,l),
(382,617,l),
(42,617,l),
(35,583,l)
);
},
{
ref = h;
}
);
width = 538;
}
);
metricLeft = "=h-90";
metricRight = h;
unicode = 295;
},
{
glyphname = idotless;
kernLeft = i;
kernRight = i;
lastChange = "2022-07-23 20:25:53 +0000";
layers = (
{
layerId = m01;
shapes = (
{
closed = 1;
nodes = (
(150,0,l),
(150,500,l),
(75,500,l),
(75,0,l)
);
}
);
width = 225;
},
{
layerId = m005;
shapes = (
{
closed = 1;
nodes = (
(200,0,l),
(200,500,l),
(65,500,l),
(65,0,l)
);
}
);
width = 265;
},
{
layerId = m007;
shapes = (
{
closed = 1;
nodes = (
(135,0,l),
(135,500,l),
(80,500,l),
(80,0,l)
);
}
);
width = 215;
},
{
layerId = m004;
shapes = (
{
closed = 1;
nodes = (
(82,0,l),
(179,500,l),
(104,500,l),
(7,0,l)
);
}
);
width = 226;
},
{
layerId = m008;
shapes = (
{
closed = 1;
nodes = (
(132,0,l),
(229,500,l),
(94,500,l),
(-3,0,l)
);
}
);
width = 266;
},
{
layerId = m006;
shapes = (
{
closed = 1;
nodes = (
(67,0,l),
(164,500,l),
(109,500,l),
(12,0,l)
);
}
);
width = 216;
}
);
metricLeft = l;
metricRight = l;
unicode = 305;
},
{
glyphname = ibreve;
kernLeft = i;
kernRight = i;
lastChange = "2022-08-02 18:34:38 +0000";
layers = (
{
layerId = m01;
shapes = (
{
closed = 1;
nodes = (
(168,580,o),
(205,646,o),
(205,730,c),
(141,730,l),
(140,672,o),
(122,644,o),
(85,644,cs),
(48,644,o),
(30,672,o),
(29,730,c),
(-35,730,l),
(-35,646,o),
(1,580,o),
(85,580,cs)
);
},
{
pos = (-27,0);
ref = idotless;
}
);
width = 170;
},
{
layerId = m005;
shapes = (
{
closed = 1;
nodes = (
(217,580,o),
(243,672,o),
(243,750,c),
(130,750,l),
(130,707,o),
(124,684,o),
(99,684,cs),
(74,684,o),
(68,707,o),
(68,750,c),
(-45,750,l),
(-45,673,o),
(-20,580,o),
(99,580,cs)
);
},
{
pos = (-33,0);
ref = idotless;
}
);
width = 198;
},
{
layerId = m007;
shapes = (
{
closed = 1;
nodes = (
(154,590,o),
(187,644,o),
(190,720,c),
(146,720,l),
(143,664,o),
(121,634,o),
(80,634,cs),
(39,634,o),
(17,664,o),
(14,720,c),
(-30,720,l),
(-27,644,o),
(5,590,o),
(80,590,cs)
);
},
{
pos = (-27,0);
ref = idotless;
}
);
width = 160;
},
{
layerId = m004;
shapes = (
{
closed = 1;
nodes = (
(212,580,o),
(262,646,o),
(278,730,c),
(214,730,l),
(202,672,o),
(178,644,o),
(141,644,cs),
(104,644,o),
(92,672,o),
(102,730,c),
(38,730,l),
(22,646,o),
(45,580,o),
(129,580,cs)
);
},
{
pos = (-29,0);
ref = idotless;
}
);
width = 170;
},
{
layerId = m008;
shapes = (
{
closed = 1;
nodes = (
(261,580,o),
(305,672,o),
(320,750,c),
(207,750,l),
(198,707,o),
(188,684,o),
(163,684,cs),
(138,684,o),
(136,707,o),
(145,750,c),
(32,750,l),
(17,673,o),
(24,580,o),
(143,580,cs)
);
},
{
pos = (-34,0);
ref = idotless;
}
);
width = 198;
},
{
layerId = m006;
shapes = (
{
closed = 1;
nodes = (
(200,590,o),
(243,644,o),
(261,720,c),
(217,720,l),
(203,664,o),
(175,634,o),
(134,634,cs),
(93,634,o),
(77,664,o),
(85,720,c),
(41,720,l),
(29,644,o),
(51,590,o),
(126,590,cs)
);
},
{
pos = (-28,0);
ref = idotless;
}
);
width = 160;
}
);
metricLeft = "=idotless-110";
metricRight = "=idotless-110";
unicode = 301;
},
{
glyphname = jdotless;
kernLeft = j;
kernRight = g;
lastChange = "2022-08-04 15:28:38 +0000";
layers = (
{
layerId = m01;
shapes = (
{
closed = 1;
nodes = (
(45,-200,ls),
(135,-200,o),
(185,-150,o),
(185,-60,cs),
(185,500,l),
(110,500,l),
(110,-67,ls),
(110,-107,o),
(90,-127,o),
(50,-127,cs),
(-40,-127,l),
(-40,-200,l)
);
}
);
width = 260;
},
{
layerId = m005;
shapes = (
{
closed = 1;
nodes = (
(65,-200,ls),
(175,-200,o),
(235,-150,o),
(235,-40,cs),
(235,500,l),
(100,500,l),
(100,-27,ls),
(100,-67,o),
(80,-87,o),
(40,-87,cs),
(-50,-87,l),
(-50,-200,l)
);
}
);
width = 300;
},
{
layerId = m007;
shapes = (
{
closed = 1;
nodes = (
(45,-200,ls),
(131,-200,o),
(175,-156,o),
(175,-70,cs),
(175,500,l),
(120,500,l),
(120,-77,ls),
(120,-122,o),
(95,-147,o),
(50,-147,cs),
(-30,-147,l),
(-30,-200,l)
);
}
);
width = 255;
},
{
layerId = m004;
shapes = (
{
closed = 1;
nodes = (
(-62,-200,ls),
(38,-200,o),
(86,-158,o),
(105,-60,cs),
(214,500,l),
(139,500,l),
(29,-67,ls),
(21,-107,o),
(-3,-127,o),
(-43,-127,cs),
(-133,-127,l),
(-147,-200,l)
);
}
);
width = 260;
},
{
layerId = m008;
shapes = (
{
closed = 1;
nodes = (
(-22,-200,ls),
(68,-200,o),
(137,-155,o),
(154,-67,cs),
(264,500,l),
(129,500,l),
(27,-27,ls),
(19,-67,o),
(5,-87,o),
(-35,-87,cs),
(-135,-87,l),
(-157,-200,l)
);
}
);
width = 301;
},
{
layerId = m006;
shapes = (
{
closed = 1;
nodes = (
(-62,-200,ls),
(24,-200,o),
(77,-156,o),
(93,-70,cs),
(204,500,l),
(149,500,l),
(37,-77,ls),
(28,-122,o),
(-2,-147,o),
(-47,-147,cs),
(-127,-147,l),
(-137,-200,l)
);
}
);
width = 255;
}
);
metricRight = i;
unicode = 567;
},
{
glyphname = k;
kernLeft = l;
kernRight = k;
lastChange = "2022-07-23 20:26:26 +0000";
layers = (
{
layerId = m01;
shapes = (
{
closed = 1;
nodes = (
(479,500,l),
(384,500,l),
(93,201,l),
(145,154,l)
);
},
{
closed = 1;
nodes = (
(150,0,l),
(150,700,l),
(75,700,l),
(75,0,l)
);
},
{
closed = 1;
nodes = (
(491,0,l),
(273,363,l),
(233,290,l),
(403,0,l)
);
}
);
width = 516;
},
{
layerId = m005;
shapes = (
{
closed = 1;
nodes = (
(566,500,l),
(388,500,l),
(102,240,l),
(188,146,l)
);
},
{
closed = 1;
nodes = (
(200,0,l),
(200,700,l),
(65,700,l),
(65,0,l)
);
},
{
closed = 1;
nodes = (
(564,0,l),
(336,362,l),
(227,290,l),
(404,0,l)
);
}
);
width = 581;
},
{
layerId = m007;
shapes = (
{
closed = 1;
nodes = (
(450,500,l),
(383,500,l),
(102,201,l),
(102,127,l)
);
},
{
closed = 1;
nodes = (
(135,0,l),
(135,700,l),
(80,700,l),
(80,0,l)
);
},
{
closed = 1;
nodes = (
(468,0,l),
(268,343,l),
(239,290,l),
(404,0,l)
);
}
);
width = 498;
},
{
layerId = m004;
shapes = (
{
closed = 1;
nodes = (
(507,500,l),
(407,500,l),
(58,201,l),
(106,154,l)
);
},
{
closed = 1;
nodes = (
(81,0,l),
(217,700,l),
(142,700,l),
(6,0,l)
);
},
{
closed = 1;
nodes = (
(422,0,l),
(275,363,l),
(230,290,l),
(344,0,l)
);
}
);
width = 516;
},
{
layerId = m008;
shapes = (
{
closed = 1;
nodes = (
(594,500,l),
(411,500,l),
(75,240,l),
(147,146,l)
);
},
{
closed = 1;
nodes = (
(131,0,l),
(267,700,l),
(132,700,l),
(-4,0,l)
);
},
{
closed = 1;
nodes = (
(495,0,l),
(337,362,l),
(219,290,l),
(340,0,l)
);
}
);
width = 580;
},
{
layerId = m006;
shapes = (
{
closed = 1;
nodes = (
(478,500,l),
(411,500,l),
(72,201,l),
(58,127,l)
);
},
{
closed = 1;
nodes = (
(66,0,l),
(202,700,l),
(147,700,l),
(11,0,l)
);
},
{
closed = 1;
nodes = (
(399,0,l),
(266,343,l),
(226,290,l),
(335,0,l)
);
}
);
width = 498;
}
);
metricLeft = h;
unicode = 107;
},
{
glyphname = l;
kernLeft = l;
kernRight = l;
lastChange = "2022-07-24 06:53:54 +0000";
layers = (
{
layerId = m01;
shapes = (
{
closed = 1;
nodes = (
(150,0,l),
(150,710,l),
(75,710,l),
(75,0,l)
);
}
);
width = 225;
},
{
layerId = m005;
shapes = (
{
closed = 1;
nodes = (
(200,0,l),
(200,710,l),
(65,710,l),
(65,0,l)
);
}
);
width = 265;
},
{
layerId = m007;
shapes = (
{
closed = 1;
nodes = (
(135,0,l),
(135,710,l),
(80,710,l),
(80,0,l)
);
}
);
width = 215;
},
{
layerId = m004;
shapes = (
{
closed = 1;
nodes = (
(81,0,l),
(219,710,l),
(144,710,l),
(6,0,l)
);
}
);
width = 225;
},
{
layerId = m008;
shapes = (
{
closed = 1;
nodes = (
(131,0,l),
(269,710,l),
(134,710,l),
(-4,0,l)
);
}
);
width = 265;
},
{
layerId = m006;
shapes = (
{
closed = 1;
nodes = (
(66,0,l),
(204,710,l),
(149,710,l),
(11,0,l)
);
}
);
width = 215;
}
);
unicode = 108;
},
{
glyphname = lslash;
kernLeft = l;
kernRight = l;
lastChange = "2022-08-02 18:06:38 +0000";
layers = (
{
layerId = m01;
shapes = (
{
pos = (32,0);
ref = l;
},
{
closed = 1;
nodes = (
(245,385,l),
(245,445,l),
(45,325,l),
(45,265,l)
);
}
);
width = 290;
},
{
layerId = m005;
shapes = (
{
pos = (43,0);
ref = l;
},
{
closed = 1;
nodes = (
(315,369,l),
(315,473,l),
(35,341,l),
(35,237,l)
);
}
);
width = 350;
},
{
layerId = m007;
shapes = (
{
pos = (33,0);
ref = l;
},
{
closed = 1;
nodes = (
(230,391,l),
(230,427,l),
(50,319,l),
(50,283,l)
);
}
);
width = 280;
},
{
layerId = m004;
shapes = (
{
pos = (33,0);
ref = l;
},
{
closed = 1;
nodes = (
(252,385,l),
(263,445,l),
(40,325,l),
(28,265,l)
);
}
);
width = 291;
},
{
layerId = m008;
shapes = (
{
pos = (43,0);
ref = l;
},
{
closed = 1;
nodes = (
(319,369,l),
(339,473,l),
(33,341,l),
(13,237,l)
);
}
);
width = 351;
},
{
layerId = m006;
shapes = (
{
pos = (32,0);
ref = l;
},
{
closed = 1;
nodes = (
(237,391,l),
(244,427,l),
(43,319,l),
(36,283,l)
);
}
);
width = 280;
}
);
metricLeft = "=l-30";
metricRight = "=l-30";
unicode = 322;
},
{
glyphname = m;
kernLeft = m;
kernRight = m;
lastChange = "2022-07-28 09:57:14 +0000";
layers = (
{
layerId = m01;
shapes = (
{
closed = 1;
nodes = (
(150,0,l),
(150,500,l),
(75,500,l),
(75,0,l)
);
},
{
closed = 1;
nodes = (
(468,0,l),
(468,349,ls),
(468,459,o),
(405,516,o),
(315,516,cs),
(215,516,o),
(145,449,o),
(145,349,cs),
(150,243,l),
(150,393,o),
(210,443,o),
(290,443,cs),
(360,443,o),
(393,399,o),
(393,319,cs),
(393,0,l)
);
},
{
closed = 1;
nodes = (
(786,0,l),
(786,349,ls),
(786,459,o),
(723,516,o),
(633,516,cs),
(533,516,o),
(458,449,o),
(458,349,c),
(468,243,l),
(468,393,o),
(528,443,o),
(608,443,cs),
(678,443,o),
(711,399,o),
(711,319,cs),
(711,0,l)
);
}
);
width = 856;
},
{
layerId = m005;
shapes = (
{
closed = 1;
nodes = (
(200,0,l),
(200,500,l),
(65,500,l),
(65,0,l)
);
},
{
closed = 1;
nodes = (
(518,0,l),
(518,319,ls),
(518,459,o),
(457,516,o),
(367,516,cs),
(237,516,o),
(184,413,o),
(184,293,c),
(200,243,l),
(200,354,o),
(246,403,o),
(306,403,cs),
(346,403,o),
(383,393,o),
(383,303,cs),
(383,0,l)
);
},
{
closed = 1;
nodes = (
(836,0,l),
(836,319,ls),
(836,459,o),
(775,516,o),
(685,516,cs),
(555,516,o),
(502,413,o),
(502,293,c),
(518,243,l),
(518,354,o),
(564,403,o),
(624,403,cs),
(664,403,o),
(701,393,o),
(701,303,cs),
(701,0,l)
);
}
);
width = 896;
},
{
layerId = m007;
shapes = (
{
closed = 1;
nodes = (
(135,0,l),
(135,500,l),
(80,500,l),
(80,0,l)
);
},
{
closed = 1;
nodes = (
(453,0,l),
(453,339,ls),
(453,459,o),
(390,516,o),
(300,516,cs),
(200,516,o),
(125,449,o),
(125,319,c),
(135,243,l),
(135,403,o),
(200,463,o),
(285,463,cs),
(365,463,o),
(398,409,o),
(398,309,cs),
(398,0,l)
);
},
{
closed = 1;
nodes = (
(771,0,l),
(771,339,ls),
(771,459,o),
(708,516,o),
(618,516,cs),
(518,516,o),
(443,449,o),
(443,319,c),
(453,243,l),
(453,403,o),
(518,463,o),
(603,463,cs),
(683,463,o),
(716,409,o),
(716,309,cs),
(716,0,l)
);
}
);
width = 846;
},
{
layerId = m004;
shapes = (
{
closed = 1;
nodes = (
(82,0,l),
(179,500,l),
(104,500,l),
(7,0,l)
);
},
{
closed = 1;
nodes = (
(400,0,l),
(462,318,ls),
(489,455,o),
(437,516,o),
(347,516,cs),
(247,516,o),
(157,428,o),
(145,349,cs),
(129,243,l),
(158,390,o),
(248,443,o),
(318,443,cs),
(378,443,o),
(402,398,o),
(383,300,cs),
(325,0,l)
);
},
{
closed = 1;
nodes = (
(718,0,l),
(780,318,ls),
(807,455,o),
(755,516,o),
(665,516,cs),
(565,516,o),
(466,428,o),
(458,349,cs),
(447,243,l),
(476,390,o),
(566,443,o),
(636,443,cs),
(696,443,o),
(720,398,o),
(701,300,cs),
(643,0,l)
);
}
);
width = 857;
},
{
layerId = m008;
shapes = (
{
closed = 1;
nodes = (
(132,0,l),
(229,500,l),
(94,500,l),
(-3,0,l)
);
},
{
closed = 1;
nodes = (
(450,0,l),
(512,319,ls),
(535,437,o),
(494,516,o),
(384,516,cs),
(274,516,o),
(196,411,o),
(173,293,c),
(179,243,l),
(201,354,o),
(261,403,o),
(311,403,cs),
(361,403,o),
(387,372,o),
(374,303,cs),
(315,0,l)
);
},
{
closed = 1;
nodes = (
(768,0,l),
(830,319,ls),
(853,437,o),
(812,516,o),
(702,516,cs),
(592,516,o),
(514,411,o),
(491,293,c),
(497,243,l),
(519,354,o),
(579,403,o),
(629,403,cs),
(679,403,o),
(705,372,o),
(692,303,cs),
(633,0,l)
);
}
);
width = 896;
},
{
layerId = m006;
shapes = (
{
closed = 1;
nodes = (
(67,0,l),
(164,500,l),
(109,500,l),
(12,0,l)
);
},
{
closed = 1;
nodes = (
(385,0,l),
(451,339,ls),
(474,459,o),
(422,516,o),
(332,516,cs),
(232,516,o),
(144,449,o),
(119,319,c),
(114,243,l),
(145,403,o),
(222,463,o),
(307,463,cs),
(387,463,o),
(409,409,o),
(390,309,cs),
(330,0,l)
);
},
{
closed = 1;
nodes = (
(703,0,l),
(769,339,ls),
(792,459,o),
(740,516,o),
(650,516,cs),
(550,516,o),
(462,449,o),
(437,319,c),
(432,243,l),
(463,403,o),
(540,463,o),
(625,463,cs),
(705,463,o),
(727,409,o),
(708,309,cs),
(648,0,l)
);
}
);
width = 847;
}
);
unicode = 109;
},
{
glyphname = n;
kernLeft = m;
kernRight = m;
lastChange = "2022-07-28 09:56:31 +0000";
layers = (
{
layerId = m01;
shapes = (
{
closed = 1;
nodes = (
(478,0,l),
(478,349,ls),
(478,459,o),
(415,516,o),
(325,516,cs),
(225,516,o),
(145,449,o),
(145,349,cs),
(150,243,l),
(150,393,o),
(220,443,o),
(300,443,cs),
(370,443,o),
(403,399,o),
(403,319,cs),
(403,0,l)
);
},
{
closed = 1;
nodes = (
(150,0,l),
(150,500,l),
(75,500,l),
(75,0,l)
);
}
);
width = 548;
},
{
layerId = m005;
shapes = (
{
closed = 1;
nodes = (
(528,0,l),
(528,319,ls),
(528,459,o),
(462,516,o),
(372,516,cs),
(242,516,o),
(184,413,o),
(184,293,c),
(200,243,l),
(200,354,o),
(251,403,o),
(311,403,cs),
(351,403,o),
(393,393,o),
(393,303,cs),
(393,0,l)
);
},
{
closed = 1;
nodes = (
(200,0,l),
(200,500,l),
(65,500,l),
(65,0,l)
);
}
);
width = 588;
},
{
layerId = m007;
shapes = (
{
closed = 1;
nodes = (
(463,0,l),
(463,339,ls),
(463,459,o),
(400,516,o),
(310,516,cs),
(210,516,o),
(125,449,o),
(125,319,c),
(135,243,l),
(135,403,o),
(210,463,o),
(295,463,cs),
(375,463,o),
(408,409,o),
(408,309,cs),
(408,0,l)
);
},
{
closed = 1;
nodes = (
(135,0,l),
(135,500,l),
(80,500,l),
(80,0,l)
);
}
);
width = 538;
},
{
layerId = m004;
shapes = (
{
closed = 1;
nodes = (
(410,0,l),
(472,318,ls),
(499,455,o),
(437,516,o),
(347,516,cs),
(247,516,o),
(157,428,o),
(145,349,cs),
(129,243,l),
(158,390,o),
(248,443,o),
(318,443,cs),
(378,443,o),
(412,398,o),
(393,300,cs),
(335,0,l)
);
},
{
closed = 1;
nodes = (
(82,0,l),
(179,500,l),
(104,500,l),
(7,0,l)
);
}
);
width = 549;
},
{
layerId = m008;
shapes = (
{
closed = 1;
nodes = (
(460,0,l),
(522,319,ls),
(545,437,o),
(494,516,o),
(384,516,cs),
(274,516,o),
(196,411,o),
(173,293,c),
(179,243,l),
(201,354,o),
(261,403,o),
(321,403,cs),
(361,403,o),
(397,372,o),
(384,303,cs),
(325,0,l)
);
},
{
closed = 1;
nodes = (
(132,0,l),
(229,500,l),
(94,500,l),
(-3,0,l)
);
}
);
width = 588;
},
{
layerId = m006;
shapes = (
{
closed = 1;
nodes = (
(395,0,l),
(461,339,ls),
(484,459,o),
(432,516,o),
(342,516,cs),
(242,516,o),
(144,449,o),
(119,319,c),
(114,243,l),
(145,403,o),
(232,463,o),
(317,463,cs),
(397,463,o),
(419,409,o),
(400,309,cs),
(340,0,l)
);
},
{
closed = 1;
nodes = (
(67,0,l),
(164,500,l),
(109,500,l),
(12,0,l)
);
}
);
width = 539;
}
);
metricLeft = m;
metricRight = m;
unicode = 110;
},
{
glyphname = eng;
kernLeft = m;
kernRight = m;
lastChange = "2022-08-02 18:35:50 +0000";
layers = (
{
layerId = m01;
shapes = (
{
closed = 1;
nodes = (
(342,-200,ls),
(428,-200,o),
(478,-163,o),
(478,-76,cs),
(478,0,l),
(403,0,l),
(403,-55,ls),
(403,-117,o),
(384,-127,o),
(330,-127,cs),
(273,-127,l),
(273,-200,l)
);
},
{
ref = n;
}
);
width = 553;
},
{
layerId = m005;
shapes = (
{
closed = 1;
nodes = (
(358,-200,ls),
(468,-200,o),
(528,-150,o),
(528,-40,cs),
(528,0,l),
(393,0,l),
(393,-27,ls),
(393,-67,o),
(373,-87,o),
(333,-87,cs),
(243,-87,l),
(243,-200,l)
);
},
{
ref = n;
}
);
width = 593;
},
{
layerId = m007;
shapes = (
{
closed = 1;
nodes = (
(337,-190,ls),
(420,-190,o),
(463,-158,o),
(463,-76,cs),
(463,0,l),
(408,0,l),
(408,-55,ls),
(408,-124,o),
(383,-137,o),
(325,-137,cs),
(278,-137,l),
(278,-190,l)
);
},
{
ref = n;
}
);
width = 543;
},
{
layerId = m004;
shapes = (
{
closed = 1;
nodes = (
(231,-200,ls),
(331,-200,o),
(379,-158,o),
(398,-60,cs),
(410,0,l),
(335,0,l),
(322,-67,ls),
(314,-107,o),
(290,-127,o),
(250,-127,cs),
(160,-127,l),
(146,-200,l)
);
},
{
ref = n;
}
);
width = 554;
},
{
layerId = m008;
shapes = (
{
closed = 1;
nodes = (
(271,-200,ls),
(361,-200,o),
(430,-155,o),
(447,-67,cs),
(460,0,l),
(325,0,l),
(320,-27,ls),
(312,-67,o),
(298,-87,o),
(258,-87,cs),
(158,-87,l),
(136,-200,l)
);
},
{
ref = n;
}
);
width = 594;
},
{
layerId = m006;
shapes = (
{
closed = 1;
nodes = (
(226,-200,ls),
(312,-200,o),
(365,-156,o),
(381,-70,cs),
(395,0,l),
(340,0,l),
(325,-77,ls),
(316,-122,o),
(286,-147,o),
(241,-147,cs),
(161,-147,l),
(151,-200,l)
);
},
{
ref = n;
}
);
width = 544;
}
);
metricLeft = m;
metricRight = j;
unicode = 331;
},
{
glyphname = o;
kernLeft = o;
kernRight = o;
lastChange = "2022-08-21 06:52:17 +0000";
layers = (
{
layerId = m01;
shapes = (
{
closed = 1;
nodes = (
(401,-16,o),
(516,68,o),
(516,248,cs),
(516,428,o),
(401,516,o),
(281,516,cs),
(161,516,o),
(45,428,o),
(45,248,cs),
(45,68,o),
(161,-16,o),
(281,-16,cs)
);
},
{
closed = 1;
nodes = (
(171,57,o),
(123,138,o),
(123,248,cs),
(123,358,o),
(171,443,o),
(281,443,cs),
(391,443,o),
(439,358,o),
(439,248,cs),
(439,138,o),
(391,57,o),
(281,57,cs)
);
}
);
width = 561;
},
{
layerId = m005;
shapes = (
{
closed = 1;
nodes = (
(436,-16,o),
(556,90,o),
(556,250,cs),
(556,410,o),
(436,516,o),
(296,516,cs),
(156,516,o),
(35,410,o),
(35,250,cs),
(35,90,o),
(156,-16,o),
(296,-16,cs)
);
},
{
closed = 1;
nodes = (
(216,97,o),
(173,150,o),
(173,250,cs),
(173,350,o),
(216,403,o),
(296,403,cs),
(376,403,o),
(419,350,o),
(419,250,cs),
(419,150,o),
(376,97,o),
(296,97,cs)
);
}
);
width = 591;
},
{
layerId = m007;
shapes = (
{
closed = 1;
nodes = (
(393,-16,o),
(502,75,o),
(502,250,cs),
(502,425,o),
(393,516,o),
(276,516,cs),
(159,516,o),
(50,425,o),
(50,250,cs),
(50,75,o),
(159,-16,o),
(276,-16,cs)
);
},
{
closed = 1;
nodes = (
(159,37,o),
(108,136,o),
(108,250,cs),
(108,364,o),
(159,463,o),
(276,463,cs),
(393,463,o),
(444,364,o),
(444,250,cs),
(444,136,o),
(393,37,o),
(276,37,cs)
);
}
);
width = 552;
},
{
layerId = m004;
shapes = (
{
closed = 1;
nodes = (
(340,-16,o),
(461,69,o),
(496,246,cs),
(522,384,o),
(453,516,o),
(303,516,cs),
(183,516,o),
(60,427,o),
(25,250,cs),
(-1,112,o),
(70,-16,o),
(220,-16,cs)
);
},
{
closed = 1;
nodes = (
(120,57,o),
(82,138,o),
(103,246,cs),
(125,364,o),
(203,443,o),
(293,443,cs),
(403,443,o),
(440,358,o),
(419,250,cs),
(397,132,o),
(320,57,o),
(230,57,cs)
);
}
);
width = 562;
},
{
layerId = m008;
shapes = (
{
closed = 1;
nodes = (
(366,-16,o),
(502,73,o),
(536,250,cs),
(562,388,o),
(465,516,o),
(315,516,cs),
(185,516,o),
(49,427,o),
(15,250,cs),
(-12,113,o),
(86,-16,o),
(236,-16,cs)
);
},
{
closed = 1;
nodes = (
(176,97,o),
(133,152,o),
(153,250,cs),
(174,358,o),
(245,403,o),
(305,403,cs),
(375,403,o),
(418,348,o),
(399,250,cs),
(377,142,o),
(306,97,o),
(246,97,cs)
);
}
);
width = 591;
},
{
layerId = m006;
shapes = (
{
closed = 1;
nodes = (
(345,-16,o),
(449,81,o),
(481,248,cs),
(507,385,o),
(448,516,o),
(298,516,cs),
(168,516,o),
(62,415,o),
(30,248,cs),
(4,111,o),
(65,-16,o),
(215,-16,cs)
);
},
{
closed = 1;
nodes = (
(105,37,o),
(65,130,o),
(88,248,cs),
(113,376,o),
(188,463,o),
(288,463,cs),
(408,463,o),
(447,366,o),
(424,248,cs),
(399,120,o),
(325,37,o),
(225,37,cs)
);
}
);
width = 551;
}
);
unicode = 111;
},
{
glyphname = oslash;
kernLeft = o;
kernRight = o;
lastChange = "2022-08-02 18:54:58 +0000";
layers = (
{
layerId = m01;
shapes = (
{
closed = 1;
nodes = (
(88,-66,l),
(561,566,l),
(483,566,l),
(10,-66,l)
);
},
{
pos = (5,0);
ref = o;
}
);
width = 576;
},
{
layerId = m005;
shapes = (
{
closed = 1;
nodes = (
(99,-66,l),
(563,566,l),
(464,566,l),
(0,-66,l)
);
},
{
pos = (-14,0);
ref = o;
}
);
width = 568;
},
{
layerId = m007;
shapes = (
{
closed = 1;
nodes = (
(67,-56,l),
(524,556,l),
(472,556,l),
(15,-56,l)
);
},
{
pos = (-6,0);
ref = o;
}
);
width = 544;
},
{
layerId = m004;
shapes = (
{
closed = 1;
nodes = (
(7,-66,l),
(603,566,l),
(525,566,l),
(-71,-66,l)
);
},
{
pos = (5,0);
ref = o;
}
);
width = 577;
},
{
layerId = m008;
shapes = (
{
closed = 1;
nodes = (
(18,-66,l),
(605,566,l),
(506,566,l),
(-81,-66,l)
);
},
{
pos = (-14,0);
ref = o;
}
);
width = 569;
},
{
layerId = m006;
shapes = (
{
closed = 1;
nodes = (
(-12,-56,l),
(564,556,l),
(512,556,l),
(-64,-56,l)
);
},
{
pos = (-6,0);
ref = o;
}
);
width = 545;
}
);
metricLeft = "=o-35";
metricRight = "=o-30";
unicode = 248;
},
{
glyphname = p;
kernLeft = p;
kernRight = o;
lastChange = "2022-08-02 18:54:58 +0000";
layers = (
{
layerId = m01;
shapes = (
{
closed = 1;
nodes = (
(454,-16,o),
(536,110,o),
(536,250,cs),
(536,390,o),
(454,516,o),
(314,516,cs),
(204,516,o),
(145,430,o),
(145,330,cs),
(145,170,ls),
(145,70,o),
(204,-16,o),
(314,-16,cs)
);
},
{
closed = 1;
nodes = (
(224,57,o),
(150,120,o),
(150,250,cs),
(150,380,o),
(224,443,o),
(304,443,cs),
(384,443,o),
(458,380,o),
(458,250,cs),
(458,120,o),
(384,57,o),
(304,57,cs)
);
},
{
closed = 1;
nodes = (
(150,-200,l),
(150,500,l),
(75,500,l),
(75,-200,l)
);
}
);
width = 581;
},
{
layerId = m005;
shapes = (
{
closed = 1;
nodes = (
(514,-16,o),
(586,102,o),
(586,250,cs),
(586,398,o),
(514,516,o),
(364,516,cs),
(224,516,o),
(185,400,o),
(185,290,cs),
(185,210,ls),
(185,100,o),
(224,-16,o),
(364,-16,cs)
);
},
{
closed = 1;
nodes = (
(264,97,o),
(200,140,o),
(200,250,cs),
(200,360,o),
(264,403,o),
(324,403,cs),
(384,403,o),
(448,360,o),
(448,250,cs),
(448,140,o),
(384,97,o),
(324,97,cs)
);
},
{
closed = 1;
nodes = (
(200,-200,l),
(200,500,l),
(65,500,l),
(65,-200,l)
);
}
);
width = 621;
},
{
layerId = m007;
shapes = (
{
closed = 1;
nodes = (
(439,-16,o),
(521,110,o),
(521,250,cs),
(521,390,o),
(439,516,o),
(309,516,cs),
(209,516,o),
(125,430,o),
(125,330,cs),
(125,170,ls),
(125,70,o),
(209,-16,o),
(309,-16,cs)
);
},
{
closed = 1;
nodes = (
(219,37,o),
(135,110,o),
(135,250,cs),
(135,390,o),
(219,463,o),
(299,463,cs),
(389,463,o),
(463,385,o),
(463,250,cs),
(463,115,o),
(389,37,o),
(299,37,cs)
);
},
{
closed = 1;
nodes = (
(135,-200,l),
(135,500,l),
(80,500,l),
(80,-200,l)
);
}
);
width = 571;
},
{
layerId = m004;
shapes = (
{
closed = 1;
nodes = (
(364,-16,o),
(481,78,o),
(514,245,cs),
(544,402,o),
(461,516,o),
(351,516,cs),
(251,516,o),
(162,448,o),
(140,330,cs),
(109,170,ls),
(89,72,o),
(154,-16,o),
(264,-16,cs)
);
},
{
closed = 1;
nodes = (
(174,57,o),
(108,132,o),
(131,250,cs),
(154,368,o),
(241,443,o),
(321,443,cs),
(411,443,o),
(458,364,o),
(435,245,cs),
(414,138,o),
(334,57,o),
(254,57,cs)
);
},
{
closed = 1;
nodes = (
(43,-200,l),
(179,500,l),
(104,500,l),
(-32,-200,l)
);
}
);
width = 580;
},
{
layerId = m008;
shapes = (
{
closed = 1;
nodes = (
(433,-16,o),
(538,103,o),
(567,250,cs),
(595,397,o),
(526,516,o),
(396,516,cs),
(256,516,o),
(195,408,o),
(173,290,cs),
(158,210,ls),
(136,92,o),
(163,-16,o),
(303,-16,cs)
);
},
{
closed = 1;
nodes = (
(215,97,o),
(159,140,o),
(181,250,cs),
(202,360,o),
(274,403,o),
(334,403,cs),
(394,403,o),
(450,360,o),
(429,250,cs),
(407,140,o),
(335,97,o),
(275,97,cs)
);
},
{
closed = 1;
nodes = (
(93,-200,l),
(229,500,l),
(94,500,l),
(-42,-200,l)
);
}
);
width = 622;
},
{
layerId = m006;
shapes = (
{
closed = 1;
nodes = (
(367,-16,o),
(470,93,o),
(501,250,cs),
(525,378,o),
(460,516,o),
(330,516,cs),
(210,516,o),
(139,428,o),
(120,330,cs),
(89,170,ls),
(70,72,o),
(137,-16,o),
(237,-16,cs)
);
},
{
closed = 1;
nodes = (
(147,37,o),
(87,110,o),
(115,250,cs),
(142,390,o),
(230,463,o),
(320,463,cs),
(410,463,o),
(469,388,o),
(443,250,cs),
(416,113,o),
(327,37,o),
(237,37,cs)
);
},
{
closed = 1;
nodes = (
(28,-200,l),
(164,500,l),
(109,500,l),
(-27,-200,l)
);
}
);
width = 571;
}
);
metricLeft = b;
metricRight = o;
unicode = 112;
},
{
glyphname = thorn;
kernLeft = h;
kernRight = o;
lastChange = "2022-08-02 18:54:58 +0000";
layers = (
{
layerId = m01;
shapes = (
{
closed = 1;
nodes = (
(150,-200,l),
(150,700,l),
(75,700,l),
(75,-200,l)
);
},
{
closed = 1;
nodes = (
(454,-16,o),
(536,110,o),
(536,250,cs),
(536,390,o),
(454,516,o),
(314,516,cs),
(204,516,o),
(145,430,o),
(145,330,cs),
(145,170,ls),
(145,70,o),
(204,-16,o),
(314,-16,cs)
);
},
{
closed = 1;
nodes = (
(224,57,o),
(150,120,o),
(150,250,cs),
(150,380,o),
(224,443,o),
(304,443,cs),
(384,443,o),
(458,380,o),
(458,250,cs),
(458,120,o),
(384,57,o),
(304,57,cs)
);
}
);
width = 581;
},
{
layerId = m005;
shapes = (
{
closed = 1;
nodes = (
(200,-200,l),
(200,700,l),
(65,700,l),
(65,-200,l)
);
},
{
closed = 1;
nodes = (
(514,-16,o),
(586,102,o),
(586,250,cs),
(586,398,o),
(514,516,o),
(364,516,cs),
(224,516,o),
(185,400,o),
(185,290,cs),
(185,210,ls),
(185,100,o),
(224,-16,o),
(364,-16,cs)
);
},
{
closed = 1;
nodes = (
(264,97,o),
(200,140,o),
(200,250,cs),
(200,360,o),
(264,403,o),
(324,403,cs),
(384,403,o),
(448,360,o),
(448,250,cs),
(448,140,o),
(384,97,o),
(324,97,cs)
);
}
);
width = 621;
},
{
layerId = m007;
shapes = (
{
closed = 1;
nodes = (
(135,-200,l),
(135,700,l),
(80,700,l),
(80,-200,l)
);
},
{
closed = 1;
nodes = (
(439,-16,o),
(521,110,o),
(521,250,cs),
(521,390,o),
(439,516,o),
(309,516,cs),
(209,516,o),
(125,430,o),
(125,330,cs),
(125,170,ls),
(125,70,o),
(209,-16,o),
(309,-16,cs)
);
},
{
closed = 1;
nodes = (
(219,37,o),
(135,110,o),
(135,250,cs),
(135,390,o),
(219,463,o),
(299,463,cs),
(389,463,o),
(463,385,o),
(463,250,cs),
(463,115,o),
(389,37,o),
(299,37,cs)
);
}
);
width = 571;
},
{
layerId = m004;
shapes = (
{
closed = 1;
nodes = (
(43,-200,l),
(218,700,l),
(143,700,l),
(-32,-200,l)
);
},
{
closed = 1;
nodes = (
(365,-16,o),
(482,78,o),
(515,245,cs),
(545,402,o),
(462,516,o),
(352,516,cs),
(252,516,o),
(163,448,o),
(141,330,cs),
(110,170,ls),
(90,72,o),
(155,-16,o),
(265,-16,cs)
);
},
{
closed = 1;
nodes = (
(175,57,o),
(109,132,o),
(132,250,cs),
(155,368,o),
(242,443,o),
(322,443,cs),
(412,443,o),
(459,364,o),
(436,245,cs),
(415,138,o),
(335,57,o),
(255,57,cs)
);
}
);
width = 581;
},
{
layerId = m008;
shapes = (
{
closed = 1;
nodes = (
(93,-200,l),
(268,700,l),
(133,700,l),
(-42,-200,l)
);
},
{
closed = 1;
nodes = (
(433,-16,o),
(538,103,o),
(567,250,cs),
(595,397,o),
(526,516,o),
(396,516,cs),
(256,516,o),
(195,408,o),
(173,290,cs),
(158,210,ls),
(136,92,o),
(163,-16,o),
(303,-16,cs)
);
},
{
closed = 1;
nodes = (
(215,97,o),
(159,140,o),
(181,250,cs),
(202,360,o),
(274,403,o),
(334,403,cs),
(394,403,o),
(450,360,o),
(429,250,cs),
(407,140,o),
(335,97,o),
(275,97,cs)
);
}
);
width = 622;
},
{
layerId = m006;
shapes = (
{
closed = 1;
nodes = (
(28,-200,l),
(203,700,l),
(148,700,l),
(-27,-200,l)
);
},
{
closed = 1;
nodes = (
(368,-16,o),
(471,93,o),
(502,250,cs),
(526,378,o),
(461,516,o),
(331,516,cs),
(211,516,o),
(140,428,o),
(121,330,cs),
(90,170,ls),
(71,72,o),
(138,-16,o),
(238,-16,cs)
);
},
{
closed = 1;
nodes = (
(148,37,o),
(88,110,o),
(116,250,cs),
(143,390,o),
(231,463,o),
(321,463,cs),
(411,463,o),
(470,388,o),
(444,250,cs),
(417,113,o),
(328,37,o),
(238,37,cs)
);
}
);
width = 572;
}
);
metricLeft = h;
metricRight = b;
unicode = 254;
},
{
glyphname = q;
kernLeft = o;
kernRight = q;
lastChange = "2022-08-02 18:54:58 +0000";
layers = (
{
layerId = m01;
shapes = (
{
closed = 1;
nodes = (
(506,-200,l),
(506,500,l),
(431,500,l),
(431,-200,l)
);
},
{
closed = 1;
nodes = (
(377,-16,o),
(436,70,o),
(436,170,c),
(436,330,l),
(436,430,o),
(377,516,o),
(267,516,cs),
(127,516,o),
(45,390,o),
(45,250,cs),
(45,110,o),
(127,-16,o),
(267,-16,cs)
);
},
{
closed = 1;
nodes = (
(197,57,o),
(123,120,o),
(123,250,cs),
(123,380,o),
(197,443,o),
(277,443,cs),
(357,443,o),
(431,380,o),
(431,250,cs),
(431,120,o),
(357,57,o),
(277,57,cs)
);
}
);
width = 581;
},
{
layerId = m005;
shapes = (
{
closed = 1;
nodes = (
(556,-200,l),
(556,500,l),
(421,500,l),
(421,-200,l)
);
},
{
closed = 1;
nodes = (
(397,-16,o),
(436,100,o),
(436,210,c),
(436,290,l),
(436,400,o),
(397,516,o),
(257,516,cs),
(107,516,o),
(35,398,o),
(35,250,cs),
(35,102,o),
(107,-16,o),
(257,-16,cs)
);
},
{
closed = 1;
nodes = (
(237,97,o),
(173,140,o),
(173,250,cs),
(173,360,o),
(237,403,o),
(297,403,cs),
(357,403,o),
(421,360,o),
(421,250,cs),
(421,140,o),
(357,97,o),
(297,97,cs)
);
}
);
width = 621;
},
{
layerId = m007;
shapes = (
{
closed = 1;
nodes = (
(491,-200,l),
(491,500,l),
(436,500,l),
(436,-200,l)
);
},
{
closed = 1;
nodes = (
(362,-16,o),
(446,70,o),
(446,170,cs),
(446,330,ls),
(446,430,o),
(362,516,o),
(262,516,cs),
(132,516,o),
(50,390,o),
(50,250,cs),
(50,110,o),
(132,-16,o),
(262,-16,cs)
);
},
{
closed = 1;
nodes = (
(182,37,o),
(108,115,o),
(108,250,cs),
(108,385,o),
(182,463,o),
(272,463,cs),
(352,463,o),
(436,390,o),
(436,250,cs),
(436,110,o),
(352,37,o),
(272,37,cs)
);
}
);
width = 571;
},
{
layerId = m004;
shapes = (
{
closed = 1;
nodes = (
(397,-200,l),
(533,500,l),
(458,500,l),
(322,-200,l)
);
},
{
closed = 1;
nodes = (
(289,-16,o),
(378,52,o),
(400,170,c),
(431,330,l),
(451,428,o),
(386,516,o),
(276,516,cs),
(176,516,o),
(59,422,o),
(26,255,cs),
(-4,98,o),
(79,-16,o),
(189,-16,cs)
);
},
{
closed = 1;
nodes = (
(129,57,o),
(82,136,o),
(105,255,cs),
(126,362,o),
(206,443,o),
(286,443,cs),
(366,443,o),
(432,368,o),
(409,250,cs),
(386,132,o),
(299,57,o),
(219,57,cs)
);
}
);
width = 579;
},
{
layerId = m008;
shapes = (
{
closed = 1;
nodes = (
(449,-200,l),
(585,500,l),
(450,500,l),
(314,-200,l)
);
},
{
closed = 1;
nodes = (
(326,-16,o),
(387,92,o),
(409,210,cs),
(424,290,ls),
(446,408,o),
(419,516,o),
(279,516,cs),
(149,516,o),
(44,397,o),
(15,250,cs),
(-13,103,o),
(56,-16,o),
(186,-16,cs)
);
},
{
closed = 1;
nodes = (
(188,97,o),
(132,140,o),
(153,250,cs),
(175,360,o),
(247,403,o),
(307,403,cs),
(367,403,o),
(423,360,o),
(401,250,cs),
(380,140,o),
(308,97,o),
(248,97,cs)
);
}
);
width = 621;
},
{
layerId = m006;
shapes = (
{
closed = 1;
nodes = (
(384,-200,l),
(520,500,l),
(465,500,l),
(329,-200,l)
);
},
{
closed = 1;
nodes = (
(321,-16,o),
(392,72,o),
(411,170,cs),
(442,330,ls),
(461,428,o),
(394,516,o),
(294,516,cs),
(164,516,o),
(61,407,o),
(30,250,cs),
(6,122,o),
(71,-16,o),
(201,-16,cs)
);
},
{
closed = 1;
nodes = (
(121,37,o),
(62,112,o),
(88,250,cs),
(115,387,o),
(204,463,o),
(294,463,cs),
(384,463,o),
(444,390,o),
(416,250,cs),
(389,110,o),
(301,37,o),
(211,37,cs)
);
}
);
width = 571;
}
);
metricLeft = o;
metricRight = l;
unicode = 113;
},
{
glyphname = r;
kernLeft = m;
kernRight = r;
lastChange = "2022-08-02 18:55:14 +0000";
layers = (
{
layerId = m01;
shapes = (
{
closed = 1;
nodes = (
(155,0,l),
(155,228,ls),
(155,358,o),
(196,427,o),
(276,427,cs),
(358,427,l),
(358,500,l),
(266,500,ls),
(186,500,o),
(147,405,o),
(147,275,c),
(155,335,l),
(155,500,l),
(80,500,l),
(80,0,l)
);
}
);
width = 378;
},
{
layerId = m005;
shapes = (
{
closed = 1;
nodes = (
(205,0,l),
(205,208,ls),
(205,338,o),
(236,387,o),
(326,387,cs),
(408,387,l),
(408,500,l),
(316,500,ls),
(216,500,o),
(187,375,o),
(187,245,c),
(205,314,l),
(205,500,l),
(70,500,l),
(70,0,l)
);
}
);
width = 418;
},
{
layerId = m007;
shapes = (
{
closed = 1;
nodes = (
(140,0,l),
(140,238,ls),
(140,372,o),
(184,447,o),
(271,447,cs),
(343,447,l),
(343,500,l),
(261,500,ls),
(188,500,o),
(132,413,o),
(132,285,c),
(140,346,l),
(140,500,l),
(85,500,l),
(85,0,l)
);
}
);
width = 368;
},
{
layerId = m004;
shapes = (
{
closed = 1;
nodes = (
(87,0,l),
(131,228,ls),
(157,358,o),
(211,427,o),
(291,427,cs),
(373,427,l),
(387,500,l),
(295,500,ls),
(215,500,o),
(158,405,o),
(132,275,c),
(152,335,l),
(184,500,l),
(109,500,l),
(12,0,l)
);
}
);
width = 379;
},
{
layerId = m008;
shapes = (
{
closed = 1;
nodes = (
(137,0,l),
(177,208,ls),
(203,338,o),
(243,387,o),
(333,387,cs),
(415,387,l),
(437,500,l),
(345,500,ls),
(245,500,o),
(192,375,o),
(167,245,c),
(198,314,l),
(234,500,l),
(99,500,l),
(2,0,l)
);
}
);
width = 418;
},
{
layerId = m006;
shapes = (
{
closed = 1;
nodes = (
(72,0,l),
(118,238,ls),
(144,372,o),
(203,447,o),
(290,447,cs),
(362,447,l),
(372,500,l),
(290,500,ls),
(217,500,o),
(144,413,o),
(119,285,c),
(139,346,l),
(169,500,l),
(114,500,l),
(17,0,l)
);
}
);
width = 369;
}
);
unicode = 114;
},
{
glyphname = s;
kernLeft = s;
kernRight = s;
lastChange = "2022-08-15 17:01:35 +0000";
layers = (
{
layerId = m01;
shapes = (
{
closed = 1;
nodes = (
(373,-16,o),
(463,41,o),
(463,151,cs),
(463,371,o),
(139,238,o),
(139,368,cs),
(139,418,o),
(181,443,o),
(251,443,cs),
(319,443,o),
(370,416,o),
(370,362,c),
(443,372,l),
(443,472,o),
(339,516,o),
(251,516,cs),
(149,516,o),
(61,458,o),
(61,368,cs),
(61,158,o),
(385,291,o),
(385,151,cs),
(385,81,o),
(333,57,o),
(261,57,cs),
(173,57,o),
(113,101,o),
(113,180,c),
(40,170,l),
(40,51,o),
(143,-16,o),
(261,-16,cs)
);
}
);
width = 508;
},
{
layerId = m005;
shapes = (
{
closed = 1;
nodes = (
(405,-16,o),
(512,51,o),
(512,151,cs),
(512,361,o),
(188,269,o),
(188,359,cs),
(188,389,o),
(220,403,o),
(270,403,cs),
(330,403,o),
(357,387,o),
(357,347,c),
(491,357,l),
(491,471,o),
(385,516,o),
(270,516,cs),
(150,516,o),
(50,458,o),
(50,359,cs),
(50,149,o),
(374,261,o),
(374,151,cs),
(374,121,o),
(340,97,o),
(280,97,cs),
(200,97,o),
(163,116,o),
(163,176,c),
(30,166,l),
(30,36,o),
(142,-16,o),
(280,-16,cs)
);
}
);
width = 547;
},
{
layerId = m007;
shapes = (
{
closed = 1;
nodes = (
(366,-16,o),
(448,46,o),
(448,146,cs),
(448,336,o),
(124,253,o),
(124,373,cs),
(124,433,o),
(172,463,o),
(246,463,cs),
(313,463,o),
(369,436,o),
(374,373,c),
(428,381,l),
(423,468,o),
(346,516,o),
(246,516,cs),
(146,516,o),
(66,453,o),
(66,373,cs),
(66,203,o),
(390,276,o),
(390,146,cs),
(390,66,o),
(336,37,o),
(256,37,cs),
(156,37,o),
(104,90,o),
(98,169,c),
(45,161,l),
(50,53,o),
(126,-16,o),
(256,-16,cs)
);
}
);
width = 498;
},
{
layerId = m004;
shapes = (
{
closed = 1;
nodes = (
(319,-16,o),
(423,41,o),
(423,141,cs),
(423,321,o),
(151,278,o),
(151,368,cs),
(151,418,o),
(188,443,o),
(258,443,cs),
(318,443,o),
(371,412,o),
(371,362,c),
(446,372,l),
(446,442,o),
(380,516,o),
(262,516,cs),
(153,516,o),
(73,458,o),
(73,368,cs),
(73,188,o),
(345,261,o),
(345,141,cs),
(345,91,o),
(283,57,o),
(223,57,cs),
(143,57,o),
(79,110,o),
(79,180,c),
(4,170,l),
(4,60,o),
(109,-16,o),
(219,-16,cs)
);
}
);
width = 502;
},
{
layerId = m008;
shapes = (
{
closed = 1;
nodes = (
(361,-16,o),
(473,41,o),
(473,151,cs),
(473,341,o),
(195,278,o),
(195,359,cs),
(195,389,o),
(230,403,o),
(270,403,cs),
(330,403,o),
(356,377,o),
(356,347,c),
(492,357,l),
(492,457,o),
(390,516,o),
(270,516,cs),
(150,516,o),
(57,449,o),
(57,359,cs),
(57,179,o),
(335,241,o),
(335,151,cs),
(335,121,o),
(301,97,o),
(231,97,cs),
(171,97,o),
(129,126,o),
(129,176,c),
(-6,166,l),
(-6,66,o),
(91,-16,o),
(231,-16,cs)
);
}
);
width = 540;
},
{
layerId = m006;
shapes = (
{
closed = 1;
nodes = (
(335,-16,o),
(408,56,o),
(408,136,cs),
(408,316,o),
(128,253,o),
(128,373,cs),
(128,433,o),
(188,463,o),
(258,463,cs),
(338,463,o),
(378,421,o),
(378,371,c),
(434,381,l),
(434,461,o),
(358,516,o),
(258,516,cs),
(148,516,o),
(70,453,o),
(70,373,cs),
(70,203,o),
(350,276,o),
(350,136,cs),
(350,76,o),
(295,37,o),
(205,37,cs),
(117,37,o),
(63,91,o),
(63,171,c),
(8,161,l),
(8,61,o),
(83,-16,o),
(205,-16,cs)
);
}
);
width = 488;
}
);
unicode = 115;
},
{
glyphname = germandbls;
kernLeft = l;
kernRight = o;
lastChange = "2022-08-02 18:54:58 +0000";
layers = (
{
layerId = m01;
shapes = (
{
closed = 1;
nodes = (
(280,0,ls),
(450,0,o),
(512,111,o),
(512,201,cs),
(512,291,o),
(450,380,o),
(310,380,c),
(310,356,l),
(410,356,o),
(478,447,o),
(478,530,cs),
(478,650,o),
(380,716,o),
(280,716,cs),
(170,716,o),
(75,650,o),
(75,500,c),
(150,500,l),
(150,600,o),
(200,643,o),
(280,643,cs),
(353,643,o),
(400,600,o),
(400,530,cs),
(400,460,o),
(353,402,o),
(275,402,cs),
(240,402,l),
(240,329,l),
(290,329,ls),
(390,329,o),
(434,261,o),
(434,201,cs),
(434,141,o),
(390,73,o),
(290,73,cs),
(240,73,l),
(240,0,l)
);
},
{
closed = 1;
nodes = (
(150,0,l),
(150,500,l),
(75,500,l),
(75,0,l)
);
}
);
width = 557;
},
{
layerId = m005;
shapes = (
{
closed = 1;
nodes = (
(329,0,ls),
(476,0,o),
(581,61,o),
(581,201,cs),
(581,321,o),
(496,377,o),
(366,377,c),
(366,361,l),
(476,361,o),
(547,423,o),
(547,533,cs),
(547,643,o),
(469,716,o),
(319,716,cs),
(169,716,o),
(65,640,o),
(65,480,c),
(200,480,l),
(200,560,o),
(244,603,o),
(314,603,cs),
(374,603,o),
(409,563,o),
(409,513,cs),
(409,463,o),
(379,422,o),
(299,422,cs),
(279,422,l),
(279,306,l),
(339,306,ls),
(399,306,o),
(443,281,o),
(443,211,cs),
(443,141,o),
(399,116,o),
(339,116,cs),
(279,116,l),
(279,0,l)
);
},
{
closed = 1;
nodes = (
(200,0,l),
(200,480,l),
(65,480,l),
(65,0,l)
);
}
);
width = 616;
},
{
layerId = m007;
shapes = (
{
closed = 1;
nodes = (
(275,0,ls),
(439,0,o),
(497,109,o),
(497,196,cs),
(497,281,o),
(443,366,o),
(315,370,c),
(315,366,l),
(404,372,o),
(463,458,o),
(463,535,cs),
(463,650,o),
(372,716,o),
(275,716,cs),
(171,716,o),
(84,648,o),
(80,510,c),
(135,510,l),
(139,609,o),
(193,663,o),
(275,663,cs),
(353,663,o),
(405,611,o),
(405,535,cs),
(405,460,o),
(354,392,o),
(270,392,cs),
(245,392,l),
(245,339,l),
(285,339,ls),
(392,339,o),
(439,260,o),
(439,196,cs),
(439,132,o),
(392,53,o),
(285,53,cs),
(245,53,l),
(245,0,l)
);
},
{
closed = 1;
nodes = (
(135,0,l),
(135,510,l),
(80,510,l),
(80,0,l)
);
}
);
width = 547;
},
{
layerId = m004;
shapes = (
{
closed = 1;
nodes = (
(212,0,ls),
(382,0,o),
(461,83,o),
(482,191,cs),
(501,291,o),
(446,380,o),
(316,380,c),
(311,356,l),
(411,356,o),
(494,432,o),
(513,530,cs),
(534,638,o),
(451,716,o),
(351,716,cs),
(241,716,o),
(136,667,o),
(104,500,c),
(179,500,l),
(199,600,o),
(257,643,o),
(337,643,cs),
(410,643,o),
(449,600,o),
(435,530,cs),
(421,461,o),
(363,402,o),
(285,402,cs),
(250,402,l),
(236,329,l),
(286,329,ls),
(386,329,o),
(419,270,o),
(403,191,cs),
(391,132,o),
(346,73,o),
(236,73,cs),
(186,73,l),
(172,0,l)
);
},
{
closed = 1;
nodes = (
(82,0,l),
(179,500,l),
(104,500,l),
(7,0,l)
);
}
);
width = 558;
},
{
layerId = m008;
shapes = (
{
closed = 1;
nodes = (
(261,0,ls),
(421,0,o),
(525,61,o),
(550,191,cs),
(575,319,o),
(501,377,o),
(371,377,c),
(368,361,l),
(478,361,o),
(561,423,o),
(581,523,cs),
(600,621,o),
(530,716,o),
(380,716,cs),
(240,716,o),
(121,640,o),
(90,480,c),
(225,480,l),
(241,560,o),
(293,603,o),
(363,603,cs),
(423,603,o),
(450,563,o),
(441,513,cs),
(431,463,o),
(393,422,o),
(313,422,cs),
(293,422,l),
(270,306,l),
(330,306,ls),
(390,306,o),
(430,281,o),
(416,211,cs),
(402,141,o),
(354,116,o),
(294,116,cs),
(234,116,l),
(211,0,l)
);
},
{
closed = 1;
nodes = (
(132,0,l),
(225,480,l),
(90,480,l),
(-3,0,l)
);
}
);
width = 616;
},
{
layerId = m006;
shapes = (
{
closed = 1;
nodes = (
(207,0,ls),
(371,0,o),
(450,109,o),
(467,196,cs),
(484,281,o),
(446,366,o),
(319,370,c),
(318,366,l),
(408,372,o),
(484,458,o),
(499,535,cs),
(521,650,o),
(443,716,o),
(346,716,cs),
(242,716,o),
(142,648,o),
(111,510,c),
(166,510,l),
(189,609,o),
(254,663,o),
(336,663,cs),
(414,663,o),
(456,611,o),
(441,535,cs),
(426,460,o),
(362,392,o),
(278,392,cs),
(253,392,l),
(243,339,l),
(283,339,ls),
(390,339,o),
(422,260,o),
(409,196,cs),
(397,132,o),
(334,53,o),
(227,53,cs),
(187,53,l),
(177,0,l)
);
},
{
closed = 1;
nodes = (
(67,0,l),
(166,510,l),
(111,510,l),
(12,0,l)
);
}
);
width = 547;
}
);
metricLeft = l;
metricRight = o;
unicode = 223;
},
{
glyphname = t;
kernLeft = t;
kernRight = t;
lastChange = "2022-07-23 20:26:58 +0000";
layers = (
{
layerId = m01;
shapes = (
{
closed = 1;
nodes = (
(348,0,l),
(348,73,l),
(258,73,ls),
(218,73,o),
(198,93,o),
(198,133,cs),
(198,660,l),
(123,660,l),
(123,140,ls),
(123,50,o),
(173,0,o),
(263,0,cs)
);
},
{
closed = 1;
nodes = (
(348,427,l),
(348,500,l),
(15,500,l),
(15,427,l)
);
}
);
width = 378;
},
{
layerId = m005;
shapes = (
{
closed = 1;
nodes = (
(398,0,l),
(398,113,l),
(308,113,ls),
(268,113,o),
(248,133,o),
(248,173,cs),
(248,661,l),
(113,661,l),
(113,160,ls),
(113,50,o),
(173,0,o),
(283,0,cs)
);
},
{
closed = 1;
nodes = (
(398,387,l),
(398,500,l),
(5,500,l),
(5,387,l)
);
}
);
width = 418;
},
{
layerId = m007;
shapes = (
{
closed = 1;
nodes = (
(333,0,l),
(333,53,l),
(253,53,ls),
(208,53,o),
(183,78,o),
(183,123,cs),
(183,660,l),
(128,660,l),
(128,130,ls),
(128,44,o),
(172,0,o),
(258,0,cs)
);
},
{
closed = 1;
nodes = (
(333,447,l),
(333,500,l),
(20,500,l),
(20,447,l)
);
}
);
width = 368;
},
{
layerId = m004;
shapes = (
{
closed = 1;
nodes = (
(280,0,l),
(294,73,l),
(204,73,ls),
(164,73,o),
(148,93,o),
(156,133,cs),
(258,660,l),
(183,660,l),
(82,140,ls),
(63,42,o),
(105,0,o),
(205,0,cs)
);
},
{
closed = 1;
nodes = (
(363,427,l),
(377,500,l),
(44,500,l),
(30,427,l)
);
}
);
width = 379;
},
{
layerId = m008;
shapes = (
{
closed = 1;
nodes = (
(330,0,l),
(352,113,l),
(262,113,ls),
(222,113,o),
(206,133,o),
(214,173,cs),
(308,661,l),
(173,661,l),
(76,160,ls),
(55,50,o),
(105,0,o),
(215,0,cs)
);
},
{
closed = 1;
nodes = (
(405,387,l),
(427,500,l),
(34,500,l),
(12,387,l)
);
}
);
width = 419;
},
{
layerId = m006;
shapes = (
{
closed = 1;
nodes = (
(265,0,l),
(275,53,l),
(195,53,ls),
(150,53,o),
(130,78,o),
(139,123,cs),
(243,660,l),
(188,660,l),
(85,130,ls),
(69,44,o),
(104,0,o),
(190,0,cs)
);
},
{
closed = 1;
nodes = (
(352,447,l),
(362,500,l),
(49,500,l),
(39,447,l)
);
}
);
width = 369;
}
);
unicode = 116;
},
{
glyphname = tbar;
kernLeft = t;
kernRight = t;
lastChange = "2022-07-23 20:27:27 +0000";
layers = (
{
layerId = m01;
shapes = (
{
closed = 1;
nodes = (
(348,260,l),
(348,320,l),
(15,320,l),
(15,260,l)
);
},
{
ref = t;
}
);
width = 378;
},
{
layerId = m005;
shapes = (
{
closed = 1;
nodes = (
(398,220,l),
(398,310,l),
(5,310,l),
(5,220,l)
);
},
{
ref = t;
}
);
width = 418;
},
{
layerId = m007;
shapes = (
{
closed = 1;
nodes = (
(333,270,l),
(333,310,l),
(20,310,l),
(20,270,l)
);
},
{
ref = t;
}
);
width = 368;
},
{
layerId = m004;
shapes = (
{
closed = 1;
nodes = (
(331,260,l),
(342,320,l),
(9,320,l),
(-2,260,l)
);
},
{
ref = t;
}
);
width = 379;
},
{
layerId = m008;
shapes = (
{
closed = 1;
nodes = (
(373,220,l),
(390,310,l),
(-3,310,l),
(-20,220,l)
);
},
{
ref = t;
}
);
width = 419;
},
{
layerId = m006;
shapes = (
{
closed = 1;
nodes = (
(317,270,l),
(325,310,l),
(12,310,l),
(4,270,l)
);
},
{
ref = t;
}
);
width = 369;
}
);
metricLeft = t;
metricRight = t;
unicode = 359;
},
{
glyphname = u;
kernLeft = u;
kernRight = u;
lastChange = "2022-07-28 09:57:00 +0000";
layers = (
{
layerId = m01;
shapes = (
{
closed = 1;
nodes = (
(318,-16,o),
(398,61,o),
(398,161,c),
(393,257,l),
(393,107,o),
(323,57,o),
(243,57,cs),
(173,57,o),
(140,101,o),
(140,181,cs),
(140,500,l),
(65,500,l),
(65,151,ls),
(65,41,o),
(128,-16,o),
(218,-16,cs)
);
},
{
closed = 1;
nodes = (
(468,0,l),
(468,500,l),
(393,500,l),
(393,0,l)
);
}
);
width = 543;
},
{
layerId = m005;
shapes = (
{
closed = 1;
nodes = (
(341,-16,o),
(399,87,o),
(399,207,c),
(383,257,l),
(383,146,o),
(332,97,o),
(272,97,cs),
(232,97,o),
(190,107,o),
(190,197,cs),
(190,500,l),
(55,500,l),
(55,181,ls),
(55,41,o),
(121,-16,o),
(211,-16,cs)
);
},
{
closed = 1;
nodes = (
(518,0,l),
(518,500,l),
(383,500,l),
(383,0,l)
);
}
);
width = 583;
},
{
layerId = m007;
shapes = (
{
closed = 1;
nodes = (
(323,-16,o),
(408,51,o),
(408,181,c),
(398,257,l),
(398,97,o),
(323,37,o),
(238,37,cs),
(158,37,o),
(125,91,o),
(125,191,cs),
(125,500,l),
(70,500,l),
(70,161,ls),
(70,41,o),
(133,-16,o),
(223,-16,cs)
);
},
{
closed = 1;
nodes = (
(453,0,l),
(453,500,l),
(398,500,l),
(398,0,l)
);
}
);
width = 533;
},
{
layerId = m004;
shapes = (
{
closed = 1;
nodes = (
(257,-16,o),
(347,72,o),
(359,151,cs),
(375,257,l),
(346,110,o),
(256,57,o),
(186,57,cs),
(126,57,o),
(92,102,o),
(111,200,cs),
(169,500,l),
(94,500,l),
(32,182,ls),
(5,45,o),
(67,-16,o),
(157,-16,cs)
);
},
{
closed = 1;
nodes = (
(400,0,l),
(497,500,l),
(422,500,l),
(325,0,l)
);
}
);
width = 544;
},
{
layerId = m008;
shapes = (
{
closed = 1;
nodes = (
(270,-16,o),
(348,89,o),
(371,207,c),
(365,257,l),
(343,146,o),
(283,97,o),
(223,97,cs),
(183,97,o),
(147,128,o),
(160,197,cs),
(219,500,l),
(84,500,l),
(22,181,ls),
(-1,63,o),
(50,-16,o),
(160,-16,cs)
);
},
{
closed = 1;
nodes = (
(450,0,l),
(547,500,l),
(412,500,l),
(315,0,l)
);
}
);
width = 584;
},
{
layerId = m006;
shapes = (
{
closed = 1;
nodes = (
(252,-16,o),
(350,51,o),
(375,181,c),
(380,257,l),
(349,97,o),
(262,37,o),
(177,37,cs),
(97,37,o),
(75,91,o),
(94,191,cs),
(154,500,l),
(99,500,l),
(33,161,ls),
(10,41,o),
(62,-16,o),
(152,-16,cs)
);
},
{
closed = 1;
nodes = (
(385,0,l),
(482,500,l),
(427,500,l),
(330,0,l)
);
}
);
width = 534;
}
);
unicode = 117;
},
{
glyphname = v;
kernLeft = v;
kernRight = v;
lastChange = "2022-08-21 06:57:19 +0000";
layers = (
{
layerId = m01;
shapes = (
{
closed = 1;
nodes = (
(287,0,l),
(475,500,l),
(397,500,l),
(225,43,l),
(256,43,l),
(93,500,l),
(15,500,l),
(193,0,l)
);
}
);
width = 490;
},
{
layerId = m005;
shapes = (
{
closed = 1;
nodes = (
(361,0,l),
(554,500,l),
(410,500,l),
(259,109,l),
(290,109,l),
(148,500,l),
(5,500,l),
(187,0,l)
);
}
);
width = 559;
},
{
layerId = m007;
shapes = (
{
closed = 1;
nodes = (
(266,0,l),
(452,500,l),
(395,500,l),
(216,19,l),
(247,19,l),
(77,500,l),
(20,500,l),
(196,0,l)
);
}
);
width = 472;
},
{
layerId = m004;
shapes = (
{
closed = 1;
nodes = (
(219,0,l),
(504,500,l),
(422,500,l),
(163,46,l),
(192,41,l),
(118,500,l),
(44,500,l),
(125,0,l)
);
}
);
width = 490;
},
{
layerId = m008;
shapes = (
{
closed = 1;
nodes = (
(293,0,l),
(583,500,l),
(437,500,l),
(204,98,l),
(235,93,l),
(165,500,l),
(34,500,l),
(119,0,l)
);
}
);
width = 559;
},
{
layerId = m006;
shapes = (
{
closed = 1;
nodes = (
(198,0,l),
(481,500,l),
(422,500,l),
(151,22,l),
(180,17,l),
(104,500,l),
(49,500,l),
(128,0,l)
);
}
);
width = 472;
}
);
unicode = 118;
},
{
glyphname = w;
kernLeft = w;
kernRight = w;
lastChange = "2022-08-21 06:55:59 +0000";
layers = (
{
layerId = m01;
shapes = (
{
closed = 1;
nodes = (
(250,0,l),
(396,446,l),
(368,446,l),
(513,0,l),
(611,0,l),
(733,500,l),
(655,500,l),
(543,40,l),
(568,41,l),
(418,500,l),
(345,500,l),
(195,41,l),
(220,40,l),
(108,500,l),
(30,500,l),
(152,0,l)
);
}
);
width = 763;
},
{
layerId = m005;
shapes = (
{
closed = 1;
nodes = (
(295,0,l),
(405,352,l),
(379,352,l),
(488,0,l),
(641,0,l),
(763,500,l),
(620,500,l),
(535,152,l),
(559,153,l),
(451,500,l),
(332,500,l),
(224,153,l),
(248,152,l),
(163,500,l),
(20,500,l),
(142,0,l)
);
}
);
width = 783;
},
{
layerId = m007;
shapes = (
{
closed = 1;
nodes = (
(235,0,l),
(384,446,l),
(374,446,l),
(522,0,l),
(600,0,l),
(722,500,l),
(665,500,l),
(553,41,l),
(560,40,l),
(407,500,l),
(350,500,l),
(197,40,l),
(204,41,l),
(92,500,l),
(35,500,l),
(157,0,l)
);
}
);
width = 757;
},
{
layerId = m004;
shapes = (
{
closed = 1;
nodes = (
(182,0,l),
(415,446,l),
(382,446,l),
(440,0,l),
(543,0,l),
(762,500,l),
(679,500,l),
(478,40,l),
(504,41,l),
(443,500,l),
(366,500,l),
(127,41,l),
(155,40,l),
(132,500,l),
(59,500,l),
(84,0,l)
);
}
);
width = 763;
},
{
layerId = m008;
shapes = (
{
closed = 1;
nodes = (
(222,0,l),
(400,352,l),
(374,352,l),
(415,0,l),
(573,0,l),
(792,500,l),
(654,500,l),
(502,152,l),
(516,153,l),
(475,500,l),
(355,500,l),
(180,153,l),
(194,152,l),
(176,500,l),
(49,500,l),
(74,0,l)
);
}
);
width = 783;
},
{
layerId = m006;
shapes = (
{
closed = 1;
nodes = (
(167,0,l),
(403,446,l),
(393,446,l),
(454,0,l),
(532,0,l),
(751,500,l),
(694,500,l),
(493,41,l),
(500,40,l),
(436,500,l),
(374,500,l),
(132,40,l),
(139,41,l),
(116,500,l),
(64,500,l),
(89,0,l)
);
}
);
width = 757;
}
);
metricLeft = "=v+15";
metricRight = "=v+15";
unicode = 119;
},
{
glyphname = x;
kernLeft = x;
kernRight = x;
lastChange = "2022-08-21 06:52:33 +0000";
layers = (
{
layerId = m01;
shapes = (
{
closed = 1;
nodes = (
(462,0,l),
(106,500,l),
(20,500,l),
(376,0,l)
);
},
{
closed = 1;
nodes = (
(106,0,l),
(462,500,l),
(376,500,l),
(20,0,l)
);
}
);
width = 482;
},
{
layerId = m005;
shapes = (
{
closed = 1;
nodes = (
(536,0,l),
(172,500,l),
(10,500,l),
(374,0,l)
);
},
{
closed = 1;
nodes = (
(172,0,l),
(536,500,l),
(374,500,l),
(10,0,l)
);
}
);
width = 546;
},
{
layerId = m007;
shapes = (
{
closed = 1;
nodes = (
(439,0,l),
(87,500,l),
(25,500,l),
(377,0,l)
);
},
{
closed = 1;
nodes = (
(87,0,l),
(439,500,l),
(377,500,l),
(25,0,l)
);
}
);
width = 464;
},
{
layerId = m004;
shapes = (
{
closed = 1;
nodes = (
(393,0,l),
(134,500,l),
(53,500,l),
(312,0,l)
);
},
{
closed = 1;
nodes = (
(42,0,l),
(495,500,l),
(404,500,l),
(-49,0,l)
);
}
);
width = 486;
},
{
layerId = m008;
shapes = (
{
closed = 1;
nodes = (
(467,0,l),
(200,500,l),
(48,500,l),
(315,0,l)
);
},
{
closed = 1;
nodes = (
(103,0,l),
(564,500,l),
(402,500,l),
(-59,0,l)
);
}
);
width = 546;
},
{
layerId = m006;
shapes = (
{
closed = 1;
nodes = (
(371,0,l),
(116,500,l),
(54,500,l),
(309,0,l)
);
},
{
closed = 1;
nodes = (
(19,0,l),
(468,500,l),
(406,500,l),
(-43,0,l)
);
}
);
width = 465;
}
);
unicode = 120;
},
{
glyphname = y;
kernLeft = y;
kernRight = y;
lastChange = "2022-08-02 18:57:16 +0000";
layers = (
{
layerId = m01;
shapes = (
{
closed = 1;
nodes = (
(281,0,l),
(92,500,l),
(15,500,l),
(204,0,l)
);
},
{
closed = 1;
nodes = (
(198,-200,l),
(491,500,l),
(413,500,l),
(120,-200,l)
);
}
);
width = 506;
},
{
layerId = m005;
shapes = (
{
closed = 1;
nodes = (
(347,0,l),
(143,500,l),
(5,500,l),
(209,0,l)
);
},
{
closed = 1;
nodes = (
(261,-200,l),
(570,500,l),
(430,500,l),
(121,-200,l)
);
}
);
width = 575;
},
{
layerId = m007;
shapes = (
{
closed = 1;
nodes = (
(263,0,l),
(77,500,l),
(20,500,l),
(207,0,l)
);
},
{
closed = 1;
nodes = (
(182,-200,l),
(467,500,l),
(411,500,l),
(126,-200,l)
);
}
);
width = 487;
},
{
layerId = m004;
shapes = (
{
closed = 1;
nodes = (
(208,0,l),
(116,500,l),
(44,500,l),
(136,0,l)
);
},
{
closed = 1;
nodes = (
(91,-200,l),
(520,500,l),
(437,500,l),
(8,-200,l)
);
}
);
width = 506;
},
{
layerId = m008;
shapes = (
{
closed = 1;
nodes = (
(269,0,l),
(162,500,l),
(34,500,l),
(141,0,l)
);
},
{
closed = 1;
nodes = (
(154,-200,l),
(599,500,l),
(449,500,l),
(4,-200,l)
);
}
);
width = 575;
},
{
layerId = m006;
shapes = (
{
closed = 1;
nodes = (
(195,0,l),
(106,500,l),
(49,500,l),
(139,0,l)
);
},
{
closed = 1;
nodes = (
(75,-200,l),
(496,500,l),
(440,500,l),
(19,-200,l)
);
}
);
width = 487;
}
);
metricLeft = v;
metricRight = v;
unicode = 121;
},
{
glyphname = z;
kernLeft = z;
kernRight = z;
lastChange = "2022-08-11 18:04:23 +0000";
layers = (
{
layerId = m01;
shapes = (
{
closed = 1;
nodes = (
(123,68,l),
(432,432,l),
(345,432,l),
(35,68,l)
);
},
{
closed = 1;
nodes = (
(432,0,l),
(432,68,l),
(35,68,l),
(35,0,l)
);
},
{
closed = 1;
nodes = (
(432,432,l),
(432,500,l),
(35,500,l),
(35,432,l)
);
}
);
width = 467;
},
{
layerId = m005;
shapes = (
{
closed = 1;
nodes = (
(189,108,l),
(462,392,l),
(299,392,l),
(25,108,l)
);
},
{
closed = 1;
nodes = (
(462,0,l),
(462,108,l),
(25,108,l),
(25,0,l)
);
},
{
closed = 1;
nodes = (
(462,392,l),
(462,500,l),
(25,500,l),
(25,392,l)
);
}
);
width = 487;
},
{
layerId = m007;
shapes = (
{
closed = 1;
nodes = (
(111,48,l),
(427,452,l),
(367,452,l),
(50,48,l)
);
},
{
closed = 1;
nodes = (
(427,0,l),
(427,48,l),
(50,48,l),
(50,0,l)
);
},
{
closed = 1;
nodes = (
(427,452,l),
(427,500,l),
(50,500,l),
(50,452,l)
);
}
);
width = 472;
},
{
layerId = m004;
shapes = (
{
closed = 1;
nodes = (
(68,68,l),
(448,432,l),
(361,432,l),
(-20,68,l)
);
},
{
closed = 1;
nodes = (
(364,0,l),
(377,68,l),
(-20,68,l),
(-33,0,l)
);
},
{
closed = 1;
nodes = (
(448,432,l),
(461,500,l),
(64,500,l),
(51,432,l)
);
}
);
width = 468;
},
{
layerId = m008;
shapes = (
{
closed = 1;
nodes = (
(142,108,l),
(470,392,l),
(307,392,l),
(-22,108,l)
);
},
{
closed = 1;
nodes = (
(394,0,l),
(415,108,l),
(-22,108,l),
(-43,0,l)
);
},
{
closed = 1;
nodes = (
(470,392,l),
(491,500,l),
(54,500,l),
(33,392,l)
);
}
);
width = 488;
},
{
layerId = m006;
shapes = (
{
closed = 1;
nodes = (
(57,48,l),
(447,452,l),
(382,452,l),
(-9,48,l)
);
},
{
closed = 1;
nodes = (
(359,0,l),
(368,48,l),
(-9,48,l),
(-18,0,l)
);
},
{
closed = 1;
nodes = (
(447,452,l),
(456,500,l),
(79,500,l),
(70,452,l)
);
}
);
width = 473;
}
);
unicode = 122;
},
{
glyphname = y.ss02;
kernLeft = y;
kernRight = y;
lastChange = "2022-08-07 08:00:57 +0000";
layers = (
{
layerId = m01;
shapes = (
{
closed = 1;
nodes = (
(117,-200,ls),
(178,-200,o),
(229,-166,o),
(252,-109,cs),
(499,500,l),
(421,500,l),
(240,55,l),
(274,55,l),
(93,500,l),
(15,500,l),
(218,1,l),
(185,-80,ls),
(173,-110,o),
(147,-127,o),
(116,-127,cs),
(37,-127,l),
(37,-200,l)
);
}
);
width = 514;
},
{
layerId = m005;
shapes = (
{
closed = 1;
nodes = (
(161,-200,ls),
(235,-200,o),
(297,-160,o),
(327,-91,cs),
(584,500,l),
(435,500,l),
(274,132,l),
(309,132,l),
(154,500,l),
(5,500,l),
(217,0,l),
(202,-33,ls),
(190,-61,o),
(164,-77,o),
(135,-77,cs),
(35,-77,l),
(35,-200,l)
);
}
);
width = 589;
},
{
layerId = m007;
shapes = (
{
closed = 1;
nodes = (
(107,-200,ls),
(165,-200,o),
(212,-169,o),
(233,-115,cs),
(474,500,l),
(418,500,l),
(245,65,l),
(249,65,l),
(76,500,l),
(20,500,l),
(219,1,l),
(184,-94,ls),
(172,-128,o),
(141,-147,o),
(106,-147,cs),
(37,-147,l),
(37,-200,l)
);
}
);
width = 494;
},
{
layerId = m004;
shapes = (
{
closed = 1;
nodes = (
(5,-200,ls),
(66,-200,o),
(129,-166,o),
(163,-109,cs),
(528,500,l),
(445,500,l),
(178,55,l),
(212,55,l),
(117,500,l),
(44,500,l),
(150,1,l),
(96,-80,ls),
(77,-109,o),
(49,-127,o),
(18,-127,cs),
(-61,-127,l),
(-75,-200,l)
);
}
);
width = 514;
},
{
layerId = m008;
shapes = (
{
closed = 1;
nodes = (
(40,-200,ls),
(130,-200,o),
(188,-167,o),
(236,-91,cs),
(608,500,l),
(450,500,l),
(218,132,l),
(251,132,l),
(167,500,l),
(34,500,l),
(149,0,l),
(124,-33,ls),
(99,-66,o),
(78,-77,o),
(38,-77,cs),
(-62,-77,l),
(-86,-200,l)
);
}
);
width = 584;
},
{
layerId = m006;
shapes = (
{
closed = 1;
nodes = (
(0,-200,ls),
(58,-200,o),
(111,-169,o),
(143,-115,cs),
(503,500,l),
(447,500,l),
(190,65,l),
(194,65,l),
(105,500,l),
(49,500,l),
(151,1,l),
(98,-94,ls),
(79,-128,o),
(44,-147,o),
(9,-147,cs),
(-60,-147,l),
(-70,-200,l)
);
}
);
width = 494;
}
);
metricLeft = y;
metricRight = y;
},
{
glyphname = oslash.ss03;
kernLeft = o;
kernRight = o;
lastChange = "2022-08-07 08:03:58 +0000";
layers = (
{
layerId = m01;
shapes = (
{
closed = 1;
nodes = (
(93,0,l),
(586,500,l),
(508,500,l),
(15,0,l)
);
},
{
pos = (20,0);
ref = o;
}
);
width = 601;
},
{
layerId = m005;
shapes = (
{
closed = 1;
nodes = (
(124,0,l),
(628,500,l),
(509,500,l),
(5,0,l)
);
},
{
pos = (21,0);
ref = o;
}
);
width = 633;
},
{
layerId = m007;
shapes = (
{
closed = 1;
nodes = (
(70,0,l),
(543,500,l),
(493,500,l),
(20,0,l)
);
},
{
pos = (6,0);
ref = o;
}
);
width = 563;
},
{
layerId = m004;
shapes = (
{
closed = 1;
nodes = (
(24,0,l),
(614,500,l),
(536,500,l),
(-54,0,l)
);
},
{
pos = (19,0);
ref = o;
}
);
width = 600;
},
{
layerId = m008;
shapes = (
{
closed = 1;
nodes = (
(65,0,l),
(666,500,l),
(537,500,l),
(-64,0,l)
);
},
{
pos = (26,0);
ref = o;
}
);
width = 642;
},
{
layerId = m006;
shapes = (
{
closed = 1;
nodes = (
(1,0,l),
(571,500,l),
(521,500,l),
(-49,0,l)
);
},
{
pos = (5,0);
ref = o;
}
);
width = 562;
}
);
metricLeft = "=o-30";
metricRight = "=o-30";
},
{
glyphname = a.ss04;
kernLeft = o;
kernRight = u;
lastChange = "2022-08-15 17:20:01 +0000";
layers = (
{
layerId = m007;
shapes = (
{
closed = 1;
nodes = (
(491,0,l),
(491,500,l),
(436,500,l),
(436,0,l)
);
},
{
closed = 1;
nodes = (
(362,-16,o),
(446,70,o),
(446,170,cs),
(446,330,ls),
(446,430,o),
(362,516,o),
(262,516,cs),
(132,516,o),
(50,390,o),
(50,250,cs),
(50,110,o),
(132,-16,o),
(262,-16,cs)
);
},
{
closed = 1;
nodes = (
(182,37,o),
(108,115,o),
(108,250,cs),
(108,385,o),
(182,463,o),
(272,463,cs),
(352,463,o),
(436,390,o),
(436,250,cs),
(436,110,o),
(352,37,o),
(272,37,cs)
);
}
);
width = 571;
},
{
layerId = m01;
shapes = (
{
closed = 1;
nodes = (
(506,0,l),
(506,500,l),
(431,500,l),
(431,0,l)
);
},
{
closed = 1;
nodes = (
(377,-16,o),
(436,70,o),
(436,170,c),
(436,330,l),
(436,430,o),
(377,516,o),
(267,516,cs),
(127,516,o),
(45,390,o),
(45,250,cs),
(45,110,o),
(127,-16,o),
(267,-16,cs)
);
},
{
closed = 1;
nodes = (
(197,57,o),
(123,120,o),
(123,250,cs),
(123,380,o),
(197,443,o),
(277,443,cs),
(357,443,o),
(431,380,o),
(431,250,cs),
(431,120,o),
(357,57,o),
(277,57,cs)
);
}
);
width = 581;
},
{
layerId = m005;
shapes = (
{
closed = 1;
nodes = (
(556,0,l),
(556,500,l),
(421,500,l),
(421,0,l)
);
},
{
closed = 1;
nodes = (
(397,-16,o),
(436,100,o),
(436,210,c),
(436,290,l),
(436,400,o),
(397,516,o),
(257,516,cs),
(107,516,o),
(35,398,o),
(35,250,cs),
(35,102,o),
(107,-16,o),
(257,-16,cs)
);
},
{
closed = 1;
nodes = (
(237,97,o),
(173,140,o),
(173,250,cs),
(173,360,o),
(237,403,o),
(297,403,cs),
(357,403,o),
(421,360,o),
(421,250,cs),
(421,140,o),
(357,97,o),
(297,97,cs)
);
}
);
width = 621;
},
{
layerId = m006;
shapes = (
{
closed = 1;
nodes = (
(423,0,l),
(520,500,l),
(465,500,l),
(368,0,l)
);
},
{
closed = 1;
nodes = (
(321,-16,o),
(392,72,o),
(411,170,cs),
(442,330,ls),
(461,428,o),
(394,516,o),
(294,516,cs),
(164,516,o),
(61,407,o),
(30,250,cs),
(6,122,o),
(71,-16,o),
(201,-16,cs)
);
},
{
closed = 1;
nodes = (
(121,37,o),
(62,112,o),
(88,250,cs),
(115,387,o),
(204,463,o),
(294,463,cs),
(384,463,o),
(444,390,o),
(416,250,cs),
(389,110,o),
(301,37,o),
(211,37,cs)
);
}
);
width = 572;
},
{
layerId = m004;
shapes = (
{
closed = 1;
nodes = (
(436,0,l),
(533,500,l),
(458,500,l),
(361,0,l)
);
},
{
closed = 1;
nodes = (
(289,-16,o),
(378,52,o),
(400,170,c),
(431,330,l),
(451,428,o),
(386,516,o),
(276,516,cs),
(176,516,o),
(59,422,o),
(26,255,cs),
(-4,98,o),
(79,-16,o),
(189,-16,cs)
);
},
{
closed = 1;
nodes = (
(129,57,o),
(82,136,o),
(105,255,cs),
(126,362,o),
(206,443,o),
(286,443,cs),
(366,443,o),
(432,368,o),
(409,250,cs),
(386,132,o),
(299,57,o),
(219,57,cs)
);
}
);
width = 580;
},
{
layerId = m008;
shapes = (
{
closed = 1;
nodes = (
(488,0,l),
(585,500,l),
(450,500,l),
(353,0,l)
);
},
{
closed = 1;
nodes = (
(326,-16,o),
(387,92,o),
(409,210,cs),
(424,290,ls),
(446,408,o),
(419,516,o),
(279,516,cs),
(149,516,o),
(44,397,o),
(15,250,cs),
(-13,103,o),
(56,-16,o),
(186,-16,cs)
);
},
{
closed = 1;
nodes = (
(188,97,o),
(132,140,o),
(153,250,cs),
(175,360,o),
(247,403,o),
(307,403,cs),
(367,403,o),
(423,360,o),
(401,250,cs),
(380,140,o),
(308,97,o),
(248,97,cs)
);
}
);
width = 622;
}
);
metricLeft = o;
metricRight = u;
},
{
glyphname = Delta;
lastChange = "2022-08-06 07:02:55 +0000";
layers = (
{
layerId = m01;
shapes = (
{
closed = 1;
nodes = (
(678,0,l),
(445,700,l),
(343,700,l),
(100,0,l)
);
},
{
closed = 1;
nodes = (
(408,664,l),
(379,664,l),
(590,30,l),
(621,73,l),
(158,73,l),
(188,30,l)
);
}
);
width = 778;
},
{
layerId = m005;
shapes = (
{
closed = 1;
nodes = (
(724,0,l),
(477,700,l),
(347,700,l),
(90,0,l)
);
},
{
closed = 1;
nodes = (
(459,679,l),
(364,679,l),
(580,70,l),
(611,113,l),
(204,113,l),
(234,70,l)
);
}
);
width = 814;
},
{
layerId = m007;
shapes = (
{
closed = 1;
nodes = (
(655,0,l),
(419,700,l),
(351,700,l),
(105,0,l)
);
},
{
closed = 1;
nodes = (
(395,664,l),
(374,664,l),
(584,42,l),
(592,53,l),
(168,53,l),
(176,42,l)
);
}
);
width = 760;
},
{
layerId = m004;
shapes = (
{
closed = 1;
nodes = (
(609,0,l),
(512,700,l),
(410,700,l),
(31,0,l)
);
},
{
closed = 1;
nodes = (
(473,664,l),
(439,664,l),
(527,30,l),
(566,73,l),
(103,73,l),
(130,30,l)
);
}
);
width = 778;
},
{
layerId = m008;
shapes = (
{
closed = 1;
nodes = (
(645,0,l),
(534,700,l),
(404,700,l),
(11,0,l)
);
},
{
closed = 1;
nodes = (
(522,679,l),
(417,679,l),
(515,70,l),
(554,113,l),
(147,113,l),
(179,70,l)
);
}
);
width = 794;
},
{
layerId = m006;
shapes = (
{
closed = 1;
nodes = (
(586,0,l),
(486,700,l),
(418,700,l),
(36,0,l)
);
},
{
closed = 1;
nodes = (
(460,664,l),
(434,664,l),
(523,42,l),
(533,53,l),
(109,53,l),
(120,42,l)
);
}
);
width = 760;
}
);
unicode = 916;
},
{
glyphname = Omega;
lastChange = "2022-08-06 07:03:01 +0000";
layers = (
{
layerId = m01;
shapes = (
{
closed = 1;
nodes = (
(330,0,l),
(330,74,l),
(210,174,o),
(140,264,o),
(140,394,cs),
(140,524,o),
(230,643,o),
(390,643,cs),
(550,643,o),
(641,524,o),
(640,394,cs),
(639,264,o),
(570,174,o),
(450,74,c),
(450,0,l),
(740,0,l),
(740,74,l),
(520,74,l),
(520,54,l),
(609,115,o),
(718,214,o),
(718,394,cs),
(718,574,o),
(590,716,o),
(390,716,cs),
(190,716,o),
(62,574,o),
(62,394,cs),
(62,214,o),
(171,115,o),
(260,54,c),
(260,74,l),
(40,74,l),
(40,0,l)
);
}
);
width = 780;
},
{
layerId = m005;
shapes = (
{
closed = 1;
nodes = (
(350,0,l),
(350,104,l),
(225,183,o),
(190,294,o),
(190,394,cs),
(190,514,o),
(265,623,o),
(405,623,cs),
(545,623,o),
(620,514,o),
(620,394,cs),
(620,294,o),
(586,183,o),
(460,104,c),
(460,0,l),
(780,0,l),
(780,114,l),
(540,114,l),
(540,70,l),
(683,141,o),
(768,254,o),
(768,404,cs),
(768,584,o),
(625,736,o),
(405,736,cs),
(185,736,o),
(42,584,o),
(42,404,cs),
(42,254,o),
(127,141,o),
(270,70,c),
(270,114,l),
(30,114,l),
(30,0,l)
);
}
);
width = 810;
},
{
layerId = m007;
shapes = (
{
closed = 1;
nodes = (
(315,10,l),
(315,69,l),
(196,169,o),
(125,261,o),
(125,394,cs),
(125,529,o),
(219,653,o),
(385,653,cs),
(551,653,o),
(646,529,o),
(645,394,cs),
(644,262,o),
(574,169,o),
(455,69,c),
(455,10,l),
(725,10,l),
(725,64,l),
(525,64,l),
(525,73,l),
(610,134,o),
(703,229,o),
(703,394,cs),
(703,570,o),
(581,706,o),
(385,706,cs),
(189,706,o),
(67,570,o),
(67,394,cs),
(67,229,o),
(160,134,o),
(245,73,c),
(245,64,l),
(45,64,l),
(45,10,l)
);
}
);
width = 770;
},
{
layerId = m004;
shapes = (
{
closed = 1;
nodes = (
(262,0,l),
(276,74,l),
(176,174,o),
(123,264,o),
(149,394,cs),
(174,524,o),
(287,643,o),
(447,643,cs),
(607,643,o),
(675,524,o),
(649,394,cs),
(622,264,o),
(536,174,o),
(396,74,c),
(382,0,l),
(672,0,l),
(686,74,l),
(466,74,l),
(462,54,l),
(563,115,o),
(692,214,o),
(727,394,cs),
(762,574,o),
(661,716,o),
(461,716,cs),
(261,716,o),
(106,574,o),
(71,394,cs),
(36,214,o),
(125,115,o),
(202,54,c),
(206,74,l),
(-14,74,l),
(-28,0,l)
);
}
);
width = 781;
},
{
layerId = m008;
shapes = (
{
closed = 1;
nodes = (
(292,0,l),
(312,104,l),
(203,183,o),
(189,294,o),
(209,394,cs),
(232,514,o),
(328,623,o),
(468,623,cs),
(608,623,o),
(662,514,o),
(639,394,cs),
(619,294,o),
(564,183,o),
(422,104,c),
(402,0,l),
(722,0,l),
(744,114,l),
(504,114,l),
(496,70,l),
(652,141,o),
(759,254,o),
(788,404,cs),
(823,584,o),
(710,736,o),
(490,736,cs),
(270,736,o),
(97,584,o),
(62,404,cs),
(33,254,o),
(96,141,o),
(226,70,c),
(234,114,l),
(-6,114,l),
(-28,0,l)
);
}
);
width = 831;
},
{
layerId = m006;
shapes = (
{
closed = 1;
nodes = (
(249,10,l),
(260,69,l),
(161,169,o),
(108,261,o),
(134,394,cs),
(160,529,o),
(278,653,o),
(444,653,cs),
(610,653,o),
(681,529,o),
(654,394,cs),
(627,262,o),
(539,169,o),
(400,69,c),
(389,10,l),
(659,10,l),
(669,64,l),
(469,64,l),
(471,73,l),
(568,134,o),
(679,229,o),
(712,394,cs),
(746,570,o),
(650,706,o),
(454,706,cs),
(258,706,o),
(110,570,o),
(76,394,cs),
(43,229,o),
(118,134,o),
(191,73,c),
(189,64,l),
(-11,64,l),
(-21,10,l)
);
}
);
width = 771;
}
);
unicode = 937;
},
{
glyphname = mu;
lastChange = "2022-08-01 06:18:12 +0000";
layers = (
{
layerId = m01;
shapes = (
{
closed = 1;
nodes = (
(328,-16,o),
(408,61,o),
(408,161,c),
(403,257,l),
(403,107,o),
(333,57,o),
(253,57,cs),
(183,57,o),
(150,101,o),
(150,181,cs),
(150,190,l),
(75,190,l),
(75,151,ls),
(75,41,o),
(138,-16,o),
(228,-16,cs)
);
},
{
closed = 1;
nodes = (
(150,-200,l),
(150,500,l),
(75,500,l),
(75,-200,l)
);
},
{
closed = 1;
nodes = (
(478,0,l),
(478,500,l),
(403,500,l),
(403,0,l)
);
}
);
width = 553;
},
{
layerId = m005;
shapes = (
{
closed = 1;
nodes = (
(351,-16,o),
(409,87,o),
(409,207,c),
(393,257,l),
(393,146,o),
(342,97,o),
(282,97,cs),
(242,97,o),
(200,107,o),
(200,197,cs),
(200,500,l),
(65,500,l),
(65,181,ls),
(65,41,o),
(131,-16,o),
(221,-16,cs)
);
},
{
closed = 1;
nodes = (
(200,-200,l),
(200,210,l),
(65,210,l),
(65,-200,l)
);
},
{
closed = 1;
nodes = (
(528,0,l),
(528,500,l),
(393,500,l),
(393,0,l)
);
}
);
width = 593;
},
{
layerId = m007;
shapes = (
{
closed = 1;
nodes = (
(333,-16,o),
(418,51,o),
(418,181,c),
(408,257,l),
(408,97,o),
(333,47,o),
(248,47,cs),
(168,47,o),
(135,91,o),
(135,191,cs),
(135,200,l),
(80,200,l),
(80,161,ls),
(80,41,o),
(143,-16,o),
(233,-16,cs)
);
},
{
closed = 1;
nodes = (
(135,-200,l),
(135,500,l),
(80,500,l),
(80,-200,l)
);
},
{
closed = 1;
nodes = (
(463,0,l),
(463,500,l),
(408,500,l),
(408,0,l)
);
}
);
width = 543;
},
{
layerId = m004;
shapes = (
{
closed = 1;
nodes = (
(268,-16,o),
(358,72,o),
(370,151,cs),
(386,257,l),
(359,120,o),
(267,57,o),
(197,57,cs),
(137,57,o),
(103,102,o),
(122,200,cs),
(180,500,l),
(105,500,l),
(43,182,ls),
(16,45,o),
(78,-16,o),
(168,-16,cs)
);
},
{
closed = 1;
nodes = (
(44,-200,l),
(122,200,l),
(43,184,l),
(-32,-200,l)
);
},
{
closed = 1;
nodes = (
(411,0,l),
(508,500,l),
(433,500,l),
(336,0,l)
);
}
);
width = 555;
},
{
layerId = m008;
shapes = (
{
closed = 1;
nodes = (
(280,-16,o),
(358,89,o),
(381,207,c),
(375,257,l),
(353,146,o),
(293,97,o),
(233,97,cs),
(193,97,o),
(157,128,o),
(170,197,cs),
(229,500,l),
(94,500,l),
(32,181,ls),
(9,63,o),
(60,-16,o),
(170,-16,cs)
);
},
{
closed = 1;
nodes = (
(93,-200,l),
(170,197,l),
(32,181,l),
(-42,-200,l)
);
},
{
closed = 1;
nodes = (
(460,0,l),
(557,500,l),
(422,500,l),
(325,0,l)
);
}
);
width = 594;
},
{
layerId = m006;
shapes = (
{
closed = 1;
nodes = (
(262,-16,o),
(360,51,o),
(385,181,c),
(390,257,l),
(359,97,o),
(272,37,o),
(187,37,cs),
(107,37,o),
(85,91,o),
(104,191,cs),
(164,500,l),
(109,500,l),
(43,161,ls),
(20,41,o),
(72,-16,o),
(162,-16,cs)
);
},
{
closed = 1;
nodes = (
(28,-200,l),
(104,191,l),
(43,161,l),
(-27,-200,l)
);
},
{
closed = 1;
nodes = (
(395,0,l),
(492,500,l),
(437,500,l),
(340,0,l)
);
}
);
width = 544;
}
);
metricLeft = m;
metricRight = u;
unicode = 956;
},
{
glyphname = pi;
lastChange = "2022-07-23 20:25:53 +0000";
layers = (
{
layerId = m01;
shapes = (
{
closed = 1;
nodes = (
(615,0,l),
(615,73,l),
(575,73,ls),
(535,73,o),
(515,93,o),
(515,133,cs),
(515,500,l),
(440,500,l),
(440,140,ls),
(440,50,o),
(490,0,o),
(580,0,cs)
);
},
{
closed = 1;
nodes = (
(250,0,l),
(250,500,l),
(175,500,l),
(175,0,l)
);
},
{
closed = 1;
nodes = (
(615,437,l),
(615,500,l),
(75,500,l),
(75,437,l)
);
}
);
width = 690;
},
{
layerId = m005;
shapes = (
{
closed = 1;
nodes = (
(675,0,l),
(675,113,l),
(635,113,ls),
(595,113,o),
(575,133,o),
(575,173,cs),
(575,500,l),
(440,500,l),
(440,160,ls),
(440,50,o),
(500,0,o),
(610,0,cs)
);
},
{
closed = 1;
nodes = (
(300,0,l),
(300,500,l),
(165,500,l),
(165,0,l)
);
},
{
closed = 1;
nodes = (
(675,397,l),
(675,500,l),
(65,500,l),
(65,397,l)
);
}
);
width = 740;
},
{
layerId = m007;
shapes = (
{
closed = 1;
nodes = (
(600,0,l),
(600,53,l),
(570,53,ls),
(525,53,o),
(500,78,o),
(500,123,cs),
(500,500,l),
(445,500,l),
(445,130,ls),
(445,44,o),
(489,0,o),
(575,0,cs)
);
},
{
closed = 1;
nodes = (
(235,0,l),
(235,500,l),
(180,500,l),
(180,0,l)
);
},
{
closed = 1;
nodes = (
(600,447,l),
(600,500,l),
(80,500,l),
(80,447,l)
);
}
);
width = 680;
},
{
layerId = m004;
shapes = (
{
closed = 1;
nodes = (
(547,0,l),
(561,73,l),
(521,73,ls),
(481,73,o),
(465,93,o),
(473,133,cs),
(544,500,l),
(469,500,l),
(399,140,ls),
(380,42,o),
(422,0,o),
(522,0,cs)
);
},
{
closed = 1;
nodes = (
(182,0,l),
(279,500,l),
(204,500,l),
(107,0,l)
);
},
{
closed = 1;
nodes = (
(632,437,l),
(644,500,l),
(104,500,l),
(92,437,l)
);
}
);
width = 691;
},
{
layerId = m008;
shapes = (
{
closed = 1;
nodes = (
(607,0,l),
(629,113,l),
(589,113,ls),
(549,113,o),
(533,133,o),
(541,173,cs),
(604,500,l),
(469,500,l),
(403,160,ls),
(382,50,o),
(432,0,o),
(542,0,cs)
);
},
{
closed = 1;
nodes = (
(232,0,l),
(329,500,l),
(194,500,l),
(97,0,l)
);
},
{
closed = 1;
nodes = (
(684,397,l),
(704,500,l),
(94,500,l),
(74,397,l)
);
}
);
width = 741;
},
{
layerId = m006;
shapes = (
{
closed = 1;
nodes = (
(532,0,l),
(542,53,l),
(512,53,ls),
(467,53,o),
(447,78,o),
(456,123,cs),
(529,500,l),
(474,500,l),
(402,130,ls),
(386,44,o),
(421,0,o),
(507,0,cs)
);
},
{
closed = 1;
nodes = (
(167,0,l),
(264,500,l),
(209,500,l),
(112,0,l)
);
},
{
closed = 1;
nodes = (
(619,447,l),
(629,500,l),
(109,500,l),
(99,447,l)
);
}
);
width = 681;
}
);
metricLeft = m;
metricRight = q;
unicode = 960;
},
{
glyphname = zero;
kernLeft = zero;
kernRight = zero;
lastChange = "2022-08-24 19:49:10 +0000";
layers = (
{
layerId = m01;
shapes = (
{
closed = 1;
nodes = (
(503,-16,o),
(606,130,o),
(606,350,cs),
(606,570,o),
(503,716,o),
(333,716,cs),
(163,716,o),
(60,570,o),
(60,350,cs),
(60,130,o),
(163,-16,o),
(333,-16,cs)
);
},
{
closed = 1;
nodes = (
(193,57,o),
(138,200,o),
(138,350,cs),
(138,500,o),
(193,643,o),
(333,643,cs),
(473,643,o),
(528,500,o),
(528,350,cs),
(528,200,o),
(473,57,o),
(333,57,cs)
);
}
);
width = 666;
},
{
layerId = m005;
shapes = (
{
closed = 1;
nodes = (
(558,-16,o),
(666,130,o),
(666,350,cs),
(666,570,o),
(558,716,o),
(358,716,cs),
(158,716,o),
(50,570,o),
(50,350,cs),
(50,130,o),
(158,-16,o),
(358,-16,cs)
);
},
{
closed = 1;
nodes = (
(248,97,o),
(198,210,o),
(198,350,cs),
(198,490,o),
(248,603,o),
(358,603,cs),
(468,603,o),
(518,490,o),
(518,350,cs),
(518,210,o),
(468,97,o),
(358,97,cs)
);
}
);
width = 716;
},
{
layerId = m007;
shapes = (
{
closed = 1;
nodes = (
(498,-16,o),
(591,130,o),
(591,350,cs),
(591,570,o),
(498,716,o),
(328,716,cs),
(158,716,o),
(65,570,o),
(65,350,cs),
(65,130,o),
(158,-16,o),
(328,-16,cs)
);
},
{
closed = 1;
nodes = (
(178,37,o),
(123,180,o),
(123,350,cs),
(123,520,o),
(178,663,o),
(328,663,cs),
(478,663,o),
(533,520,o),
(533,350,cs),
(533,180,o),
(478,37,o),
(328,37,cs)
);
}
);
width = 656;
},
{
layerId = m004;
shapes = (
{
closed = 1;
nodes = (
(435,-16,o),
(561,124,o),
(605,350,cs),
(648,570,o),
(549,716,o),
(389,716,cs),
(229,716,o),
(103,576,o),
(59,350,cs),
(16,130,o),
(115,-16,o),
(275,-16,cs)
);
},
{
closed = 1;
nodes = (
(145,57,o),
(107,193,o),
(137,350,cs),
(166,500,o),
(249,643,o),
(389,643,cs),
(519,643,o),
(557,507,o),
(527,350,cs),
(498,200,o),
(415,57,o),
(275,57,cs)
);
}
);
width = 666;
},
{
layerId = m008;
shapes = (
{
closed = 1;
nodes = (
(486,-16,o),
(621,124,o),
(665,350,cs),
(703,546,o),
(618,716,o),
(418,716,cs),
(228,716,o),
(93,576,o),
(49,350,cs),
(11,154,o),
(96,-16,o),
(296,-16,cs)
);
},
{
closed = 1;
nodes = (
(208,97,o),
(167,193,o),
(197,350,cs),
(227,507,o),
(306,603,o),
(406,603,cs),
(506,603,o),
(547,507,o),
(517,350,cs),
(487,193,o),
(408,97,o),
(308,97,cs)
);
}
);
width = 716;
},
{
layerId = m006;
shapes = (
{
closed = 1;
nodes = (
(416,-16,o),
(544,114,o),
(590,350,cs),
(633,570,o),
(548,716,o),
(388,716,cs),
(238,716,o),
(110,586,o),
(64,350,cs),
(21,130,o),
(106,-16,o),
(266,-16,cs)
);
},
{
closed = 1;
nodes = (
(126,37,o),
(91,193,o),
(122,350,cs),
(160,546,o),
(258,663,o),
(388,663,cs),
(528,663,o),
(563,507,o),
(532,350,cs),
(494,154,o),
(396,37,o),
(266,37,cs)
);
}
);
width = 656;
}
);
unicode = 48;
},
{
glyphname = one;
kernLeft = one;
kernRight = one;
lastChange = "2022-07-31 09:07:25 +0000";
layers = (
{
layerId = m01;
shapes = (
{
closed = 1;
nodes = (
(338,43,l),
(338,700,l),
(260,700,l),
(260,560,o),
(209,500,o),
(109,500,cs),
(80,500,l),
(80,427,l),
(109,427,ls),
(210,427,o),
(267,480,o),
(267,560,c),
(260,560,l),
(260,43,l)
);
},
{
closed = 1;
nodes = (
(518,0,l),
(518,73,l),
(80,73,l),
(80,0,l)
);
}
);
width = 548;
},
{
layerId = m005;
shapes = (
{
closed = 1;
nodes = (
(398,0,l),
(398,700,l),
(250,700,l),
(250,550,o),
(214,500,o),
(134,500,cs),
(70,500,l),
(70,387,l),
(134,387,ls),
(234,387,o),
(267,450,o),
(267,590,c),
(250,590,l),
(250,0,l)
);
},
{
closed = 1;
nodes = (
(578,0,l),
(578,113,l),
(70,113,l),
(70,0,l)
);
}
);
width = 598;
},
{
layerId = m007;
shapes = (
{
closed = 1;
nodes = (
(323,33,l),
(323,700,l),
(265,700,l),
(265,560,o),
(194,500,o),
(114,500,cs),
(85,500,l),
(85,447,l),
(114,447,ls),
(184,447,o),
(272,500,o),
(272,620,c),
(265,600,l),
(265,33,l)
);
},
{
closed = 1;
nodes = (
(503,0,l),
(503,53,l),
(85,53,l),
(85,0,l)
);
}
);
width = 538;
},
{
layerId = m004;
shapes = (
{
closed = 1;
nodes = (
(278,43,l),
(406,700,l),
(328,700,l),
(301,560,o),
(238,500,o),
(138,500,cs),
(109,500,l),
(95,427,l),
(124,427,ls),
(225,427,o),
(292,480,o),
(308,560,c),
(301,560,l),
(200,43,l)
);
},
{
closed = 1;
nodes = (
(450,0,l),
(464,73,l),
(26,73,l),
(12,0,l)
);
}
);
width = 549;
},
{
layerId = m008;
shapes = (
{
closed = 1;
nodes = (
(330,0,l),
(466,700,l),
(318,700,l),
(289,550,o),
(243,500,o),
(163,500,cs),
(99,500,l),
(77,387,l),
(141,387,ls),
(241,387,o),
(287,453,o),
(314,590,c),
(297,590,l),
(182,0,l)
);
},
{
closed = 1;
nodes = (
(510,0,l),
(532,113,l),
(24,113,l),
(2,0,l)
);
}
);
width = 599;
},
{
layerId = m006;
shapes = (
{
closed = 1;
nodes = (
(261,33,l),
(391,700,l),
(333,700,l),
(306,560,o),
(223,500,o),
(143,500,cs),
(114,500,l),
(104,447,l),
(133,447,ls),
(203,447,o),
(298,483,o),
(324,620,c),
(314,600,l),
(203,33,l)
);
},
{
closed = 1;
nodes = (
(435,0,l),
(445,53,l),
(27,53,l),
(17,0,l)
);
}
);
width = 539;
}
);
unicode = 49;
},
{
glyphname = two;
kernLeft = two;
kernRight = two;
lastChange = "2022-08-21 17:36:34 +0000";
layers = (
{
layerId = m01;
shapes = (
{
closed = 1;
nodes = (
(541,0,l),
(541,73,l),
(132,73,l),
(162,56,l),
(324,134,o),
(525,300,o),
(525,500,cs),
(525,620,o),
(442,716,o),
(302,716,cs),
(152,716,o),
(60,620,o),
(60,500,c),
(138,490,l),
(138,580,o),
(202,643,o),
(302,643,cs),
(392,643,o),
(447,580,o),
(447,500,cs),
(447,330,o),
(267,176,o),
(61,73,c),
(61,0,l)
);
}
);
width = 601;
},
{
layerId = m005;
shapes = (
{
closed = 1;
nodes = (
(601,0,l),
(601,113,l),
(174,113,l),
(174,64,l),
(255,98,o),
(585,260,o),
(585,480,cs),
(585,610,o),
(477,716,o),
(317,716,cs),
(157,716,o),
(50,609,o),
(50,490,c),
(198,480,l),
(198,560,o),
(247,603,o),
(317,603,cs),
(387,603,o),
(437,560,o),
(437,480,cs),
(437,320,o),
(156,170,o),
(51,113,c),
(51,0,l)
);
}
);
width = 651;
},
{
layerId = m007;
shapes = (
{
closed = 1;
nodes = (
(526,0,l),
(526,53,l),
(124,53,l),
(154,48,l),
(304,128,o),
(510,295,o),
(510,500,cs),
(510,620,o),
(432,716,o),
(292,716,cs),
(142,716,o),
(66,620,o),
(66,510,c),
(124,501,l),
(124,601,o),
(182,663,o),
(292,663,cs),
(382,663,o),
(452,600,o),
(452,500,cs),
(452,310,o),
(262,157,o),
(66,53,c),
(66,0,l)
);
}
);
width = 591;
},
{
layerId = m004;
shapes = (
{
closed = 1;
nodes = (
(473,0,l),
(487,73,l),
(78,73,l),
(105,56,l),
(251,121,o),
(506,254,o),
(552,490,cs),
(579,627,o),
(493,716,o),
(363,716,cs),
(223,716,o),
(113,628,o),
(89,500,c),
(165,490,l),
(183,580,o),
(249,643,o),
(349,643,cs),
(449,643,o),
(492,578,o),
(475,490,cs),
(442,323,o),
(262,189,o),
(7,73,c),
(-7,0,l)
);
}
);
width = 602;
},
{
layerId = m008;
shapes = (
{
closed = 1;
nodes = (
(533,0,l),
(555,113,l),
(128,113,l),
(98,64,l),
(211,105,o),
(568,260,o),
(610,480,cs),
(636,610,o),
(548,716,o),
(388,716,cs),
(218,716,o),
(100,609,o),
(77,490,c),
(223,480,l),
(239,560,o),
(296,603,o),
(366,603,cs),
(436,603,o),
(478,560,o),
(462,480,cs),
(431,320,o),
(121,170,o),
(5,113,c),
(-17,0,l)
);
}
);
width = 652;
},
{
layerId = m006;
shapes = (
{
closed = 1;
nodes = (
(457,0,l),
(467,53,l),
(65,53,l),
(99,48,l),
(265,128,o),
(496,284,o),
(536,490,cs),
(561,618,o),
(482,716,o),
(352,716,cs),
(202,716,o),
(117,620,o),
(96,510,c),
(152,501,l),
(172,601,o),
(242,663,o),
(352,663,cs),
(452,663,o),
(498,588,o),
(478,490,cs),
(443,310,o),
(223,157,o),
(7,53,c),
(-3,0,l)
);
}
);
width = 591;
}
);
unicode = 50;
},
{
glyphname = three;
kernLeft = three;
kernRight = three;
lastChange = "2022-08-01 15:21:19 +0000";
layers = (
{
layerId = m01;
shapes = (
{
closed = 1;
nodes = (
(452,-16,o),
(554,72,o),
(554,192,cs),
(554,312,o),
(467,374,o),
(367,374,c),
(367,354,l),
(447,354,o),
(528,421,o),
(528,521,cs),
(528,621,o),
(452,716,o),
(302,716,cs),
(152,716,o),
(77,629,o),
(74,539,c),
(152,529,l),
(155,597,o),
(212,643,o),
(302,643,cs),
(392,643,o),
(452,591,o),
(452,521,cs),
(452,451,o),
(392,400,o),
(292,400,cs),
(222,400,l),
(222,327,l),
(292,327,ls),
(382,327,o),
(476,282,o),
(476,192,cs),
(476,102,o),
(382,57,o),
(302,57,cs),
(222,57,o),
(128,98,o),
(128,204,c),
(50,194,l),
(50,74,o),
(152,-16,o),
(302,-16,cs)
);
}
);
width = 614;
},
{
layerId = m005;
shapes = (
{
closed = 1;
nodes = (
(507,-16,o),
(616,73,o),
(616,193,cs),
(616,333,o),
(483,380,o),
(373,380,c),
(373,347,l),
(483,347,o),
(590,402,o),
(590,522,cs),
(590,642,o),
(497,716,o),
(327,716,cs),
(157,716,o),
(64,620,o),
(64,510,c),
(212,500,l),
(212,570,o),
(257,603,o),
(327,603,cs),
(397,603,o),
(444,572,o),
(444,512,cs),
(444,452,o),
(397,421,o),
(327,421,cs),
(252,421,l),
(252,308,l),
(327,308,ls),
(397,308,o),
(468,283,o),
(468,203,cs),
(468,133,o),
(407,97,o),
(327,97,cs),
(247,97,o),
(188,129,o),
(188,229,c),
(40,219,l),
(40,69,o),
(147,-16,o),
(327,-16,cs)
);
}
);
width = 666;
},
{
layerId = m007;
shapes = (
{
closed = 1;
nodes = (
(449,-16,o),
(541,74,o),
(541,189,cs),
(541,299,o),
(454,366,o),
(384,366,c),
(384,362,l),
(444,362,o),
(517,436,o),
(517,527,cs),
(517,623,o),
(449,716,o),
(299,716,cs),
(149,716,o),
(90,617,o),
(82,550,c),
(140,540,l),
(149,609,o),
(209,663,o),
(299,663,cs),
(389,663,o),
(459,603,o),
(459,527,cs),
(459,450,o),
(393,391,o),
(289,391,cs),
(229,391,l),
(229,338,l),
(289,338,ls),
(382,338,o),
(483,286,o),
(483,189,cs),
(483,92,o),
(389,39,o),
(299,39,cs),
(209,39,o),
(120,88,o),
(113,193,c),
(55,183,l),
(55,85,o),
(149,-16,o),
(299,-16,cs)
);
}
);
width = 608;
},
{
layerId = m004;
shapes = (
{
closed = 1;
nodes = (
(380,-16,o),
(499,72,o),
(522,192,cs),
(546,312,o),
(471,374,o),
(371,374,c),
(357,354,l),
(457,354,o),
(541,421,o),
(560,521,cs),
(580,621,o),
(522,716,o),
(372,716,cs),
(222,716,o),
(130,629,o),
(110,539,c),
(186,529,l),
(202,597,o),
(268,643,o),
(358,643,cs),
(448,643,o),
(500,599,o),
(484,521,cs),
(471,451,o),
(401,400,o),
(301,400,cs),
(231,400,l),
(217,327,l),
(287,327,ls),
(387,327,o),
(466,300,o),
(444,192,cs),
(427,102,o),
(324,57,o),
(244,57,cs),
(164,57,o),
(78,98,o),
(99,204,c),
(19,194,l),
(-5,74,o),
(90,-16,o),
(230,-16,cs)
);
}
);
width = 613;
},
{
layerId = m008;
shapes = (
{
closed = 1;
nodes = (
(445,-16,o),
(560,65,o),
(584,193,cs),
(604,291,o),
(518,380,o),
(378,380,c),
(371,347,l),
(481,347,o),
(598,394,o),
(622,522,cs),
(644,630,o),
(547,716,o),
(387,716,cs),
(217,716,o),
(115,620,o),
(94,510,c),
(240,500,l),
(252,559,o),
(305,603,o),
(375,603,cs),
(445,603,o),
(486,571,o),
(474,512,cs),
(463,453,o),
(410,421,o),
(340,421,cs),
(265,421,l),
(243,308,l),
(318,308,ls),
(388,308,o),
(454,281,o),
(438,203,cs),
(425,133,o),
(357,97,o),
(277,97,cs),
(207,97,o),
(144,129,o),
(163,229,c),
(14,219,l),
(-13,82,o),
(95,-16,o),
(265,-16,cs)
);
}
);
width = 665;
},
{
layerId = m006;
shapes = (
{
closed = 1;
nodes = (
(387,-16,o),
(485,71,o),
(507,179,cs),
(526,277,o),
(446,366,o),
(376,366,c),
(385,362,l),
(445,362,o),
(533,436,o),
(550,527,cs),
(569,625,o),
(489,716,o),
(369,716,cs),
(219,716,o),
(141,617,o),
(120,550,c),
(176,540,l),
(198,609,o),
(269,663,o),
(359,663,cs),
(449,663,o),
(507,603,o),
(492,527,cs),
(477,450,o),
(400,391,o),
(296,391,cs),
(236,391,l),
(226,338,l),
(286,338,ls),
(379,338,o),
(470,286,o),
(449,179,cs),
(432,92,o),
(338,39,o),
(238,39,cs),
(148,39,o),
(68,88,o),
(81,193,c),
(22,183,l),
(2,85,o),
(77,-16,o),
(227,-16,cs)
);
}
);
width = 606;
}
);
unicode = 51;
},
{
glyphname = four;
kernLeft = four;
kernRight = four;
lastChange = "2022-07-31 09:10:59 +0000";
layers = (
{
layerId = m01;
shapes = (
{
closed = 1;
nodes = (
(664,193,l),
(664,266,l),
(92,266,l),
(66,216,l),
(301,339,o),
(316,530,o),
(316,700,c),
(238,700,l),
(238,530,o),
(225,385,o),
(40,266,c),
(40,193,l)
);
},
{
closed = 1;
nodes = (
(544,0,l),
(544,700,l),
(466,700,l),
(466,0,l)
);
}
);
width = 709;
},
{
layerId = m005;
shapes = (
{
closed = 1;
nodes = (
(714,173,l),
(714,286,l),
(90,286,l),
(73,209,l),
(343,334,o),
(366,530,o),
(366,700,c),
(228,700,l),
(228,530,o),
(223,391,o),
(30,286,c),
(30,173,l)
);
},
{
closed = 1;
nodes = (
(594,0,l),
(594,700,l),
(456,700,l),
(456,0,l)
);
}
);
width = 749;
},
{
layerId = m007;
shapes = (
{
closed = 1;
nodes = (
(649,203,l),
(649,256,l),
(94,256,l),
(83,231,l),
(288,360,o),
(301,530,o),
(301,700,c),
(243,700,l),
(243,530,o),
(227,380,o),
(45,256,c),
(45,203,l)
);
},
{
closed = 1;
nodes = (
(529,0,l),
(529,700,l),
(471,700,l),
(471,0,l)
);
}
);
width = 699;
},
{
layerId = m004;
shapes = (
{
closed = 1;
nodes = (
(633,193,l),
(648,266,l),
(76,266,l),
(40,216,l),
(299,339,o),
(348,513,o),
(384,700,c),
(306,700,l),
(273,530,o),
(232,385,o),
(24,266,c),
(9,193,l)
);
},
{
closed = 1;
nodes = (
(476,0,l),
(612,700,l),
(534,700,l),
(398,0,l)
);
}
);
width = 710;
},
{
layerId = m008;
shapes = (
{
closed = 1;
nodes = (
(679,173,l),
(701,286,l),
(77,286,l),
(45,229,l),
(340,314,o),
(399,523,o),
(433,700,c),
(295,700,l),
(263,533,o),
(223,388,o),
(17,286,c),
(-5,173,l)
);
},
{
closed = 1;
nodes = (
(525,0,l),
(661,700,l),
(523,700,l),
(387,0,l)
);
}
);
width = 749;
},
{
layerId = m006;
shapes = (
{
closed = 1;
nodes = (
(620,203,l),
(631,256,l),
(76,256,l),
(60,231,l),
(290,360,o),
(336,530,o),
(369,700,c),
(311,700,l),
(278,530,o),
(233,380,o),
(27,256,c),
(16,203,l)
);
},
{
closed = 1;
nodes = (
(461,0,l),
(597,700,l),
(539,700,l),
(403,0,l)
);
}
);
width = 700;
}
);
unicode = 52;
},
{
glyphname = five;
kernLeft = five;
kernRight = five;
lastChange = "2022-08-01 15:33:33 +0000";
layers = (
{
layerId = m01;
shapes = (
{
closed = 1;
nodes = (
(443,-16,o),
(548,83,o),
(548,233,cs),
(548,383,o),
(443,478,o),
(313,478,cs),
(219,478,o),
(151,428,o),
(141,378,c),
(152,378,l),
(170,627,l),
(495,627,l),
(495,700,l),
(101,700,l),
(71,312,l),
(149,312,l),
(153,321,o),
(193,409,o),
(313,409,cs),
(413,409,o),
(470,323,o),
(470,233,cs),
(470,143,o),
(413,56,o),
(303,56,cs),
(193,56,o),
(138,114,o),
(138,204,c),
(60,194,l),
(60,64,o),
(163,-16,o),
(303,-16,cs)
);
}
);
width = 598;
},
{
layerId = m005;
shapes = (
{
closed = 1;
nodes = (
(497,-16,o),
(607,88,o),
(607,228,cs),
(607,368,o),
(517,468,o),
(367,468,cs),
(197,468,o),
(183,368,o),
(173,318,c),
(203,338,l),
(221,587,l),
(554,587,l),
(554,700,l),
(92,700,l),
(58,302,l),
(200,302,l),
(220,332,o),
(257,359,o),
(327,359,cs),
(407,359,o),
(459,308,o),
(459,228,cs),
(459,148,o),
(407,96,o),
(327,96,cs),
(247,96,o),
(199,149,o),
(199,209,c),
(50,199,l),
(50,69,o),
(157,-16,o),
(327,-16,cs)
);
}
);
width = 647;
},
{
layerId = m007;
shapes = (
{
closed = 1;
nodes = (
(438,-16,o),
(533,78,o),
(533,228,cs),
(533,378,o),
(438,468,o),
(308,468,cs),
(228,468,o),
(166,430,o),
(119,368,c),
(135,353,l),
(156,647,l),
(480,647,l),
(480,700,l),
(105,700,l),
(77,322,l),
(138,322,l),
(147,340,o),
(188,419,o),
(308,419,cs),
(418,419,o),
(475,328,o),
(475,228,cs),
(475,128,o),
(418,36,o),
(298,36,cs),
(178,36,o),
(123,123,o),
(123,193,c),
(65,183,l),
(65,83,o),
(158,-16,o),
(298,-16,cs)
);
}
);
width = 598;
},
{
layerId = m004;
shapes = (
{
closed = 1;
nodes = (
(381,-16,o),
(492,66,o),
(524,233,cs),
(553,383,o),
(467,478,o),
(337,478,cs),
(243,478,o),
(165,428,o),
(145,378,c),
(156,378,l),
(223,627,l),
(548,627,l),
(562,700,l),
(168,700,l),
(63,312,l),
(141,312,l),
(146,321,o),
(203,409,o),
(323,409,cs),
(423,409,o),
(466,331,o),
(446,233,cs),
(429,143,o),
(355,56,o),
(245,56,cs),
(135,56,o),
(91,114,o),
(109,204,c),
(29,194,l),
(5,76,o),
(91,-16,o),
(231,-16,cs)
);
}
);
width = 597;
},
{
layerId = m008;
shapes = (
{
closed = 1;
nodes = (
(435,-16,o),
(552,71,o),
(580,218,cs),
(609,368,o),
(529,468,o),
(389,468,cs),
(229,468,o),
(185,368,o),
(166,318,c),
(200,338,l),
(266,587,l),
(599,587,l),
(621,700,l),
(159,700,l),
(48,302,l),
(190,302,l),
(216,332,o),
(258,359,o),
(328,359,cs),
(408,359,o),
(450,308,o),
(434,228,cs),
(419,148,o),
(357,96,o),
(277,96,cs),
(197,96,o),
(159,149,o),
(171,209,c),
(20,199,l),
(0,101,o),
(85,-16,o),
(265,-16,cs)
);
}
);
width = 646;
},
{
layerId = m006;
shapes = (
{
closed = 1;
nodes = (
(376,-16,o),
(479,78,o),
(508,228,cs),
(533,356,o),
(470,468,o),
(320,468,cs),
(230,468,o),
(165,422,o),
(121,368,c),
(135,353,l),
(213,647,l),
(537,647,l),
(547,700,l),
(172,700,l),
(71,322,l),
(132,322,l),
(144,340,o),
(210,419,o),
(320,419,cs),
(420,419,o),
(474,346,o),
(450,228,cs),
(433,140,o),
(366,36,o),
(236,36,cs),
(106,36,o),
(80,134,o),
(91,193,c),
(32,183,l),
(14,95,o),
(86,-16,o),
(236,-16,cs)
);
}
);
width = 597;
}
);
unicode = 53;
},
{
glyphname = six;
kernLeft = zero;
kernRight = six;
lastChange = "2022-08-01 15:17:30 +0000";
layers = (
{
layerId = m01;
shapes = (
{
closed = 1;
nodes = (
(453,-16,o),
(564,85,o),
(564,225,cs),
(564,375,o),
(453,465,o),
(323,465,cs),
(193,465,o),
(110,369,o),
(120,239,c),
(130,269,l),
(125,509,o),
(183,643,o),
(333,643,cs),
(423,643,o),
(463,590,o),
(490,519,c),
(571,529,l),
(531,663,o),
(453,716,o),
(333,716,cs),
(183,716,o),
(60,601,o),
(60,353,cs),
(60,193,o),
(113,-16,o),
(323,-16,cs)
);
},
{
closed = 1;
nodes = (
(221,57,o),
(157,125,o),
(157,225,cs),
(157,325,o),
(223,392,o),
(323,392,cs),
(423,392,o),
(486,325,o),
(486,225,cs),
(486,125,o),
(423,57,o),
(323,57,cs)
);
}
);
width = 631;
},
{
layerId = m005;
shapes = (
{
closed = 1;
nodes = (
(498,-16,o),
(624,75,o),
(624,235,cs),
(624,395,o),
(507,485,o),
(358,485,cs),
(248,485,o),
(150,418,o),
(150,278,c),
(180,308,l),
(160,527,o),
(268,603,o),
(358,603,cs),
(438,603,o),
(472,553,o),
(487,505,c),
(635,515,l),
(601,661,o),
(488,716,o),
(358,716,cs),
(188,716,o),
(50,603,o),
(50,343,cs),
(50,183,o),
(108,-16,o),
(348,-16,cs)
);
},
{
closed = 1;
nodes = (
(258,97,o),
(217,165,o),
(217,235,cs),
(217,305,o),
(258,372,o),
(348,372,cs),
(438,372,o),
(476,305,o),
(476,235,cs),
(476,165,o),
(438,97,o),
(348,97,cs)
);
}
);
width = 685;
},
{
layerId = m007;
shapes = (
{
closed = 1;
nodes = (
(448,-16,o),
(549,80,o),
(549,220,cs),
(549,360,o),
(448,455,o),
(318,455,cs),
(198,455,o),
(115,369,o),
(111,249,c),
(120,251,l),
(95,510,o),
(178,663,o),
(328,663,cs),
(418,663,o),
(461,604,o),
(491,530,c),
(553,540,l),
(515,654,o),
(438,716,o),
(328,716,cs),
(188,716,o),
(65,603,o),
(65,353,cs),
(65,183,o),
(118,-16,o),
(318,-16,cs)
);
},
{
closed = 1;
nodes = (
(210,37,o),
(142,120,o),
(142,220,cs),
(142,320,o),
(218,402,o),
(318,402,cs),
(418,402,o),
(491,320,o),
(491,220,cs),
(491,120,o),
(424,37,o),
(318,37,cs)
);
}
);
width = 618;
},
{
layerId = m004;
shapes = (
{
closed = 1;
nodes = (
(381,-16,o),
(506,58,o),
(539,225,cs),
(566,362,o),
(474,465,o),
(344,465,cs),
(204,465,o),
(113,369,o),
(97,239,c),
(113,269,l),
(155,509,o),
(239,643,o),
(389,643,cs),
(479,643,o),
(509,590,o),
(522,519,c),
(605,529,l),
(595,628,o),
(523,716,o),
(403,716,cs),
(243,716,o),
(111,618,o),
(60,353,cs),
(18,137,o),
(81,-16,o),
(261,-16,cs)
);
},
{
closed = 1;
nodes = (
(165,57,o),
(115,137,o),
(132,225,cs),
(153,333,o),
(230,392,o),
(330,392,cs),
(430,392,o),
(480,323,o),
(461,225,cs),
(441,125,o),
(375,57,o),
(265,57,cs)
);
}
);
width = 631;
},
{
layerId = m008;
shapes = (
{
closed = 1;
nodes = (
(436,-16,o),
(567,58,o),
(601,235,cs),
(626,363,o),
(543,485,o),
(383,485,cs),
(273,485,o),
(162,418,o),
(135,278,c),
(171,308,l),
(193,527,o),
(316,603,o),
(396,603,cs),
(486,603,o),
(510,553,o),
(516,505,c),
(666,515,l),
(660,645,o),
(558,716,o),
(418,716,cs),
(258,716,o),
(101,618,o),
(48,343,cs),
(10,147,o),
(96,-16,o),
(286,-16,cs)
);
},
{
closed = 1;
nodes = (
(208,97,o),
(180,165,o),
(194,235,cs),
(207,305,o),
(261,372,o),
(351,372,cs),
(441,372,o),
(466,305,o),
(453,235,cs),
(439,165,o),
(388,97,o),
(298,97,cs)
);
}
);
width = 684;
},
{
layerId = m006;
shapes = (
{
closed = 1;
nodes = (
(376,-16,o),
(493,63,o),
(523,220,cs),
(550,360,o),
(467,455,o),
(327,455,cs),
(217,455,o),
(119,375,o),
(90,259,c),
(100,251,l),
(125,510,o),
(258,663,o),
(388,663,cs),
(498,663,o),
(515,579,o),
(525,530,c),
(589,540,l),
(578,619,o),
(528,716,o),
(388,716,cs),
(248,716,o),
(110,589,o),
(65,353,cs),
(27,157,o),
(56,-16,o),
(256,-16,cs)
);
},
{
closed = 1;
nodes = (
(156,37,o),
(92,102,o),
(116,220,cs),
(135,320,o),
(227,402,o),
(327,402,cs),
(427,402,o),
(484,320,o),
(465,220,cs),
(445,120,o),
(362,37,o),
(256,37,cs)
);
}
);
width = 618;
}
);
unicode = 54;
},
